Indiction-Regular.ufo
<glyph name="exclam" format="2">
  <advance width="177"/>
  <unicode hex="0021"/>
  <outline>
    <contour>
      <point x="94" y="142" type="curve" smooth="yes"/>
      <point x="94" y="141"/>
      <point x="92" y="140"/>
      <point x="89" y="140" type="curve" smooth="yes"/>
      <point x="86" y="140"/>
      <point x="84" y="141"/>
      <point x="84" y="142" type="curve" smooth="yes"/>
      <point x="73" y="259"/>
      <point x="60" y="382"/>
      <point x="46" y="494" type="curve" smooth="yes"/>
      <point x="41" y="534"/>
      <point x="32" y="566"/>
      <point x="32" y="590" type="curve" smooth="yes"/>
      <point x="32" y="595"/>
      <point x="37" y="602"/>
      <point x="42" y="602" type="curve" smooth="yes"/>
      <point x="42" y="602"/>
      <point x="42" y="602"/>
      <point x="43" y="602" type="curve" smooth="yes"/>
      <point x="67" y="600"/>
      <point x="102" y="597"/>
      <point x="125" y="595" type="curve"/>
      <point x="129" y="594"/>
      <point x="134" y="588"/>
      <point x="133" y="582" type="curve"/>
      <point x="131" y="570"/>
      <point x="130" y="553"/>
      <point x="127" y="531" type="curve" smooth="yes"/>
      <point x="120" y="458" type="line" smooth="yes"/>
      <point x="115" y="404"/>
      <point x="110" y="339"/>
      <point x="105" y="284" type="curve" smooth="yes"/>
      <point x="101" y="237"/>
      <point x="95" y="184"/>
    </contour>
    <contour>
      <point x="32" y="50" type="curve" smooth="yes"/>
      <point x="32" y="81"/>
      <point x="58" y="105"/>
      <point x="90" y="105" type="curve" smooth="yes"/>
      <point x="120" y="105"/>
      <point x="144" y="78"/>
      <point x="144" y="47" type="curve" smooth="yes"/>
      <point x="144" y="17"/>
      <point x="118" y="-6"/>
      <point x="87" y="-6" type="curve" smooth="yes"/>
      <point x="56" y="-6"/>
      <point x="32" y="19"/>
    </contour>
  </outline>
</glyph>
<glyph name="quotedbl" format="2">
  <advance width="500"/>
  <unicode hex="0022"/>
  <outline>
    <contour>
      <point x="164" y="800" type="curve" smooth="yes"/>
      <point x="214" y="800"/>
      <point x="233" y="737"/>
      <point x="233" y="686" type="curve" smooth="yes"/>
      <point x="233" y="574"/>
      <point x="160" y="495"/>
      <point x="89" y="453" type="curve" smooth="yes"/>
      <point x="87" y="452"/>
      <point x="85" y="451"/>
      <point x="83" y="451" type="curve" smooth="yes"/>
      <point x="78" y="451"/>
      <point x="79" y="458"/>
      <point x="84" y="465" type="curve" smooth="yes"/>
      <point x="105" y="492"/>
      <point x="124" y="520"/>
      <point x="140" y="549" type="curve" smooth="yes"/>
      <point x="156" y="578"/>
      <point x="164" y="607"/>
      <point x="164" y="633" type="curve" smooth="yes"/>
      <point x="164" y="663"/>
      <point x="159" y="694"/>
      <point x="122" y="703" type="curve" smooth="yes"/>
      <point x="117" y="704"/>
      <point x="115" y="704"/>
      <point x="109" y="704" type="curve" smooth="yes"/>
      <point x="73" y="704"/>
      <point x="43" y="680"/>
      <point x="27" y="659" type="curve" smooth="yes"/>
      <point x="21" y="652"/>
      <point x="10" y="655"/>
      <point x="17" y="666" type="curve"/>
      <point x="39" y="721"/>
      <point x="84" y="776"/>
      <point x="140" y="796" type="curve" smooth="yes"/>
      <point x="147" y="798"/>
      <point x="157" y="800"/>
    </contour>
    <contour>
      <point x="419" y="800" type="curve" smooth="yes"/>
      <point x="469" y="800"/>
      <point x="489" y="737"/>
      <point x="489" y="686" type="curve" smooth="yes"/>
      <point x="489" y="574"/>
      <point x="416" y="495"/>
      <point x="345" y="453" type="curve" smooth="yes"/>
      <point x="343" y="452"/>
      <point x="341" y="451"/>
      <point x="339" y="451" type="curve" smooth="yes"/>
      <point x="334" y="451"/>
      <point x="335" y="458"/>
      <point x="340" y="465" type="curve" smooth="yes"/>
      <point x="361" y="492"/>
      <point x="380" y="520"/>
      <point x="396" y="549" type="curve" smooth="yes"/>
      <point x="412" y="578"/>
      <point x="419" y="607"/>
      <point x="419" y="633" type="curve" smooth="yes"/>
      <point x="419" y="663"/>
      <point x="414" y="694"/>
      <point x="377" y="703" type="curve" smooth="yes"/>
      <point x="372" y="704"/>
      <point x="371" y="704"/>
      <point x="365" y="704" type="curve" smooth="yes"/>
      <point x="329" y="704"/>
      <point x="299" y="680"/>
      <point x="283" y="659" type="curve" smooth="yes"/>
      <point x="277" y="652"/>
      <point x="266" y="655"/>
      <point x="273" y="666" type="curve"/>
      <point x="295" y="721"/>
      <point x="340" y="776"/>
      <point x="396" y="796" type="curve" smooth="yes"/>
      <point x="403" y="798"/>
      <point x="412" y="800"/>
    </contour>
  </outline>
</glyph>
<glyph name="numbersign" format="2">
  <advance width="644"/>
  <unicode hex="0023"/>
  <outline>
    <contour>
      <point x="584" y="336" type="line"/>
      <point x="584" y="268" type="line"/>
      <point x="449" y="268" type="line"/>
      <point x="410" y="0" type="line"/>
      <point x="339" y="0" type="line"/>
      <point x="377" y="268" type="line"/>
      <point x="211" y="268" type="line"/>
      <point x="170" y="0" type="line"/>
      <point x="98" y="0" type="line"/>
      <point x="139" y="268" type="line"/>
      <point x="6" y="268" type="line"/>
      <point x="6" y="336" type="line"/>
      <point x="150" y="336" type="line"/>
      <point x="176" y="502" type="line"/>
      <point x="40" y="502" type="line"/>
      <point x="40" y="570" type="line"/>
      <point x="186" y="570" type="line"/>
      <point x="224" y="821" type="line"/>
      <point x="296" y="821" type="line"/>
      <point x="258" y="570" type="line"/>
      <point x="423" y="570" type="line"/>
      <point x="460" y="821" type="line"/>
      <point x="532" y="821" type="line"/>
      <point x="495" y="570" type="line"/>
      <point x="615" y="570" type="line"/>
      <point x="615" y="502" type="line"/>
      <point x="485" y="502" type="line"/>
      <point x="460" y="336" type="line"/>
    </contour>
    <contour>
      <point x="413" y="502" type="line"/>
      <point x="248" y="502" type="line"/>
      <point x="222" y="336" type="line"/>
      <point x="388" y="336" type="line"/>
    </contour>
  </outline>
</glyph>
<glyph name="dollar" format="2">
  <advance width="620"/>
  <unicode hex="0024"/>
  <outline>
    <contour>
      <point x="285" y="0" type="line"/>
      <point x="173" y="0"/>
      <point x="129" y="17"/>
      <point x="55" y="63" type="curve"/>
      <point x="55" y="224" type="line"/>
      <point x="73" y="224" type="line"/>
      <point x="99" y="107"/>
      <point x="154" y="35"/>
      <point x="285" y="35" type="curve"/>
      <point x="285" y="384" type="line"/>
      <point x="203" y="430"/>
      <point x="146" y="471"/>
      <point x="114" y="506" type="curve" smooth="yes"/>
      <point x="81" y="543"/>
      <point x="64" y="585"/>
      <point x="64" y="635" type="curve" smooth="yes"/>
      <point x="64" y="759"/>
      <point x="162" y="809"/>
      <point x="285" y="823" type="curve"/>
      <point x="285" y="901" type="line"/>
      <point x="327" y="901" type="line"/>
      <point x="327" y="823" type="line"/>
      <point x="420" y="812"/>
      <point x="487" y="791"/>
      <point x="527" y="758" type="curve"/>
      <point x="527" y="620" type="line"/>
      <point x="508" y="620" type="line"/>
      <point x="487" y="723"/>
      <point x="435" y="776"/>
      <point x="327" y="790" type="curve"/>
      <point x="327" y="485" type="line"/>
      <point x="368" y="460"/>
      <point x="423" y="430"/>
      <point x="461" y="404" type="curve" smooth="yes"/>
      <point x="498" y="380"/>
      <point x="499" y="376"/>
      <point x="526" y="345" type="curve" smooth="yes"/>
      <point x="548" y="319"/>
      <point x="553" y="301"/>
      <point x="560" y="264" type="curve" smooth="yes"/>
      <point x="565" y="248"/>
      <point x="567" y="230"/>
      <point x="567" y="211" type="curve" smooth="yes"/>
      <point x="567" y="149"/>
      <point x="549" y="101"/>
      <point x="508" y="69" type="curve" smooth="yes"/>
      <point x="468" y="36"/>
      <point x="406" y="14"/>
      <point x="327" y="0" type="curve"/>
      <point x="327" y="-108" type="line"/>
      <point x="285" y="-108" type="line"/>
    </contour>
    <contour>
      <point x="285" y="505" type="curve"/>
      <point x="285" y="790" type="line"/>
      <point x="199" y="773"/>
      <point x="156" y="730"/>
      <point x="156" y="662" type="curve" smooth="yes"/>
      <point x="156" y="633"/>
      <point x="165" y="609"/>
      <point x="181" y="588" type="curve" smooth="yes"/>
      <point x="198" y="567"/>
      <point x="234" y="540"/>
    </contour>
    <contour>
      <point x="327" y="363" type="curve"/>
      <point x="327" y="35" type="line"/>
      <point x="421" y="54"/>
      <point x="469" y="102"/>
      <point x="469" y="181" type="curve" smooth="yes"/>
      <point x="469" y="219"/>
      <point x="460" y="251"/>
      <point x="441" y="273" type="curve" smooth="yes"/>
      <point x="422" y="298"/>
      <point x="385" y="327"/>
    </contour>
  </outline>
</glyph>
<glyph name="percent" format="2">
  <advance width="1000"/>
  <unicode hex="0025"/>
  <outline>
    <contour>
      <point x="706" y="0" type="curve" smooth="yes"/>
      <point x="614" y="0"/>
      <point x="557" y="67"/>
      <point x="557" y="160" type="curve" smooth="yes"/>
      <point x="557" y="238"/>
      <point x="585" y="307"/>
      <point x="640" y="368" type="curve" smooth="yes"/>
      <point x="697" y="429"/>
      <point x="759" y="460"/>
      <point x="830" y="460" type="curve" smooth="yes"/>
      <point x="912" y="460"/>
      <point x="957" y="410"/>
      <point x="957" y="327" type="curve" smooth="yes"/>
      <point x="957" y="219"/>
      <point x="908" y="121"/>
      <point x="851" y="63" type="curve" smooth="yes"/>
      <point x="809" y="21"/>
      <point x="761" y="0"/>
    </contour>
    <contour>
      <point x="651" y="117" type="curve" smooth="yes"/>
      <point x="651" y="71"/>
      <point x="682" y="37"/>
      <point x="727" y="37" type="curve" smooth="yes"/>
      <point x="811" y="37"/>
      <point x="873" y="129"/>
      <point x="900" y="196" type="curve" smooth="yes"/>
      <point x="916" y="241"/>
      <point x="925" y="281"/>
      <point x="925" y="321" type="curve" smooth="yes"/>
      <point x="925" y="372"/>
      <point x="888" y="420"/>
      <point x="838" y="420" type="curve" smooth="yes"/>
      <point x="752" y="420"/>
      <point x="691" y="295"/>
      <point x="670" y="223" type="curve" smooth="yes"/>
      <point x="658" y="178"/>
      <point x="651" y="143"/>
    </contour>
    <contour>
      <point x="222" y="358" type="curve" smooth="yes"/>
      <point x="140" y="358"/>
      <point x="76" y="433"/>
      <point x="76" y="516" type="curve" smooth="yes"/>
      <point x="76" y="594"/>
      <point x="104" y="665"/>
      <point x="159" y="727" type="curve" smooth="yes"/>
      <point x="216" y="790"/>
      <point x="279" y="821"/>
      <point x="350" y="821" type="curve" smooth="yes"/>
      <point x="376" y="821"/>
      <point x="396" y="816"/>
      <point x="412" y="804" type="curve" smooth="yes"/>
      <point x="448" y="779"/>
      <point x="480" y="754"/>
      <point x="544" y="754" type="curve" smooth="yes"/>
      <point x="582" y="754"/>
      <point x="618" y="761"/>
      <point x="645" y="773" type="curve" smooth="yes"/>
      <point x="675" y="785"/>
      <point x="705" y="807"/>
      <point x="738" y="838" type="curve"/>
      <point x="786" y="838" type="line"/>
      <point x="309" y="-16" type="line"/>
      <point x="249" y="-16" type="line"/>
      <point x="684" y="760" type="line"/>
      <point x="641" y="735"/>
      <point x="596" y="723"/>
      <point x="548" y="723" type="curve" smooth="yes"/>
      <point x="516" y="723"/>
      <point x="488" y="726"/>
      <point x="467" y="735" type="curve"/>
      <point x="473" y="714"/>
      <point x="476" y="697"/>
      <point x="476" y="681" type="curve" smooth="yes"/>
      <point x="476" y="604"/>
      <point x="452" y="530"/>
      <point x="402" y="461" type="curve" smooth="yes"/>
      <point x="354" y="393"/>
      <point x="293" y="358"/>
    </contour>
    <contour>
      <point x="170" y="476" type="curve" smooth="yes"/>
      <point x="170" y="433"/>
      <point x="200" y="401"/>
      <point x="243" y="401" type="curve" smooth="yes"/>
      <point x="294" y="401"/>
      <point x="340" y="431"/>
      <point x="382" y="489" type="curve" smooth="yes"/>
      <point x="424" y="549"/>
      <point x="445" y="612"/>
      <point x="445" y="683" type="curve" smooth="yes"/>
      <point x="445" y="699"/>
      <point x="441" y="719"/>
      <point x="434" y="744" type="curve"/>
      <point x="410" y="750"/>
      <point x="384" y="760"/>
      <point x="370" y="771" type="curve" smooth="yes"/>
      <point x="365" y="776"/>
      <point x="359" y="784"/>
      <point x="350" y="784" type="curve" smooth="yes"/>
      <point x="310" y="784"/>
      <point x="271" y="748"/>
      <point x="231" y="675" type="curve" smooth="yes"/>
      <point x="190" y="603"/>
      <point x="170" y="537"/>
    </contour>
  </outline>
</glyph>
<glyph name="ampersand" format="2">
  <advance width="591"/>
  <unicode hex="0026"/>
  <outline>
    <contour>
      <point x="93" y="-19" type="curve" smooth="yes"/>
      <point x="55" y="-19"/>
      <point x="17" y="3"/>
      <point x="17" y="39" type="curve" smooth="yes"/>
      <point x="17" y="51"/>
      <point x="17" y="64"/>
      <point x="22" y="78" type="curve"/>
      <point x="48" y="179"/>
      <point x="106" y="240"/>
      <point x="190" y="282" type="curve"/>
      <point x="190" y="294" type="line"/>
      <point x="180" y="304"/>
      <point x="164" y="315"/>
      <point x="155" y="322" type="curve" smooth="yes"/>
      <point x="132" y="340"/>
      <point x="113" y="349"/>
      <point x="91" y="367" type="curve" smooth="yes"/>
      <point x="89" y="369"/>
      <point x="88" y="368"/>
      <point x="86" y="370" type="curve"/>
      <point x="88" y="384" type="line"/>
      <point x="131" y="449"/>
      <point x="166" y="485"/>
      <point x="222" y="541" type="curve" smooth="yes"/>
      <point x="252" y="570" type="line"/>
      <point x="253" y="570" type="line"/>
      <point x="261" y="578" type="line" smooth="yes"/>
      <point x="267" y="584"/>
      <point x="275" y="586"/>
      <point x="281" y="586" type="curve" smooth="yes"/>
      <point x="308" y="586"/>
      <point x="337" y="572"/>
      <point x="363" y="562" type="curve" smooth="yes"/>
      <point x="379" y="556"/>
      <point x="383" y="547"/>
      <point x="383" y="526" type="curve" smooth="yes"/>
      <point x="383" y="465"/>
      <point x="359" y="405"/>
      <point x="309" y="343" type="curve"/>
      <point x="310" y="332" type="line"/>
      <point x="342" y="306"/>
      <point x="365" y="285"/>
      <point x="395" y="257" type="curve"/>
      <point x="407" y="258" type="line"/>
      <point x="418" y="274"/>
      <point x="428" y="287"/>
      <point x="436" y="299" type="curve" smooth="yes"/>
      <point x="464" y="337"/>
      <point x="481" y="372"/>
      <point x="502" y="420" type="curve"/>
      <point x="547" y="427" type="line"/>
      <point x="537" y="395"/>
      <point x="522" y="373"/>
      <point x="504" y="346" type="curve" smooth="yes"/>
      <point x="502" y="344"/>
      <point x="503" y="343"/>
      <point x="505" y="345" type="curve"/>
      <point x="499" y="333"/>
      <point x="493" y="328"/>
      <point x="485" y="318" type="curve" smooth="yes"/>
      <point x="468" y="298"/>
      <point x="456" y="283"/>
      <point x="435" y="257" type="curve" smooth="yes"/>
      <point x="432" y="251"/>
      <point x="427" y="246"/>
      <point x="424" y="241" type="curve"/>
      <point x="424" y="231" type="line"/>
      <point x="558" y="86" type="line"/>
      <point x="558" y="80" type="line"/>
      <point x="483" y="-11" type="line"/>
      <point x="476" y="-13" type="line"/>
      <point x="465" y="1"/>
      <point x="460" y="10"/>
      <point x="450" y="23" type="curve" smooth="yes"/>
      <point x="433" y="42"/>
      <point x="419" y="62"/>
      <point x="398" y="84" type="curve" smooth="yes"/>
      <point x="384" y="101"/>
      <point x="370" y="120"/>
      <point x="356" y="138" type="curve"/>
      <point x="345" y="138" type="line"/>
      <point x="288" y="85"/>
      <point x="175" y="-19"/>
    </contour>
    <contour>
      <point x="120" y="154" type="curve" smooth="yes"/>
      <point x="120" y="121"/>
      <point x="146" y="88"/>
      <point x="179" y="88" type="curve" smooth="yes"/>
      <point x="181" y="88" type="line" smooth="yes"/>
      <point x="185" y="88"/>
      <point x="190" y="88"/>
      <point x="196" y="90" type="curve" smooth="yes"/>
      <point x="218" y="94"/>
      <point x="243" y="103"/>
      <point x="261" y="113" type="curve"/>
      <point x="287" y="124"/>
      <point x="299" y="136"/>
      <point x="321" y="157" type="curve"/>
      <point x="321" y="168" type="line"/>
      <point x="227" y="264" type="line"/>
      <point x="219" y="266" type="line"/>
      <point x="185" y="252"/>
      <point x="159" y="235"/>
      <point x="144" y="217" type="curve"/>
      <point x="127" y="199"/>
      <point x="120" y="178"/>
    </contour>
    <contour>
      <point x="190" y="437" type="curve" smooth="yes"/>
      <point x="190" y="435"/>
      <point x="190" y="438"/>
      <point x="190" y="436" type="curve" smooth="yes"/>
      <point x="194" y="430" type="line"/>
      <point x="203" y="424"/>
      <point x="211" y="417"/>
      <point x="217" y="411" type="curve" smooth="yes"/>
      <point x="227" y="403"/>
      <point x="228" y="403"/>
      <point x="238" y="395" type="curve" smooth="yes"/>
      <point x="256" y="381"/>
      <point x="268" y="369"/>
      <point x="287" y="352" type="curve"/>
      <point x="299" y="354" type="line"/>
      <point x="310" y="373"/>
      <point x="318" y="386"/>
      <point x="322" y="396" type="curve" smooth="yes"/>
      <point x="326" y="406"/>
      <point x="328" y="415"/>
      <point x="328" y="423" type="curve" smooth="yes"/>
      <point x="328" y="433"/>
      <point x="326" y="444"/>
      <point x="320" y="454" type="curve" smooth="yes"/>
      <point x="307" y="481"/>
      <point x="279" y="502"/>
      <point x="240" y="502" type="curve" smooth="yes"/>
      <point x="211" y="502"/>
      <point x="184" y="483"/>
      <point x="184" y="454" type="curve" smooth="yes"/>
      <point x="184" y="447"/>
      <point x="188" y="443"/>
    </contour>
  </outline>
</glyph>
<glyph name="quotesingle" format="2">
  <advance width="159"/>
  <unicode hex="0027"/>
  <outline>
    <contour>
      <point x="114" y="803" type="curve" smooth="yes"/>
      <point x="146" y="803"/>
      <point x="159" y="762"/>
      <point x="159" y="729" type="curve" smooth="yes"/>
      <point x="159" y="657"/>
      <point x="112" y="606"/>
      <point x="66" y="579" type="curve" smooth="yes"/>
      <point x="65" y="578"/>
      <point x="64" y="578"/>
      <point x="62" y="578" type="curve" smooth="yes"/>
      <point x="59" y="578"/>
      <point x="60" y="582"/>
      <point x="63" y="587" type="curve" smooth="yes"/>
      <point x="77" y="604"/>
      <point x="89" y="623"/>
      <point x="99" y="641" type="curve" smooth="yes"/>
      <point x="109" y="659"/>
      <point x="114" y="678"/>
      <point x="114" y="695" type="curve" smooth="yes"/>
      <point x="114" y="714"/>
      <point x="111" y="735"/>
      <point x="87" y="740" type="curve" smooth="yes"/>
      <point x="84" y="741"/>
      <point x="83" y="741"/>
      <point x="79" y="741" type="curve" smooth="yes"/>
      <point x="56" y="741"/>
      <point x="37" y="725"/>
      <point x="26" y="711" type="curve" smooth="yes"/>
      <point x="22" y="707"/>
      <point x="15" y="709"/>
      <point x="20" y="716" type="curve"/>
      <point x="34" y="751"/>
      <point x="63" y="787"/>
      <point x="99" y="800" type="curve" smooth="yes"/>
      <point x="104" y="802"/>
      <point x="109" y="803"/>
    </contour>
  </outline>
</glyph>
<glyph name="parenleft" format="2">
  <advance width="255"/>
  <unicode hex="0028"/>
  <outline>
    <contour>
      <point x="290.4" y="-347.2" type="line"/>
      <point x="265.6" y="-343.2"/>
      <point x="241.6" y="-332.8"/>
      <point x="220" y="-314.4" type="curve" smooth="yes"/>
      <point x="144" y="-252.8"/>
      <point x="100" y="-141.6"/>
      <point x="72" y="-29.5996" type="curve" smooth="yes"/>
      <point x="52.7998" y="45.5996"/>
      <point x="40.7998" y="137.6"/>
      <point x="40.7998" y="228" type="curve" smooth="yes"/>
      <point x="40.7998" y="233.6"/>
      <point x="40.7998" y="238.4"/>
      <point x="40.7998" y="244" type="curve" smooth="yes"/>
      <point x="40.7998" y="379.2"/>
      <point x="68.7998" y="503.2"/>
      <point x="107.2" y="604" type="curve" smooth="yes"/>
      <point x="134.4" y="674.4"/>
      <point x="169.6" y="736"/>
      <point x="218.4" y="780" type="curve" smooth="yes"/>
      <point x="240.8" y="800"/>
      <point x="264.8" y="812.8"/>
      <point x="290.4" y="818.4" type="curve"/>
      <point x="290.4" y="800" type="line"/>
      <point x="240" y="784"/>
      <point x="209.6" y="739.2"/>
      <point x="188.8" y="689.6" type="curve" smooth="yes"/>
      <point x="140" y="575.2"/>
      <point x="132.8" y="416"/>
      <point x="132.8" y="255.2" type="curve" smooth="yes"/>
      <point x="132.8" y="228" type="line" smooth="yes"/>
      <point x="132.8" y="106.4"/>
      <point x="143.2" y="-15.2002"/>
      <point x="164.8" y="-115.2" type="curve" smooth="yes"/>
      <point x="172.8" y="-151.2"/>
      <point x="182.4" y="-183.2"/>
      <point x="193.6" y="-211.2" type="curve" smooth="yes"/>
      <point x="213.6" y="-261.6"/>
      <point x="242.4" y="-307.2"/>
      <point x="290.4" y="-323.2" type="curve"/>
    </contour>
  </outline>
</glyph>
<glyph name="parenright" format="2">
  <advance width="255"/>
  <unicode hex="0029"/>
  <outline>
    <contour>
      <point x="214.4" y="228" type="curve" smooth="yes"/>
      <point x="214.4" y="88.7998"/>
      <point x="184.8" y="-40"/>
      <point x="145.6" y="-143.2" type="curve" smooth="yes"/>
      <point x="119.2" y="-211.2"/>
      <point x="83.2002" y="-273.6"/>
      <point x="35.2002" y="-314.4" type="curve" smooth="yes"/>
      <point x="13.5996" y="-332.8"/>
      <point x="-10.4004" y="-343.2"/>
      <point x="-35.2002" y="-347.2" type="curve"/>
      <point x="-35.2002" y="-323.2" type="line"/>
      <point x="13.5996" y="-307.2"/>
      <point x="42.4004" y="-260.8"/>
      <point x="62.4004" y="-212" type="curve" smooth="yes"/>
      <point x="98.4004" y="-122.4"/>
      <point x="112.8" y="-7.2002"/>
      <point x="119.2" y="112" type="curve" smooth="yes"/>
      <point x="121.6" y="152"/>
      <point x="121.6" y="190.4"/>
      <point x="122.4" y="228" type="curve"/>
      <point x="122.4" y="264.8" type="line" smooth="yes"/>
      <point x="122.4" y="383.2"/>
      <point x="115.2" y="502.4"/>
      <point x="94.4004" y="600" type="curve" smooth="yes"/>
      <point x="80.7998" y="663.2"/>
      <point x="58.4004" y="722.4"/>
      <point x="23.2002" y="760.8" type="curve" smooth="yes"/>
      <point x="6.40039" y="779.2"/>
      <point x="-12.7998" y="792.8"/>
      <point x="-35.2002" y="800" type="curve"/>
      <point x="-35.2002" y="818.4" type="line"/>
      <point x="-9.59961" y="812.8"/>
      <point x="14.4004" y="800"/>
      <point x="36.7998" y="780" type="curve" smooth="yes"/>
      <point x="112.8" y="712"/>
      <point x="156" y="601.6"/>
      <point x="184.8" y="484.8" type="curve" smooth="yes"/>
      <point x="202.4" y="412"/>
      <point x="214.4" y="330.4"/>
      <point x="214.4" y="244" type="curve" smooth="yes"/>
      <point x="214.4" y="238.4"/>
      <point x="214.4" y="233.6"/>
    </contour>
  </outline>
</glyph>
<glyph name="asterisk" format="2">
  <advance width="309"/>
  <unicode hex="002A"/>
  <outline>
    <contour>
      <point x="224" y="404" type="line"/>
      <point x="260.8" y="329.6" type="line"/>
      <point x="186.4" y="365.6" type="line"/>
      <point x="158.4" y="288.8" type="line"/>
      <point x="131.2" y="365.6" type="line"/>
      <point x="58.4004" y="329.6" type="line"/>
      <point x="93.5996" y="404" type="line"/>
      <point x="16.7998" y="431.2" type="line"/>
      <point x="92" y="458.4" type="line"/>
      <point x="56.7998" y="532" type="line"/>
      <point x="131.2" y="496" type="line"/>
      <point x="158.4" y="572.8" type="line"/>
      <point x="186.4" y="496" type="line"/>
      <point x="260.8" y="532" type="line"/>
      <point x="224" y="458.4" type="line"/>
      <point x="300.8" y="431.2" type="line"/>
    </contour>
    <contour>
      <point x="206.4" y="451.2" type="line"/>
      <point x="233.6" y="505.6" type="line"/>
      <point x="178.4" y="480" type="line"/>
      <point x="158.4" y="535.2" type="line"/>
      <point x="138.4" y="479.2" type="line"/>
      <point x="84" y="504.8" type="line"/>
      <point x="109.6" y="451.2" type="line"/>
      <point x="54.4004" y="431.2" type="line"/>
      <point x="110.4" y="410.4" type="line"/>
      <point x="84" y="356" type="line"/>
      <point x="138.4" y="382.4" type="line"/>
      <point x="158.4" y="326.4" type="line"/>
      <point x="178.4" y="382.4" type="line"/>
      <point x="233.6" y="356" type="line"/>
      <point x="206.4" y="410.4" type="line"/>
      <point x="263.2" y="431.2" type="line"/>
    </contour>
  </outline>
</glyph>
<glyph name="plus" format="2">
  <advance width="362"/>
  <unicode hex="002B"/>
  <outline>
    <contour>
      <point x="0" y="268.8" type="line"/>
      <point x="144" y="268.8" type="line"/>
      <point x="144" y="416" type="line"/>
      <point x="221.6" y="416" type="line"/>
      <point x="221.6" y="268.8" type="line"/>
      <point x="360" y="268.8" type="line"/>
      <point x="360" y="192" type="line"/>
      <point x="221.6" y="192" type="line"/>
      <point x="221.6" y="38.4004" type="line"/>
      <point x="144" y="38.4004" type="line"/>
      <point x="144" y="192" type="line"/>
      <point x="0" y="192" type="line"/>
    </contour>
  </outline>
</glyph>
<glyph name="comma" format="2">
  <advance width="243"/>
  <unicode hex="002C"/>
  <outline>
    <contour>
      <point x="144.8" y="-17.5996" type="curve" smooth="yes"/>
      <point x="144.8" y="13.5996"/>
      <point x="126.4" y="40.7998"/>
      <point x="97.5996" y="40.7998" type="curve" smooth="yes"/>
      <point x="77.5996" y="40.7998"/>
      <point x="58.4004" y="29.5996"/>
      <point x="39.2002" y="8" type="curve" smooth="yes"/>
      <point x="34.4004" y="2.40039"/>
      <point x="26.4004" y="4.7998"/>
      <point x="26.4004" y="10.4004" type="curve" smooth="yes"/>
      <point x="26.4004" y="11.2002"/>
      <point x="26.4004" y="12.7998"/>
      <point x="27.2002" y="13.5996" type="curve" smooth="yes"/>
      <point x="42.4004" y="48"/>
      <point x="55.2002" y="63.2002"/>
      <point x="80" y="88" type="curve" smooth="yes"/>
      <point x="93.5996" y="101.6"/>
      <point x="119.2" y="117.6"/>
      <point x="144.8" y="117.6" type="curve" smooth="yes"/>
      <point x="187.2" y="117.6"/>
      <point x="203.2" y="77.5996"/>
      <point x="203.2" y="34.4004" type="curve" smooth="yes"/>
      <point x="203.2" y="-24.7998"/>
      <point x="172" y="-69.5996"/>
      <point x="140" y="-96" type="curve" smooth="yes"/>
      <point x="136" y="-100"/>
      <point x="93.5996" y="-135.2"/>
      <point x="80" y="-135.2" type="curve" smooth="yes"/>
      <point x="72.7998" y="-135.2"/>
      <point x="76" y="-127.2"/>
      <point x="80.7998" y="-124" type="curve" smooth="yes"/>
      <point x="109.6" y="-107.2"/>
      <point x="131.2" y="-80.7998"/>
      <point x="140.8" y="-45.5996" type="curve" smooth="yes"/>
      <point x="143.2" y="-36"/>
      <point x="144.8" y="-26.4004"/>
    </contour>
  </outline>
</glyph>
<glyph name="hyphen" format="2">
  <advance width="300"/>
  <unicode hex="002D"/>
  <outline>
    <contour>
      <point x="263.2" y="268.8" type="line" smooth="yes"/>
      <point x="284.8" y="268.8"/>
      <point x="288.8" y="251.2"/>
      <point x="288.8" y="229.6" type="curve" smooth="yes"/>
      <point x="288.8" y="208"/>
      <point x="284.8" y="192"/>
      <point x="263.2" y="192" type="curve" smooth="yes"/>
      <point x="36.7998" y="192" type="line" smooth="yes"/>
      <point x="15.2002" y="192"/>
      <point x="11.2002" y="208"/>
      <point x="11.2002" y="229.6" type="curve" smooth="yes"/>
      <point x="11.2002" y="251.2"/>
      <point x="15.2002" y="268.8"/>
      <point x="36.7998" y="268.8" type="curve" smooth="yes"/>
    </contour>
  </outline>
</glyph>
<glyph name="period" format="2">
  <advance width="172"/>
  <unicode hex="002E"/>
  <outline>
    <contour>
      <point x="27.2002" y="42.4004" type="curve" smooth="yes"/>
      <point x="27.2002" y="72.7998"/>
      <point x="53.5996" y="99.2002"/>
      <point x="84" y="99.2002" type="curve" smooth="yes"/>
      <point x="114.4" y="99.2002"/>
      <point x="140.8" y="72.7998"/>
      <point x="140.8" y="42.4004" type="curve" smooth="yes"/>
      <point x="140.8" y="12"/>
      <point x="114.4" y="-14.4004"/>
      <point x="84" y="-14.4004" type="curve" smooth="yes"/>
      <point x="53.5996" y="-14.4004"/>
      <point x="27.2002" y="12"/>
    </contour>
  </outline>
</glyph>
<glyph name="slash" format="2">
  <advance width="324"/>
  <unicode hex="002F"/>
  <outline>
    <contour>
      <point x="4.7998" y="-226.4" type="line"/>
      <point x="-42.4004" y="-226.4" type="line"/>
      <point x="289.6" y="807.2" type="line"/>
      <point x="336.8" y="807.2" type="line"/>
    </contour>
  </outline>
</glyph>
<glyph name="zero" format="2">
  <advance width="558"/>
  <unicode hex="0030"/>
  <outline>
    <contour>
      <point x="280" y="713" type="curve" smooth="yes"/>
      <point x="225" y="713"/>
      <point x="149" y="656"/>
      <point x="149" y="351" type="curve" smooth="yes"/>
      <point x="149" y="243"/>
      <point x="161" y="31"/>
      <point x="278" y="31" type="curve" smooth="yes"/>
      <point x="300" y="31"/>
      <point x="360" y="42"/>
      <point x="387" y="144" type="curve" smooth="yes"/>
      <point x="404" y="207"/>
      <point x="409" y="285"/>
      <point x="409" y="399" type="curve" smooth="yes"/>
      <point x="409" y="565"/>
      <point x="374" y="660"/>
      <point x="337" y="692" type="curve" smooth="yes"/>
      <point x="322" y="706"/>
      <point x="302" y="713"/>
    </contour>
    <contour>
      <point x="275" y="-12" type="curve" smooth="yes"/>
      <point x="228" y="-12"/>
      <point x="186" y="5"/>
      <point x="151" y="40" type="curve" smooth="yes"/>
      <point x="82" y="107"/>
      <point x="42" y="232"/>
      <point x="42" y="365" type="curve" smooth="yes"/>
      <point x="42" y="611"/>
      <point x="158" y="756"/>
      <point x="280" y="756" type="curve" smooth="yes"/>
      <point x="347" y="756"/>
      <point x="400" y="719"/>
      <point x="432" y="676" type="curve" smooth="yes"/>
      <point x="487" y="604"/>
      <point x="516" y="499"/>
      <point x="516" y="376" type="curve" smooth="yes"/>
      <point x="516" y="85"/>
      <point x="372" y="-12"/>
    </contour>
  </outline>
</glyph>
<glyph name="one" format="2">
  <advance width="517"/>
  <unicode hex="0031"/>
  <outline>
    <contour>
      <point x="325" y="151" type="line" smooth="yes"/>
      <point x="325" y="48"/>
      <point x="347" y="38"/>
      <point x="434" y="38" type="curve"/>
      <point x="436" y="34"/>
      <point x="439" y="26"/>
      <point x="439" y="17" type="curve" smooth="yes"/>
      <point x="439" y="10"/>
      <point x="436" y="4"/>
      <point x="434" y="0" type="curve"/>
      <point x="109" y="0" type="line"/>
      <point x="107" y="4"/>
      <point x="104" y="10"/>
      <point x="104" y="17" type="curve" smooth="yes"/>
      <point x="104" y="26"/>
      <point x="107" y="34"/>
      <point x="109" y="38" type="curve"/>
      <point x="196" y="38"/>
      <point x="231" y="48"/>
      <point x="231" y="151" type="curve" smooth="yes"/>
      <point x="231" y="556" type="line" smooth="yes"/>
      <point x="231" y="598"/>
      <point x="226" y="627"/>
      <point x="206" y="627" type="curve" smooth="yes"/>
      <point x="181" y="627"/>
      <point x="154" y="620"/>
      <point x="97" y="596" type="curve"/>
      <point x="87" y="603"/>
      <point x="81" y="616"/>
      <point x="79" y="630" type="curve"/>
      <point x="188" y="681"/>
      <point x="253" y="712"/>
      <point x="322" y="754" type="curve"/>
      <point x="324" y="754"/>
      <point x="330" y="754"/>
      <point x="330" y="748" type="curve" smooth="yes"/>
      <point x="328" y="732"/>
      <point x="325" y="656"/>
      <point x="325" y="582" type="curve" smooth="yes"/>
    </contour>
  </outline>
</glyph>
<glyph name="two" format="2">
  <advance width="558"/>
  <unicode hex="0032"/>
  <outline>
    <contour>
      <point x="67" y="580" type="curve" smooth="yes"/>
      <point x="67" y="654"/>
      <point x="152" y="756"/>
      <point x="290" y="756" type="curve" smooth="yes"/>
      <point x="390" y="756"/>
      <point x="500" y="702"/>
      <point x="500" y="568" type="curve" smooth="yes"/>
      <point x="500" y="474"/>
      <point x="447" y="419"/>
      <point x="376" y="351" type="curve" smooth="yes"/>
      <point x="250" y="231" type="line" smooth="yes"/>
      <point x="244" y="225"/>
      <point x="159" y="141"/>
      <point x="159" y="81" type="curve"/>
      <point x="379" y="81" type="line" smooth="yes"/>
      <point x="424" y="81"/>
      <point x="445" y="112"/>
      <point x="466" y="200" type="curve"/>
      <point x="469" y="200"/>
      <point x="471" y="201"/>
      <point x="474" y="201" type="curve" smooth="yes"/>
      <point x="485" y="201"/>
      <point x="496" y="198"/>
      <point x="502" y="193" type="curve"/>
      <point x="502" y="156"/>
      <point x="488" y="66"/>
      <point x="472" y="0" type="curve"/>
      <point x="472" y="0"/>
      <point x="416" y="0"/>
      <point x="376" y="0" type="curve" smooth="yes"/>
      <point x="159" y="0" type="line" smooth="yes"/>
      <point x="56" y="0" type="line"/>
      <point x="56" y="73"/>
      <point x="75" y="130"/>
      <point x="197" y="254" type="curve"/>
      <point x="289" y="345" type="line"/>
      <point x="362" y="419"/>
      <point x="391" y="484"/>
      <point x="391" y="563" type="curve" smooth="yes"/>
      <point x="391" y="682"/>
      <point x="328" y="713"/>
      <point x="283" y="713" type="curve" smooth="yes"/>
      <point x="192" y="713"/>
      <point x="160" y="668"/>
      <point x="160" y="637" type="curve" smooth="yes"/>
      <point x="160" y="627"/>
      <point x="168" y="617"/>
      <point x="170" y="608" type="curve" smooth="yes"/>
      <point x="172" y="599"/>
      <point x="175" y="592"/>
      <point x="175" y="582" type="curve" smooth="yes"/>
      <point x="175" y="555"/>
      <point x="138" y="534"/>
      <point x="117" y="534" type="curve" smooth="yes"/>
      <point x="91" y="534"/>
      <point x="67" y="554"/>
    </contour>
  </outline>
</glyph>
<glyph name="three" format="2">
  <advance width="558"/>
  <unicode hex="0033"/>
  <outline>
    <contour>
      <point x="267" y="713" type="curve" smooth="yes"/>
      <point x="235" y="713"/>
      <point x="149" y="698"/>
      <point x="149" y="619" type="curve" smooth="yes"/>
      <point x="149" y="595"/>
      <point x="143" y="554"/>
      <point x="100" y="554" type="curve" smooth="yes"/>
      <point x="70" y="554"/>
      <point x="58" y="579"/>
      <point x="58" y="596" type="curve" smooth="yes"/>
      <point x="58" y="637"/>
      <point x="111" y="756"/>
      <point x="293" y="756" type="curve" smooth="yes"/>
      <point x="357" y="756"/>
      <point x="401" y="735"/>
      <point x="428" y="708" type="curve" smooth="yes"/>
      <point x="458" y="677"/>
      <point x="466" y="647"/>
      <point x="466" y="610" type="curve" smooth="yes"/>
      <point x="466" y="544"/>
      <point x="438" y="493"/>
      <point x="336" y="445" type="curve"/>
      <point x="337" y="443" type="line"/>
      <point x="410" y="431"/>
      <point x="512" y="382"/>
      <point x="512" y="247" type="curve" smooth="yes"/>
      <point x="512" y="83"/>
      <point x="381" y="-12"/>
      <point x="233" y="-12" type="curve" smooth="yes"/>
      <point x="159" y="-12"/>
      <point x="55" y="21"/>
      <point x="55" y="71" type="curve" smooth="yes"/>
      <point x="55" y="91"/>
      <point x="81" y="114"/>
      <point x="107" y="114" type="curve" smooth="yes"/>
      <point x="132" y="114"/>
      <point x="148" y="99"/>
      <point x="160" y="82" type="curve" smooth="yes"/>
      <point x="175" y="60"/>
      <point x="186" y="31"/>
      <point x="249" y="31" type="curve" smooth="yes"/>
      <point x="292" y="31"/>
      <point x="403" y="64"/>
      <point x="403" y="229" type="curve" smooth="yes"/>
      <point x="403" y="369"/>
      <point x="312" y="389"/>
      <point x="241" y="389" type="curve" smooth="yes"/>
      <point x="225" y="389"/>
      <point x="202" y="389"/>
      <point x="181" y="387" type="curve"/>
      <point x="175" y="427" type="line"/>
      <point x="298" y="444"/>
      <point x="370" y="538"/>
      <point x="370" y="601" type="curve" smooth="yes"/>
      <point x="370" y="680"/>
      <point x="320" y="713"/>
    </contour>
  </outline>
</glyph>
<glyph name="four" format="2">
  <advance width="558"/>
  <unicode hex="0034"/>
  <outline>
    <contour>
      <point x="322" y="629" type="line"/>
      <point x="235" y="512"/>
      <point x="148" y="374"/>
      <point x="84" y="272" type="curve"/>
      <point x="322" y="272" type="line"/>
    </contour>
    <contour>
      <point x="518" y="272" type="line" smooth="yes"/>
      <point x="533" y="272"/>
      <point x="538" y="264"/>
      <point x="538" y="252" type="curve" smooth="yes"/>
      <point x="538" y="237"/>
      <point x="518" y="213"/>
      <point x="501" y="213" type="curve" smooth="yes"/>
      <point x="417" y="213" type="line"/>
      <point x="417" y="99" type="line" smooth="yes"/>
      <point x="417" y="41"/>
      <point x="441" y="38"/>
      <point x="503" y="38" type="curve"/>
      <point x="505" y="34"/>
      <point x="508" y="26"/>
      <point x="508" y="17" type="curve" smooth="yes"/>
      <point x="508" y="10"/>
      <point x="505" y="4"/>
      <point x="503" y="0" type="curve"/>
      <point x="463" y="0"/>
      <point x="417" y="0"/>
      <point x="367" y="0" type="curve" smooth="yes"/>
      <point x="310" y="0"/>
      <point x="261" y="0"/>
      <point x="221" y="0" type="curve"/>
      <point x="219" y="4"/>
      <point x="216" y="10"/>
      <point x="216" y="17" type="curve" smooth="yes"/>
      <point x="216" y="26"/>
      <point x="219" y="34"/>
      <point x="221" y="38" type="curve"/>
      <point x="276" y="38"/>
      <point x="322" y="42"/>
      <point x="322" y="99" type="curve" smooth="yes"/>
      <point x="322" y="213" type="line"/>
      <point x="69" y="213" type="line" smooth="yes"/>
      <point x="32" y="213"/>
      <point x="25" y="246"/>
      <point x="20" y="265" type="curve"/>
      <point x="134" y="442"/>
      <point x="278" y="648"/>
      <point x="357" y="743" type="curve" smooth="yes"/>
      <point x="362" y="749"/>
      <point x="367" y="756"/>
      <point x="377" y="756" type="curve" smooth="yes"/>
      <point x="417" y="756" type="line"/>
      <point x="419" y="754" type="line"/>
      <point x="417" y="744"/>
      <point x="417" y="696"/>
      <point x="417" y="634" type="curve" smooth="yes"/>
      <point x="417" y="272" type="line"/>
    </contour>
  </outline>
</glyph>
<glyph name="five" format="2">
  <advance width="558"/>
  <unicode hex="0035"/>
  <outline>
    <contour>
      <point x="388" y="234" type="curve" smooth="yes"/>
      <point x="388" y="369"/>
      <point x="325" y="423"/>
      <point x="244" y="423" type="curve" smooth="yes"/>
      <point x="199" y="423"/>
      <point x="153" y="418"/>
      <point x="87" y="393" type="curve"/>
      <point x="129" y="750" type="line"/>
      <point x="172" y="746"/>
      <point x="217" y="744"/>
      <point x="263" y="744" type="curve" smooth="yes"/>
      <point x="329" y="744"/>
      <point x="395" y="751"/>
      <point x="466" y="758" type="curve"/>
      <point x="475" y="753" type="line"/>
      <point x="455" y="668" type="line"/>
      <point x="404" y="663"/>
      <point x="362" y="661"/>
      <point x="325" y="661" type="curve" smooth="yes"/>
      <point x="265" y="661"/>
      <point x="226" y="667"/>
      <point x="180" y="672" type="curve"/>
      <point x="155" y="465" type="line"/>
      <point x="177" y="474"/>
      <point x="224" y="485"/>
      <point x="277" y="485" type="curve" smooth="yes"/>
      <point x="416" y="485"/>
      <point x="498" y="377"/>
      <point x="498" y="257" type="curve" smooth="yes"/>
      <point x="498" y="101"/>
      <point x="390" y="-12"/>
      <point x="236" y="-12" type="curve" smooth="yes"/>
      <point x="165" y="-12"/>
      <point x="60" y="28"/>
      <point x="60" y="79" type="curve" smooth="yes"/>
      <point x="60" y="104"/>
      <point x="83" y="125"/>
      <point x="107" y="125" type="curve" smooth="yes"/>
      <point x="133" y="125"/>
      <point x="154" y="107"/>
      <point x="170" y="86" type="curve" smooth="yes"/>
      <point x="189" y="61"/>
      <point x="205" y="30"/>
      <point x="252" y="30" type="curve" smooth="yes"/>
      <point x="326" y="30"/>
      <point x="388" y="116"/>
    </contour>
  </outline>
</glyph>
<glyph name="six" format="2">
  <advance width="558"/>
  <unicode hex="0036"/>
  <outline>
    <contour>
      <point x="159" y="381" type="curve"/>
      <point x="152" y="345"/>
      <point x="149" y="313"/>
      <point x="149" y="284" type="curve" smooth="yes"/>
      <point x="149" y="72"/>
      <point x="219" y="30"/>
      <point x="298" y="30" type="curve" smooth="yes"/>
      <point x="358" y="30"/>
      <point x="409" y="92"/>
      <point x="409" y="228" type="curve" smooth="yes"/>
      <point x="409" y="290"/>
      <point x="382" y="409"/>
      <point x="260" y="409" type="curve" smooth="yes"/>
      <point x="240" y="409"/>
      <point x="199" y="408"/>
    </contour>
    <contour>
      <point x="169" y="425" type="curve"/>
      <point x="206" y="442"/>
      <point x="256" y="453"/>
      <point x="288" y="453" type="curve" smooth="yes"/>
      <point x="457" y="453"/>
      <point x="513" y="357"/>
      <point x="513" y="250" type="curve" smooth="yes"/>
      <point x="513" y="143"/>
      <point x="447" y="-12"/>
      <point x="283" y="-12" type="curve" smooth="yes"/>
      <point x="189" y="-12"/>
      <point x="45" y="36"/>
      <point x="45" y="288" type="curve" smooth="yes"/>
      <point x="45" y="386"/>
      <point x="84" y="499"/>
      <point x="161" y="588" type="curve" smooth="yes"/>
      <point x="230" y="669"/>
      <point x="308" y="721"/>
      <point x="432" y="758" type="curve"/>
      <point x="442" y="752"/>
      <point x="446" y="740"/>
      <point x="446" y="725" type="curve"/>
      <point x="282" y="663"/>
      <point x="204" y="538"/>
    </contour>
  </outline>
</glyph>
<glyph name="seven" format="2">
  <advance width="558"/>
  <unicode hex="0037"/>
  <outline>
    <contour>
      <point x="196" y="663" type="line" smooth="yes"/>
      <point x="156" y="663"/>
      <point x="114" y="655"/>
      <point x="87" y="556" type="curve"/>
      <point x="85" y="556"/>
      <point x="79" y="554"/>
      <point x="77" y="554" type="curve" smooth="yes"/>
      <point x="67" y="554"/>
      <point x="57" y="557"/>
      <point x="47" y="559" type="curve"/>
      <point x="57" y="623"/>
      <point x="72" y="698"/>
      <point x="72" y="758" type="curve" smooth="yes"/>
      <point x="72" y="762"/>
      <point x="75" y="761"/>
      <point x="77" y="761" type="curve" smooth="yes"/>
      <point x="99" y="756"/>
      <point x="97" y="744"/>
      <point x="139" y="744" type="curve" smooth="yes"/>
      <point x="394" y="744" type="line" smooth="yes"/>
      <point x="441" y="744"/>
      <point x="469" y="752"/>
      <point x="491" y="758" type="curve"/>
      <point x="511" y="743" type="line"/>
      <point x="372" y="404"/>
      <point x="302" y="199"/>
      <point x="233" y="-12" type="curve"/>
      <point x="149" y="-12" type="line"/>
      <point x="139" y="-7" type="line"/>
      <point x="223" y="181"/>
      <point x="320" y="422"/>
      <point x="417" y="663" type="curve"/>
    </contour>
  </outline>
</glyph>
<glyph name="eight" format="2">
  <advance width="558"/>
  <unicode hex="0038"/>
  <outline>
    <contour>
      <point x="280" y="713" type="curve" smooth="yes"/>
      <point x="206" y="713"/>
      <point x="166" y="666"/>
      <point x="166" y="609" type="curve" smooth="yes"/>
      <point x="166" y="571"/>
      <point x="176" y="530"/>
      <point x="253" y="479" type="curve"/>
      <point x="293" y="455" type="line"/>
      <point x="325" y="480"/>
      <point x="392" y="536"/>
      <point x="392" y="603" type="curve" smooth="yes"/>
      <point x="392" y="660"/>
      <point x="362" y="713"/>
    </contour>
    <contour>
      <point x="479" y="601" type="curve" smooth="yes"/>
      <point x="479" y="522"/>
      <point x="385" y="458"/>
      <point x="325" y="429" type="curve"/>
      <point x="414" y="376" type="line" smooth="yes"/>
      <point x="478" y="336"/>
      <point x="511" y="273"/>
      <point x="511" y="201" type="curve" smooth="yes"/>
      <point x="511" y="107"/>
      <point x="432" y="-12"/>
      <point x="268" y="-12" type="curve" smooth="yes"/>
      <point x="137" y="-12"/>
      <point x="47" y="55"/>
      <point x="47" y="181" type="curve" smooth="yes"/>
      <point x="47" y="229"/>
      <point x="69" y="285"/>
      <point x="119" y="330" type="curve" smooth="yes"/>
      <point x="151" y="357"/>
      <point x="183" y="379"/>
      <point x="218" y="398" type="curve"/>
      <point x="188" y="418" type="line" smooth="yes"/>
      <point x="111" y="465"/>
      <point x="79" y="516"/>
      <point x="79" y="585" type="curve" smooth="yes"/>
      <point x="79" y="680"/>
      <point x="162" y="756"/>
      <point x="288" y="756" type="curve" smooth="yes"/>
      <point x="410" y="756"/>
      <point x="479" y="690"/>
    </contour>
    <contour>
      <point x="270" y="31" type="curve" smooth="yes"/>
      <point x="327" y="31"/>
      <point x="419" y="52"/>
      <point x="419" y="176" type="curve" smooth="yes"/>
      <point x="419" y="236"/>
      <point x="389" y="294"/>
      <point x="312" y="341" type="curve" smooth="yes"/>
      <point x="253" y="376" type="line"/>
      <point x="146" y="305"/>
      <point x="131" y="218"/>
      <point x="131" y="181" type="curve" smooth="yes"/>
      <point x="131" y="69"/>
      <point x="215" y="31"/>
    </contour>
  </outline>
</glyph>
<glyph name="nine" format="2">
  <advance width="558"/>
  <unicode hex="0039"/>
  <outline>
    <contour>
      <point x="399" y="362" type="curve"/>
      <point x="406" y="398"/>
      <point x="409" y="432"/>
      <point x="409" y="459" type="curve" smooth="yes"/>
      <point x="409" y="671"/>
      <point x="339" y="713"/>
      <point x="260" y="713" type="curve" smooth="yes"/>
      <point x="200" y="713"/>
      <point x="149" y="651"/>
      <point x="149" y="515" type="curve" smooth="yes"/>
      <point x="149" y="453"/>
      <point x="176" y="334"/>
      <point x="298" y="334" type="curve" smooth="yes"/>
      <point x="318" y="334"/>
      <point x="359" y="335"/>
    </contour>
    <contour>
      <point x="389" y="317" type="curve"/>
      <point x="352" y="300"/>
      <point x="302" y="290"/>
      <point x="270" y="290" type="curve" smooth="yes"/>
      <point x="101" y="290"/>
      <point x="45" y="385"/>
      <point x="45" y="492" type="curve" smooth="yes"/>
      <point x="45" y="599"/>
      <point x="111" y="756"/>
      <point x="275" y="756" type="curve" smooth="yes"/>
      <point x="369" y="756"/>
      <point x="513" y="707"/>
      <point x="513" y="455" type="curve" smooth="yes"/>
      <point x="513" y="357"/>
      <point x="474" y="244"/>
      <point x="397" y="155" type="curve" smooth="yes"/>
      <point x="328" y="74"/>
      <point x="250" y="25"/>
      <point x="126" y="-12" type="curve"/>
      <point x="116" y="-6"/>
      <point x="112" y="2"/>
      <point x="112" y="17" type="curve"/>
      <point x="276" y="79"/>
      <point x="354" y="204"/>
    </contour>
  </outline>
</glyph>
<glyph name="colon" format="2">
  <advance width="220"/>
  <unicode hex="003A"/>
  <outline>
    <contour>
      <point x="115" y="-10" type="line" smooth="yes"/>
      <point x="114" y="-11"/>
      <point x="113" y="-11"/>
      <point x="112" y="-11" type="curve" smooth="yes"/>
      <point x="111" y="-11"/>
      <point x="110" y="-11"/>
      <point x="109" y="-10" type="curve" smooth="yes"/>
      <point x="54" y="54" type="line" smooth="yes"/>
      <point x="54" y="56"/>
      <point x="54" y="57"/>
      <point x="54" y="58" type="curve" smooth="yes"/>
      <point x="54" y="59"/>
      <point x="54" y="61"/>
      <point x="54" y="62" type="curve" smooth="yes"/>
      <point x="109" y="125" type="line" smooth="yes"/>
      <point x="111" y="127"/>
      <point x="113" y="127"/>
      <point x="115" y="125" type="curve" smooth="yes"/>
      <point x="172" y="62" type="line" smooth="yes"/>
      <point x="173" y="61"/>
      <point x="173" y="59"/>
      <point x="173" y="58" type="curve" smooth="yes"/>
      <point x="173" y="58"/>
      <point x="173" y="57"/>
      <point x="172" y="56" type="curve" smooth="yes"/>
    </contour>
    <contour>
      <point x="115" y="203" type="line" smooth="yes"/>
      <point x="114" y="202"/>
      <point x="113" y="202"/>
      <point x="112" y="202" type="curve" smooth="yes"/>
      <point x="111" y="202"/>
      <point x="110" y="202"/>
      <point x="109" y="203" type="curve" smooth="yes"/>
      <point x="54" y="267" type="line" smooth="yes"/>
      <point x="54" y="269"/>
      <point x="54" y="270"/>
      <point x="54" y="271" type="curve" smooth="yes"/>
      <point x="54" y="272"/>
      <point x="54" y="274"/>
      <point x="54" y="274" type="curve" smooth="yes"/>
      <point x="109" y="338" type="line" smooth="yes"/>
      <point x="110" y="338"/>
      <point x="111" y="339"/>
      <point x="112" y="339" type="curve" smooth="yes"/>
      <point x="113" y="339"/>
      <point x="114" y="338"/>
      <point x="115" y="338" type="curve" smooth="yes"/>
      <point x="172" y="274" type="line" smooth="yes"/>
      <point x="173" y="274"/>
      <point x="173" y="272"/>
      <point x="173" y="271" type="curve" smooth="yes"/>
      <point x="173" y="270"/>
      <point x="173" y="270"/>
      <point x="172" y="269" type="curve" smooth="yes"/>
    </contour>
  </outline>
</glyph>
<glyph name="semicolon" format="2">
  <advance width="237"/>
  <unicode hex="003B"/>
  <outline>
    <contour>
      <point x="134" y="-13" type="curve" smooth="yes"/>
      <point x="134" y="14"/>
      <point x="124" y="34"/>
      <point x="98" y="34" type="curve" smooth="yes"/>
      <point x="77" y="34"/>
      <point x="57" y="20"/>
      <point x="45" y="9" type="curve" smooth="yes"/>
      <point x="39" y="3"/>
      <point x="28" y="10"/>
      <point x="28" y="16" type="curve" smooth="yes"/>
      <point x="28" y="54"/>
      <point x="72" y="95"/>
      <point x="99" y="109" type="curve" smooth="yes"/>
      <point x="110" y="114"/>
      <point x="122" y="118"/>
      <point x="134" y="118" type="curve" smooth="yes"/>
      <point x="178" y="118"/>
      <point x="196" y="73"/>
      <point x="196" y="30" type="curve" smooth="yes"/>
      <point x="196" y="-28"/>
      <point x="166" y="-73"/>
      <point x="137" y="-102" type="curve" smooth="yes"/>
      <point x="126" y="-113"/>
      <point x="114" y="-122"/>
      <point x="102" y="-127" type="curve" smooth="yes"/>
      <point x="99" y="-128"/>
      <point x="97" y="-129"/>
      <point x="94" y="-129" type="curve" smooth="yes"/>
      <point x="89" y="-129"/>
      <point x="86" y="-125"/>
      <point x="91" y="-120" type="curve" smooth="yes"/>
      <point x="112" y="-98"/>
      <point x="134" y="-53"/>
    </contour>
    <contour>
      <point x="51" y="231" type="curve" smooth="yes"/>
      <point x="51" y="262"/>
      <point x="77" y="287"/>
      <point x="107" y="287" type="curve" smooth="yes"/>
      <point x="138" y="287"/>
      <point x="163" y="262"/>
      <point x="163" y="231" type="curve" smooth="yes"/>
      <point x="163" y="201"/>
      <point x="138" y="175"/>
      <point x="107" y="175" type="curve" smooth="yes"/>
      <point x="77" y="175"/>
      <point x="51" y="201"/>
    </contour>
  </outline>
</glyph>
<glyph name="less" format="2">
  <advance width="756"/>
  <unicode hex="003C"/>
  <outline>
    <contour>
      <point x="723" y="630" type="line"/>
      <point x="200" y="367" type="line"/>
      <point x="723" y="105" type="line"/>
      <point x="723" y="31" type="line"/>
      <point x="50" y="367" type="line"/>
      <point x="723" y="704" type="line"/>
    </contour>
  </outline>
</glyph>
<glyph name="equal" format="2">
  <advance width="465"/>
  <unicode hex="003D"/>
  <outline>
    <contour>
      <point x="409" y="609" type="line" smooth="yes"/>
      <point x="441" y="609"/>
      <point x="449" y="581"/>
      <point x="449" y="548" type="curve" smooth="yes"/>
      <point x="449" y="515"/>
      <point x="441" y="490"/>
      <point x="409" y="490" type="curve" smooth="yes"/>
      <point x="57" y="490" type="line" smooth="yes"/>
      <point x="25" y="490"/>
      <point x="17" y="515"/>
      <point x="17" y="548" type="curve" smooth="yes"/>
      <point x="17" y="581"/>
      <point x="25" y="609"/>
      <point x="57" y="609" type="curve" smooth="yes"/>
    </contour>
    <contour>
      <point x="408" y="371" type="line" smooth="yes"/>
      <point x="441" y="371"/>
      <point x="448" y="343"/>
      <point x="448" y="310" type="curve" smooth="yes"/>
      <point x="448" y="277"/>
      <point x="441" y="252"/>
      <point x="408" y="252" type="curve" smooth="yes"/>
      <point x="57" y="252" type="line" smooth="yes"/>
      <point x="24" y="252"/>
      <point x="17" y="277"/>
      <point x="17" y="310" type="curve" smooth="yes"/>
      <point x="17" y="343"/>
      <point x="24" y="371"/>
      <point x="57" y="371" type="curve" smooth="yes"/>
    </contour>
  </outline>
</glyph>
<glyph name="greater" format="2">
  <advance width="744"/>
  <unicode hex="003E"/>
  <outline>
    <contour>
      <point x="50" y="104" type="line"/>
      <point x="574" y="367" type="line"/>
      <point x="50" y="630" type="line"/>
      <point x="50" y="704" type="line"/>
      <point x="723" y="367" type="line"/>
      <point x="50" y="31" type="line"/>
    </contour>
  </outline>
</glyph>
<glyph name="question" format="2">
  <advance width="455"/>
  <unicode hex="003F"/>
  <outline>
    <contour>
      <point x="160" y="968" type="curve" smooth="yes"/>
      <point x="290" y="968"/>
      <point x="423" y="899"/>
      <point x="423" y="776" type="curve" smooth="yes"/>
      <point x="423" y="718"/>
      <point x="387" y="661"/>
      <point x="315" y="604" type="curve"/>
      <point x="272" y="568" type="line" smooth="yes"/>
      <point x="215" y="522"/>
      <point x="186" y="485"/>
      <point x="186" y="455" type="curve" smooth="yes"/>
      <point x="186" y="409"/>
      <point x="220" y="375"/>
      <point x="288" y="353" type="curve"/>
      <point x="255" y="332"/>
      <point x="225" y="300"/>
      <point x="200" y="259" type="curve"/>
      <point x="144" y="283"/>
      <point x="107" y="313"/>
      <point x="87" y="346" type="curve"/>
      <point x="98" y="407"/>
      <point x="134" y="478"/>
      <point x="195" y="556" type="curve"/>
      <point x="224" y="595" type="line"/>
      <point x="275" y="659"/>
      <point x="301" y="707"/>
      <point x="301" y="737" type="curve" smooth="yes"/>
      <point x="301" y="826"/>
      <point x="191" y="870"/>
      <point x="94" y="870" type="curve" smooth="yes"/>
      <point x="85" y="870"/>
      <point x="72" y="869"/>
      <point x="53" y="868" type="curve"/>
      <point x="78" y="895"/>
      <point x="98" y="928"/>
      <point x="114" y="966" type="curve"/>
      <point x="130" y="967"/>
      <point x="145" y="968"/>
    </contour>
    <contour>
      <point x="273" y="104" type="curve"/>
      <point x="235" y="84"/>
      <point x="203" y="51"/>
      <point x="174" y="5" type="curve"/>
      <point x="145" y="51"/>
      <point x="112" y="83"/>
      <point x="74" y="104" type="curve"/>
      <point x="112" y="124"/>
      <point x="145" y="157"/>
      <point x="174" y="203" type="curve"/>
      <point x="203" y="157"/>
      <point x="235" y="124"/>
    </contour>
  </outline>
</glyph>
<glyph name="at" format="2">
  <advance width="1140"/>
  <unicode hex="0040"/>
  <outline>
    <contour>
      <point x="507" y="177" type="curve" smooth="yes"/>
      <point x="440" y="177"/>
      <point x="398" y="248"/>
      <point x="398" y="317" type="curve" smooth="yes"/>
      <point x="398" y="391"/>
      <point x="422" y="462"/>
      <point x="469" y="529" type="curve" smooth="yes"/>
      <point x="515" y="596"/>
      <point x="573" y="630"/>
      <point x="641" y="630" type="curve" smooth="yes"/>
      <point x="662" y="630"/>
      <point x="680" y="625"/>
      <point x="692" y="618" type="curve" smooth="yes"/>
      <point x="703" y="608"/>
      <point x="716" y="591"/>
      <point x="730" y="565" type="curve"/>
      <point x="743" y="613" type="line"/>
      <point x="828" y="613" type="line"/>
      <point x="748" y="298" type="line" smooth="yes"/>
      <point x="747" y="288"/>
      <point x="745" y="280"/>
      <point x="745" y="275" type="curve" smooth="yes"/>
      <point x="745" y="237"/>
      <point x="762" y="218"/>
      <point x="794" y="218" type="curve" smooth="yes"/>
      <point x="835" y="218"/>
      <point x="871" y="243"/>
      <point x="904" y="294" type="curve" smooth="yes"/>
      <point x="937" y="345"/>
      <point x="954" y="401"/>
      <point x="954" y="463" type="curve" smooth="yes"/>
      <point x="954" y="556"/>
      <point x="919" y="635"/>
      <point x="848" y="701" type="curve" smooth="yes"/>
      <point x="779" y="767"/>
      <point x="696" y="800"/>
      <point x="598" y="800" type="curve" smooth="yes"/>
      <point x="494" y="800"/>
      <point x="409" y="761"/>
      <point x="345" y="684" type="curve" smooth="yes"/>
      <point x="281" y="606"/>
      <point x="248" y="513"/>
      <point x="248" y="401" type="curve" smooth="yes"/>
      <point x="248" y="293"/>
      <point x="282" y="204"/>
      <point x="350" y="135" type="curve" smooth="yes"/>
      <point x="418" y="66"/>
      <point x="505" y="31"/>
      <point x="610" y="31" type="curve" smooth="yes"/>
      <point x="683" y="31"/>
      <point x="765" y="51"/>
      <point x="853" y="91" type="curve"/>
      <point x="868" y="53" type="line"/>
      <point x="807" y="26"/>
      <point x="759" y="10"/>
      <point x="722" y="0" type="curve" smooth="yes"/>
      <point x="684" y="-10"/>
      <point x="642" y="-17"/>
      <point x="599" y="-17" type="curve" smooth="yes"/>
      <point x="471" y="-17"/>
      <point x="363" y="23"/>
      <point x="275" y="104" type="curve" smooth="yes"/>
      <point x="187" y="185"/>
      <point x="144" y="285"/>
      <point x="144" y="404" type="curve" smooth="yes"/>
      <point x="144" y="524"/>
      <point x="188" y="628"/>
      <point x="275" y="712" type="curve" smooth="yes"/>
      <point x="364" y="796"/>
      <point x="471" y="838"/>
      <point x="596" y="838" type="curve" smooth="yes"/>
      <point x="711" y="838"/>
      <point x="808" y="803"/>
      <point x="885" y="734" type="curve" smooth="yes"/>
      <point x="964" y="663"/>
      <point x="1003" y="578"/>
      <point x="1003" y="475" type="curve" smooth="yes"/>
      <point x="1003" y="394"/>
      <point x="981" y="325"/>
      <point x="935" y="265" type="curve" smooth="yes"/>
      <point x="889" y="207"/>
      <point x="836" y="179"/>
      <point x="775" y="179" type="curve" smooth="yes"/>
      <point x="715" y="179"/>
      <point x="668" y="215"/>
      <point x="662" y="268" type="curve"/>
      <point x="617" y="208"/>
      <point x="565" y="177"/>
    </contour>
    <contour>
      <point x="486" y="337" type="curve" smooth="yes"/>
      <point x="486" y="281"/>
      <point x="508" y="232"/>
      <point x="560" y="232" type="curve" smooth="yes"/>
      <point x="600" y="232"/>
      <point x="635" y="263"/>
      <point x="665" y="325" type="curve" smooth="yes"/>
      <point x="695" y="387"/>
      <point x="709" y="446"/>
      <point x="709" y="503" type="curve" smooth="yes"/>
      <point x="709" y="545"/>
      <point x="692" y="575"/>
      <point x="655" y="575" type="curve" smooth="yes"/>
      <point x="622" y="575"/>
      <point x="584" y="553"/>
      <point x="546" y="506" type="curve" smooth="yes"/>
      <point x="506" y="461"/>
      <point x="486" y="404"/>
    </contour>
  </outline>
</glyph>
<glyph name="A" format="2">
  <advance width="886"/>
  <unicode hex="0041"/>
  <outline>
    <contour>
      <point x="326" y="351" type="curve" smooth="yes"/>
      <point x="546" y="351" type="line"/>
      <point x="429" y="688" type="line"/>
      <point x="422" y="688" type="line"/>
      <point x="295" y="367" type="line" smooth="yes"/>
      <point x="294" y="366"/>
      <point x="294" y="363"/>
      <point x="294" y="362" type="curve" smooth="yes"/>
      <point x="294" y="353"/>
      <point x="304" y="351"/>
    </contour>
    <contour>
      <point x="213" y="148" type="line" smooth="yes"/>
      <point x="211" y="141"/>
      <point x="188" y="85"/>
      <point x="188" y="79" type="curve" smooth="yes"/>
      <point x="188" y="46"/>
      <point x="237" y="40"/>
      <point x="278" y="38" type="curve"/>
      <point x="282" y="34"/>
      <point x="283" y="26"/>
      <point x="283" y="17" type="curve" smooth="yes"/>
      <point x="283" y="10"/>
      <point x="282" y="4"/>
      <point x="278" y="0" type="curve"/>
      <point x="263" y="0"/>
      <point x="246" y="0"/>
      <point x="227" y="0" type="curve" smooth="yes"/>
      <point x="192" y="0"/>
      <point x="152" y="0"/>
      <point x="119" y="0" type="curve" smooth="yes"/>
      <point x="94" y="0"/>
      <point x="68" y="0"/>
      <point x="43" y="0" type="curve" smooth="yes"/>
      <point x="31" y="0"/>
      <point x="20" y="0"/>
      <point x="9" y="0" type="curve"/>
      <point x="5" y="4"/>
      <point x="0" y="10"/>
      <point x="0" y="17" type="curve" smooth="yes"/>
      <point x="0" y="26"/>
      <point x="5" y="34"/>
      <point x="9" y="38" type="curve"/>
      <point x="62" y="42"/>
      <point x="101" y="49"/>
      <point x="133" y="126" type="curve" smooth="yes"/>
      <point x="414" y="791" type="line"/>
      <point x="430" y="791"/>
      <point x="463" y="805"/>
      <point x="482" y="816" type="curve"/>
      <point x="738" y="107" type="line" smooth="yes"/>
      <point x="759" y="47"/>
      <point x="801" y="42"/>
      <point x="849" y="38" type="curve"/>
      <point x="853" y="34"/>
      <point x="856" y="26"/>
      <point x="856" y="17" type="curve" smooth="yes"/>
      <point x="856" y="10"/>
      <point x="853" y="4"/>
      <point x="849" y="0" type="curve"/>
      <point x="834" y="0"/>
      <point x="820" y="0"/>
      <point x="805" y="0" type="curve" smooth="yes"/>
      <point x="774" y="0"/>
      <point x="741" y="0"/>
      <point x="708" y="0" type="curve" smooth="yes"/>
      <point x="676" y="0"/>
      <point x="635" y="0"/>
      <point x="598" y="0" type="curve" smooth="yes"/>
      <point x="579" y="0"/>
      <point x="561" y="0"/>
      <point x="546" y="0" type="curve"/>
      <point x="542" y="4"/>
      <point x="541" y="10"/>
      <point x="541" y="17" type="curve" smooth="yes"/>
      <point x="541" y="26"/>
      <point x="542" y="34"/>
      <point x="546" y="38" type="curve"/>
      <point x="598" y="42"/>
      <point x="640" y="46"/>
      <point x="640" y="76" type="curve" smooth="yes"/>
      <point x="640" y="80"/>
      <point x="638" y="84"/>
      <point x="637" y="89" type="curve" smooth="yes"/>
      <point x="565" y="299" type="line"/>
      <point x="304" y="299" type="line" smooth="yes"/>
      <point x="274" y="299"/>
      <point x="266" y="294"/>
      <point x="260" y="278" type="curve" smooth="yes"/>
    </contour>
  </outline>
</glyph>
<glyph name="B" format="2">
  <advance width="695"/>
  <unicode hex="0042"/>
  <outline>
    <contour>
      <point x="237" y="682" type="curve" smooth="yes"/>
      <point x="237" y="454" type="line"/>
      <point x="329" y="454" type="line" smooth="yes"/>
      <point x="432" y="454"/>
      <point x="505" y="491"/>
      <point x="505" y="596" type="curve" smooth="yes"/>
      <point x="505" y="722"/>
      <point x="414" y="760"/>
      <point x="345" y="760" type="curve" smooth="yes"/>
      <point x="237" y="760"/>
      <point x="237" y="748"/>
    </contour>
    <contour>
      <point x="237" y="412" type="line"/>
      <point x="237" y="146" type="line" smooth="yes"/>
      <point x="237" y="70"/>
      <point x="253" y="38"/>
      <point x="340" y="38" type="curve" smooth="yes"/>
      <point x="528" y="38"/>
      <point x="563" y="114"/>
      <point x="563" y="205" type="curve" smooth="yes"/>
      <point x="563" y="317"/>
      <point x="492" y="412"/>
      <point x="322" y="412" type="curve" smooth="yes"/>
    </contour>
    <contour>
      <point x="179" y="800" type="curve" smooth="yes"/>
      <point x="224" y="800"/>
      <point x="296" y="802"/>
      <point x="339" y="802" type="curve" smooth="yes"/>
      <point x="570" y="802"/>
      <point x="605" y="694"/>
      <point x="605" y="611" type="curve" smooth="yes"/>
      <point x="605" y="544"/>
      <point x="549" y="480"/>
      <point x="487" y="449" type="curve"/>
      <point x="487" y="446" type="line"/>
      <point x="595" y="415"/>
      <point x="678" y="347"/>
      <point x="678" y="228" type="curve" smooth="yes"/>
      <point x="678" y="121"/>
      <point x="613" y="0"/>
      <point x="366" y="0" type="curve" smooth="yes"/>
      <point x="185" y="0" type="line" smooth="yes"/>
      <point x="154" y="0"/>
      <point x="114" y="0"/>
      <point x="77" y="0" type="curve" smooth="yes"/>
      <point x="58" y="0"/>
      <point x="40" y="0"/>
      <point x="24" y="0" type="curve"/>
      <point x="20" y="4"/>
      <point x="17" y="10"/>
      <point x="17" y="17" type="curve" smooth="yes"/>
      <point x="17" y="26"/>
      <point x="20" y="34"/>
      <point x="24" y="38" type="curve"/>
      <point x="111" y="42"/>
      <point x="131" y="48"/>
      <point x="131" y="151" type="curve" smooth="yes"/>
      <point x="131" y="649" type="line" smooth="yes"/>
      <point x="131" y="752"/>
      <point x="111" y="757"/>
      <point x="24" y="761" type="curve"/>
      <point x="20" y="765"/>
      <point x="17" y="774"/>
      <point x="17" y="781" type="curve" smooth="yes"/>
      <point x="17" y="790"/>
      <point x="20" y="798"/>
      <point x="24" y="802" type="curve"/>
      <point x="72" y="801"/>
      <point x="134" y="800"/>
    </contour>
  </outline>
</glyph>
<glyph name="C" format="2">
  <advance width="787"/>
  <unicode hex="0043"/>
  <outline>
    <contour>
      <point x="46" y="384" type="curve" smooth="yes"/>
      <point x="46" y="620"/>
      <point x="208" y="816"/>
      <point x="444" y="816" type="curve" smooth="yes"/>
      <point x="597" y="816"/>
      <point x="652" y="760"/>
      <point x="715" y="760" type="curve"/>
      <point x="727" y="692"/>
      <point x="737" y="632"/>
      <point x="743" y="568" type="curve"/>
      <point x="733" y="563"/>
      <point x="724" y="559"/>
      <point x="715" y="559" type="curve" smooth="yes"/>
      <point x="710" y="559"/>
      <point x="707" y="561"/>
      <point x="702" y="562" type="curve"/>
      <point x="670" y="669"/>
      <point x="601" y="770"/>
      <point x="430" y="770" type="curve" smooth="yes"/>
      <point x="366" y="770"/>
      <point x="294" y="736"/>
      <point x="232" y="660" type="curve" smooth="yes"/>
      <point x="187" y="604"/>
      <point x="159" y="515"/>
      <point x="159" y="408" type="curve" smooth="yes"/>
      <point x="159" y="227"/>
      <point x="274" y="38"/>
      <point x="441" y="38" type="curve" smooth="yes"/>
      <point x="556" y="38"/>
      <point x="641" y="77"/>
      <point x="729" y="174" type="curve"/>
      <point x="743" y="174"/>
      <point x="752" y="166"/>
      <point x="758" y="155" type="curve"/>
      <point x="674" y="45"/>
      <point x="563" y="-12"/>
      <point x="443" y="-12" type="curve" smooth="yes"/>
      <point x="176" y="-12"/>
      <point x="46" y="168"/>
    </contour>
  </outline>
</glyph>
<glyph name="D" format="2">
  <advance width="837"/>
  <unicode hex="0044"/>
  <outline>
    <contour>
      <point x="237" y="104" type="line" smooth="yes"/>
      <point x="237" y="64"/>
      <point x="250" y="40"/>
      <point x="372" y="40" type="curve" smooth="yes"/>
      <point x="547" y="40"/>
      <point x="697" y="102"/>
      <point x="697" y="352" type="curve" smooth="yes"/>
      <point x="697" y="543"/>
      <point x="609" y="760"/>
      <point x="341" y="760" type="curve" smooth="yes"/>
      <point x="280" y="760"/>
      <point x="237" y="742"/>
      <point x="237" y="699" type="curve" smooth="yes"/>
    </contour>
    <contour>
      <point x="184" y="800" type="curve" smooth="yes"/>
      <point x="232" y="800"/>
      <point x="300" y="802"/>
      <point x="388" y="802" type="curve" smooth="yes"/>
      <point x="626" y="802"/>
      <point x="816" y="613"/>
      <point x="816" y="382" type="curve" smooth="yes"/>
      <point x="816" y="77"/>
      <point x="585" y="0"/>
      <point x="410" y="0" type="curve" smooth="yes"/>
      <point x="282" y="0"/>
      <point x="231" y="0"/>
      <point x="185" y="0" type="curve" smooth="yes"/>
      <point x="138" y="0"/>
      <point x="72" y="-1"/>
      <point x="24" y="-2" type="curve"/>
      <point x="20" y="2"/>
      <point x="17" y="10"/>
      <point x="17" y="17" type="curve" smooth="yes"/>
      <point x="17" y="26"/>
      <point x="20" y="34"/>
      <point x="24" y="38" type="curve"/>
      <point x="111" y="42"/>
      <point x="131" y="48"/>
      <point x="131" y="151" type="curve" smooth="yes"/>
      <point x="131" y="649" type="line" smooth="yes"/>
      <point x="131" y="752"/>
      <point x="111" y="757"/>
      <point x="24" y="761" type="curve"/>
      <point x="20" y="765"/>
      <point x="17" y="774"/>
      <point x="17" y="781" type="curve" smooth="yes"/>
      <point x="17" y="790"/>
      <point x="20" y="798"/>
      <point x="24" y="802" type="curve"/>
      <point x="74" y="801"/>
      <point x="139" y="800"/>
    </contour>
  </outline>
</glyph>
<glyph name="E" format="2">
  <advance width="671"/>
  <unicode hex="0045"/>
  <outline>
    <contour>
      <point x="387" y="448" type="line" smooth="yes"/>
      <point x="453" y="448"/>
      <point x="459" y="485"/>
      <point x="459" y="506" type="curve" smooth="yes"/>
      <point x="459" y="510"/>
      <point x="458" y="514"/>
      <point x="458" y="515" type="curve" smooth="yes"/>
      <point x="458" y="517"/>
      <point x="458" y="518"/>
      <point x="459" y="518" type="curve" smooth="yes"/>
      <point x="460" y="518"/>
      <point x="461" y="522"/>
      <point x="461" y="532" type="curve"/>
      <point x="465" y="536"/>
      <point x="474" y="538"/>
      <point x="481" y="538" type="curve" smooth="yes"/>
      <point x="490" y="538"/>
      <point x="498" y="536"/>
      <point x="502" y="532" type="curve"/>
      <point x="501" y="502"/>
      <point x="500" y="460"/>
      <point x="500" y="425" type="curve" smooth="yes"/>
      <point x="500" y="383"/>
      <point x="501" y="348"/>
      <point x="502" y="316" type="curve"/>
      <point x="498" y="312"/>
      <point x="490" y="310"/>
      <point x="481" y="310" type="curve" smooth="yes"/>
      <point x="474" y="310"/>
      <point x="465" y="312"/>
      <point x="461" y="316" type="curve"/>
      <point x="457" y="372"/>
      <point x="453" y="401"/>
      <point x="348" y="401" type="curve" smooth="yes"/>
      <point x="236" y="401" type="line"/>
      <point x="236" y="126" type="line" smooth="yes"/>
      <point x="236" y="68"/>
      <point x="253" y="48"/>
      <point x="305" y="48" type="curve" smooth="yes"/>
      <point x="449" y="48" type="line" smooth="yes"/>
      <point x="543" y="48"/>
      <point x="586" y="122"/>
      <point x="611" y="211" type="curve"/>
      <point x="616" y="212"/>
      <point x="621" y="212"/>
      <point x="626" y="212" type="curve" smooth="yes"/>
      <point x="636" y="212"/>
      <point x="646" y="210"/>
      <point x="655" y="205" type="curve"/>
      <point x="645" y="142"/>
      <point x="626" y="62"/>
      <point x="609" y="0" type="curve"/>
      <point x="22" y="0" type="line"/>
      <point x="18" y="4"/>
      <point x="17" y="10"/>
      <point x="17" y="17" type="curve" smooth="yes"/>
      <point x="17" y="26"/>
      <point x="18" y="34"/>
      <point x="22" y="38" type="curve"/>
      <point x="109" y="42"/>
      <point x="130" y="48"/>
      <point x="130" y="151" type="curve" smooth="yes"/>
      <point x="130" y="649" type="line" smooth="yes"/>
      <point x="130" y="752"/>
      <point x="109" y="757"/>
      <point x="22" y="761" type="curve"/>
      <point x="18" y="765"/>
      <point x="17" y="774"/>
      <point x="17" y="781" type="curve" smooth="yes"/>
      <point x="17" y="790"/>
      <point x="18" y="798"/>
      <point x="22" y="802" type="curve"/>
      <point x="72" y="801"/>
      <point x="144" y="800"/>
      <point x="182" y="800" type="curve" smooth="yes"/>
      <point x="498" y="800" type="line" smooth="yes"/>
      <point x="528" y="800"/>
      <point x="538" y="801"/>
      <point x="559" y="805" type="curve" smooth="yes"/>
      <point x="563" y="805"/>
      <point x="564" y="803"/>
      <point x="564" y="801" type="curve" smooth="yes"/>
      <point x="566" y="791"/>
      <point x="585" y="672"/>
      <point x="591" y="621" type="curve"/>
      <point x="582" y="616"/>
      <point x="573" y="614"/>
      <point x="562" y="614" type="curve" smooth="yes"/>
      <point x="558" y="614"/>
      <point x="555" y="615"/>
      <point x="551" y="615" type="curve"/>
      <point x="524" y="701"/>
      <point x="503" y="750"/>
      <point x="410" y="750" type="curve" smooth="yes"/>
      <point x="317" y="750" type="line" smooth="yes"/>
      <point x="250" y="750"/>
      <point x="236" y="726"/>
      <point x="236" y="671" type="curve" smooth="yes"/>
      <point x="236" y="448" type="line"/>
    </contour>
  </outline>
</glyph>
<glyph name="F" format="2">
  <advance width="606"/>
  <unicode hex="0046"/>
  <outline>
    <contour>
      <point x="378" y="401" type="curve" smooth="yes"/>
      <point x="236" y="401" type="line"/>
      <point x="236" y="151" type="line" smooth="yes"/>
      <point x="236" y="48"/>
      <point x="256" y="42"/>
      <point x="343" y="38" type="curve"/>
      <point x="347" y="34"/>
      <point x="350" y="26"/>
      <point x="350" y="17" type="curve" smooth="yes"/>
      <point x="350" y="10"/>
      <point x="347" y="4"/>
      <point x="343" y="0" type="curve"/>
      <point x="328" y="0"/>
      <point x="312" y="0"/>
      <point x="295" y="0" type="curve" smooth="yes"/>
      <point x="260" y="0"/>
      <point x="221" y="0"/>
      <point x="184" y="0" type="curve" smooth="yes"/>
      <point x="128" y="0"/>
      <point x="65" y="-1"/>
      <point x="22" y="-2" type="curve"/>
      <point x="18" y="2"/>
      <point x="17" y="10"/>
      <point x="17" y="17" type="curve" smooth="yes"/>
      <point x="17" y="26"/>
      <point x="18" y="34"/>
      <point x="22" y="38" type="curve"/>
      <point x="109" y="42"/>
      <point x="130" y="48"/>
      <point x="130" y="151" type="curve" smooth="yes"/>
      <point x="130" y="649" type="line" smooth="yes"/>
      <point x="130" y="752"/>
      <point x="109" y="757"/>
      <point x="22" y="761" type="curve"/>
      <point x="18" y="765"/>
      <point x="17" y="774"/>
      <point x="17" y="781" type="curve" smooth="yes"/>
      <point x="17" y="790"/>
      <point x="18" y="798"/>
      <point x="22" y="802" type="curve"/>
      <point x="72" y="801"/>
      <point x="142" y="800"/>
      <point x="182" y="800" type="curve" smooth="yes"/>
      <point x="498" y="800" type="line" smooth="yes"/>
      <point x="529" y="800"/>
      <point x="536" y="801"/>
      <point x="557" y="805" type="curve" smooth="yes"/>
      <point x="561" y="805"/>
      <point x="562" y="803"/>
      <point x="562" y="801" type="curve" smooth="yes"/>
      <point x="564" y="791"/>
      <point x="583" y="672"/>
      <point x="589" y="621" type="curve"/>
      <point x="579" y="617"/>
      <point x="566" y="615"/>
      <point x="551" y="615" type="curve"/>
      <point x="524" y="701"/>
      <point x="492" y="750"/>
      <point x="361" y="750" type="curve" smooth="yes"/>
      <point x="305" y="750" type="line" smooth="yes"/>
      <point x="250" y="750"/>
      <point x="236" y="738"/>
      <point x="236" y="671" type="curve" smooth="yes"/>
      <point x="236" y="448" type="line"/>
      <point x="351" y="448" type="line" smooth="yes"/>
      <point x="456" y="448"/>
      <point x="460" y="464"/>
      <point x="464" y="532" type="curve"/>
      <point x="468" y="536"/>
      <point x="477" y="538"/>
      <point x="484" y="538" type="curve" smooth="yes"/>
      <point x="493" y="538"/>
      <point x="501" y="536"/>
      <point x="505" y="532" type="curve"/>
      <point x="504" y="500"/>
      <point x="502" y="466"/>
      <point x="502" y="425" type="curve" smooth="yes"/>
      <point x="502" y="383"/>
      <point x="504" y="347"/>
      <point x="505" y="316" type="curve"/>
      <point x="501" y="312"/>
      <point x="493" y="310"/>
      <point x="484" y="310" type="curve" smooth="yes"/>
      <point x="477" y="310"/>
      <point x="468" y="312"/>
      <point x="464" y="316" type="curve"/>
      <point x="464" y="320"/>
      <point x="464" y="322"/>
      <point x="463" y="322" type="curve" smooth="yes"/>
      <point x="459" y="322"/>
      <point x="476" y="401"/>
    </contour>
  </outline>
</glyph>
<glyph name="G" format="2">
  <advance width="855"/>
  <unicode hex="0047"/>
  <outline>
    <contour>
      <point x="467" y="816" type="curve" smooth="yes"/>
      <point x="605" y="816"/>
      <point x="651" y="772"/>
      <point x="725" y="760" type="curve"/>
      <point x="745" y="671"/>
      <point x="754" y="621"/>
      <point x="754" y="569" type="curve"/>
      <point x="742" y="564"/>
      <point x="730" y="562"/>
      <point x="718" y="562" type="curve" smooth="yes"/>
      <point x="717" y="562"/>
      <point x="714" y="562"/>
      <point x="713" y="562" type="curve"/>
      <point x="681" y="669"/>
      <point x="630" y="771"/>
      <point x="450" y="771" type="curve" smooth="yes"/>
      <point x="305" y="771"/>
      <point x="165" y="622"/>
      <point x="165" y="405" type="curve" smooth="yes"/>
      <point x="165" y="241"/>
      <point x="269" y="32"/>
      <point x="465" y="32" type="curve" smooth="yes"/>
      <point x="532" y="32"/>
      <point x="615" y="39"/>
      <point x="657" y="79" type="curve"/>
      <point x="657" y="269" type="line" smooth="yes"/>
      <point x="657" y="319"/>
      <point x="624" y="324"/>
      <point x="556" y="329" type="curve"/>
      <point x="552" y="333"/>
      <point x="551" y="342"/>
      <point x="551" y="351" type="curve" smooth="yes"/>
      <point x="551" y="360"/>
      <point x="552" y="369"/>
      <point x="556" y="373" type="curve"/>
      <point x="611" y="372"/>
      <point x="667" y="371"/>
      <point x="709" y="371" type="curve" smooth="yes"/>
      <point x="759" y="371"/>
      <point x="790" y="372"/>
      <point x="820" y="373" type="curve"/>
      <point x="824" y="369"/>
      <point x="826" y="360"/>
      <point x="826" y="351" type="curve" smooth="yes"/>
      <point x="826" y="342"/>
      <point x="824" y="333"/>
      <point x="820" y="329" type="curve"/>
      <point x="784" y="325"/>
      <point x="763" y="312"/>
      <point x="763" y="269" type="curve" smooth="yes"/>
      <point x="763" y="125" type="line" smooth="yes"/>
      <point x="763" y="111"/>
      <point x="768" y="102"/>
      <point x="782" y="91" type="curve"/>
      <point x="698" y="19"/>
      <point x="582" y="-12"/>
      <point x="436" y="-12" type="curve" smooth="yes"/>
      <point x="199" y="-12"/>
      <point x="46" y="158"/>
      <point x="46" y="381" type="curve" smooth="yes"/>
      <point x="46" y="654"/>
      <point x="260" y="816"/>
    </contour>
  </outline>
</glyph>
<glyph name="H" format="2">
  <advance width="902"/>
  <unicode hex="0048"/>
  <outline>
    <contour>
      <point x="766" y="151" type="line" smooth="yes"/>
      <point x="766" y="48"/>
      <point x="787" y="42"/>
      <point x="874" y="38" type="curve"/>
      <point x="878" y="34"/>
      <point x="880" y="26"/>
      <point x="880" y="17" type="curve" smooth="yes"/>
      <point x="880" y="10"/>
      <point x="878" y="2"/>
      <point x="874" y="-2" type="curve"/>
      <point x="819" y="-1"/>
      <point x="760" y="0"/>
      <point x="714" y="0" type="curve" smooth="yes"/>
      <point x="668" y="0"/>
      <point x="609" y="-1"/>
      <point x="553" y="-2" type="curve"/>
      <point x="549" y="2"/>
      <point x="548" y="10"/>
      <point x="548" y="17" type="curve" smooth="yes"/>
      <point x="548" y="26"/>
      <point x="549" y="34"/>
      <point x="553" y="38" type="curve"/>
      <point x="640" y="42"/>
      <point x="661" y="48"/>
      <point x="661" y="151" type="curve" smooth="yes"/>
      <point x="661" y="398" type="line"/>
      <point x="237" y="398" type="line"/>
      <point x="237" y="151" type="line" smooth="yes"/>
      <point x="237" y="48"/>
      <point x="258" y="42"/>
      <point x="345" y="38" type="curve"/>
      <point x="349" y="34"/>
      <point x="350" y="26"/>
      <point x="350" y="17" type="curve" smooth="yes"/>
      <point x="350" y="10"/>
      <point x="349" y="2"/>
      <point x="345" y="-2" type="curve"/>
      <point x="290" y="-1"/>
      <point x="230" y="0"/>
      <point x="185" y="0" type="curve" smooth="yes"/>
      <point x="138" y="0"/>
      <point x="79" y="-1"/>
      <point x="24" y="-2" type="curve"/>
      <point x="20" y="2"/>
      <point x="17" y="10"/>
      <point x="17" y="17" type="curve" smooth="yes"/>
      <point x="17" y="26"/>
      <point x="20" y="34"/>
      <point x="24" y="38" type="curve"/>
      <point x="111" y="42"/>
      <point x="131" y="48"/>
      <point x="131" y="151" type="curve" smooth="yes"/>
      <point x="131" y="649" type="line" smooth="yes"/>
      <point x="131" y="752"/>
      <point x="111" y="757"/>
      <point x="24" y="761" type="curve"/>
      <point x="20" y="765"/>
      <point x="17" y="774"/>
      <point x="17" y="781" type="curve" smooth="yes"/>
      <point x="17" y="790"/>
      <point x="20" y="798"/>
      <point x="24" y="802" type="curve"/>
      <point x="71" y="801"/>
      <point x="122" y="800"/>
      <point x="184" y="800" type="curve" smooth="yes"/>
      <point x="247" y="800"/>
      <point x="298" y="801"/>
      <point x="345" y="802" type="curve"/>
      <point x="349" y="798"/>
      <point x="350" y="790"/>
      <point x="350" y="781" type="curve" smooth="yes"/>
      <point x="350" y="774"/>
      <point x="349" y="765"/>
      <point x="345" y="761" type="curve"/>
      <point x="258" y="757"/>
      <point x="237" y="752"/>
      <point x="237" y="649" type="curve" smooth="yes"/>
      <point x="237" y="450" type="line"/>
      <point x="661" y="450" type="line"/>
      <point x="661" y="649" type="line" smooth="yes"/>
      <point x="661" y="752"/>
      <point x="640" y="757"/>
      <point x="553" y="761" type="curve"/>
      <point x="549" y="765"/>
      <point x="548" y="774"/>
      <point x="548" y="781" type="curve" smooth="yes"/>
      <point x="548" y="790"/>
      <point x="549" y="798"/>
      <point x="553" y="802" type="curve"/>
      <point x="608" y="801"/>
      <point x="667" y="800"/>
      <point x="713" y="800" type="curve" smooth="yes"/>
      <point x="760" y="800"/>
      <point x="823" y="801"/>
      <point x="874" y="802" type="curve"/>
      <point x="878" y="798"/>
      <point x="880" y="790"/>
      <point x="880" y="781" type="curve" smooth="yes"/>
      <point x="880" y="774"/>
      <point x="878" y="765"/>
      <point x="874" y="761" type="curve"/>
      <point x="787" y="757"/>
      <point x="766" y="752"/>
      <point x="766" y="649" type="curve" smooth="yes"/>
    </contour>
  </outline>
</glyph>
<glyph name="I" format="2">
  <advance width="365"/>
  <unicode hex="0049"/>
  <outline>
    <contour>
      <point x="237" y="151" type="line" smooth="yes"/>
      <point x="237" y="48"/>
      <point x="258" y="42"/>
      <point x="345" y="38" type="curve"/>
      <point x="349" y="34"/>
      <point x="350" y="26"/>
      <point x="350" y="17" type="curve" smooth="yes"/>
      <point x="350" y="10"/>
      <point x="349" y="2"/>
      <point x="345" y="-2" type="curve"/>
      <point x="289" y="-1"/>
      <point x="230" y="0"/>
      <point x="185" y="0" type="curve" smooth="yes"/>
      <point x="140" y="0"/>
      <point x="80" y="-1"/>
      <point x="24" y="-2" type="curve"/>
      <point x="20" y="2"/>
      <point x="17" y="10"/>
      <point x="17" y="17" type="curve" smooth="yes"/>
      <point x="17" y="26"/>
      <point x="20" y="34"/>
      <point x="24" y="38" type="curve"/>
      <point x="111" y="42"/>
      <point x="131" y="48"/>
      <point x="131" y="151" type="curve" smooth="yes"/>
      <point x="131" y="649" type="line" smooth="yes"/>
      <point x="131" y="752"/>
      <point x="111" y="757"/>
      <point x="24" y="761" type="curve"/>
      <point x="20" y="765"/>
      <point x="17" y="774"/>
      <point x="17" y="781" type="curve" smooth="yes"/>
      <point x="17" y="790"/>
      <point x="20" y="798"/>
      <point x="24" y="802" type="curve"/>
      <point x="82" y="801"/>
      <point x="142" y="800"/>
      <point x="184" y="800" type="curve" smooth="yes"/>
      <point x="231" y="800"/>
      <point x="290" y="801"/>
      <point x="345" y="802" type="curve"/>
      <point x="349" y="798"/>
      <point x="350" y="790"/>
      <point x="350" y="781" type="curve" smooth="yes"/>
      <point x="350" y="774"/>
      <point x="349" y="765"/>
      <point x="345" y="761" type="curve"/>
      <point x="258" y="757"/>
      <point x="237" y="752"/>
      <point x="237" y="649" type="curve" smooth="yes"/>
    </contour>
  </outline>
</glyph>
<glyph name="J" format="2">
  <advance width="410"/>
  <unicode hex="004A"/>
  <outline>
    <contour>
      <point x="280" y="649" type="curve" smooth="yes"/>
      <point x="280" y="128" type="line" smooth="yes"/>
      <point x="280" y="-49"/>
      <point x="209" y="-114"/>
      <point x="154" y="-160" type="curve" smooth="yes"/>
      <point x="103" y="-203"/>
      <point x="65" y="-213"/>
      <point x="9" y="-213" type="curve" smooth="yes"/>
      <point x="-18" y="-213"/>
      <point x="-84" y="-191"/>
      <point x="-84" y="-146" type="curve" smooth="yes"/>
      <point x="-84" y="-119"/>
      <point x="-47" y="-93"/>
      <point x="-30" y="-93" type="curve" smooth="yes"/>
      <point x="1" y="-93"/>
      <point x="13" y="-109"/>
      <point x="20" y="-124" type="curve" smooth="yes"/>
      <point x="29" y="-143"/>
      <point x="45" y="-157"/>
      <point x="69" y="-157" type="curve" smooth="yes"/>
      <point x="110" y="-157"/>
      <point x="175" y="-123"/>
      <point x="175" y="100" type="curve" smooth="yes"/>
      <point x="175" y="649" type="line" smooth="yes"/>
      <point x="175" y="752"/>
      <point x="154" y="757"/>
      <point x="55" y="761" type="curve"/>
      <point x="51" y="765"/>
      <point x="50" y="774"/>
      <point x="50" y="781" type="curve" smooth="yes"/>
      <point x="50" y="790"/>
      <point x="51" y="798"/>
      <point x="55" y="802" type="curve"/>
      <point x="117" y="801"/>
      <point x="182" y="800"/>
      <point x="227" y="800" type="curve" smooth="yes"/>
      <point x="275" y="800"/>
      <point x="329" y="801"/>
      <point x="376" y="802" type="curve"/>
      <point x="380" y="798"/>
      <point x="382" y="790"/>
      <point x="382" y="781" type="curve" smooth="yes"/>
      <point x="382" y="774"/>
      <point x="380" y="765"/>
      <point x="376" y="761" type="curve"/>
      <point x="302" y="757"/>
      <point x="280" y="752"/>
    </contour>
  </outline>
</glyph>
<glyph name="K" format="2">
  <advance width="799"/>
  <unicode hex="004B"/>
  <outline>
    <contour>
      <point x="237" y="151" type="line" smooth="yes"/>
      <point x="237" y="48"/>
      <point x="258" y="42"/>
      <point x="345" y="38" type="curve"/>
      <point x="349" y="34"/>
      <point x="350" y="26"/>
      <point x="350" y="17" type="curve" smooth="yes"/>
      <point x="350" y="10"/>
      <point x="349" y="4"/>
      <point x="345" y="0" type="curve"/>
      <point x="326" y="0"/>
      <point x="308" y="0"/>
      <point x="289" y="0" type="curve" smooth="yes"/>
      <point x="252" y="0"/>
      <point x="216" y="0"/>
      <point x="185" y="0" type="curve" smooth="yes"/>
      <point x="137" y="0"/>
      <point x="80" y="-1"/>
      <point x="24" y="-2" type="curve"/>
      <point x="20" y="2"/>
      <point x="17" y="10"/>
      <point x="17" y="17" type="curve" smooth="yes"/>
      <point x="17" y="26"/>
      <point x="20" y="34"/>
      <point x="24" y="38" type="curve"/>
      <point x="111" y="42"/>
      <point x="131" y="48"/>
      <point x="131" y="151" type="curve" smooth="yes"/>
      <point x="131" y="649" type="line" smooth="yes"/>
      <point x="131" y="752"/>
      <point x="111" y="757"/>
      <point x="24" y="761" type="curve"/>
      <point x="20" y="765"/>
      <point x="17" y="774"/>
      <point x="17" y="781" type="curve" smooth="yes"/>
      <point x="17" y="790"/>
      <point x="20" y="798"/>
      <point x="24" y="802" type="curve"/>
      <point x="80" y="801"/>
      <point x="137" y="800"/>
      <point x="184" y="800" type="curve" smooth="yes"/>
      <point x="229" y="800"/>
      <point x="288" y="801"/>
      <point x="345" y="802" type="curve"/>
      <point x="349" y="798"/>
      <point x="350" y="790"/>
      <point x="350" y="781" type="curve" smooth="yes"/>
      <point x="350" y="774"/>
      <point x="349" y="765"/>
      <point x="345" y="761" type="curve"/>
      <point x="258" y="757"/>
      <point x="237" y="752"/>
      <point x="237" y="649" type="curve" smooth="yes"/>
      <point x="237" y="430" type="line"/>
      <point x="280" y="434"/>
      <point x="309" y="450"/>
      <point x="335" y="479" type="curve" smooth="yes"/>
      <point x="539" y="697" type="line" smooth="yes"/>
      <point x="556" y="716"/>
      <point x="563" y="728"/>
      <point x="563" y="737" type="curve" smooth="yes"/>
      <point x="563" y="756"/>
      <point x="535" y="759"/>
      <point x="505" y="761" type="curve"/>
      <point x="501" y="765"/>
      <point x="498" y="774"/>
      <point x="498" y="781" type="curve" smooth="yes"/>
      <point x="498" y="790"/>
      <point x="501" y="798"/>
      <point x="505" y="802" type="curve"/>
      <point x="551" y="801"/>
      <point x="599" y="800"/>
      <point x="645" y="800" type="curve" smooth="yes"/>
      <point x="685" y="800"/>
      <point x="725" y="801"/>
      <point x="763" y="802" type="curve"/>
      <point x="767" y="798"/>
      <point x="769" y="790"/>
      <point x="769" y="781" type="curve" smooth="yes"/>
      <point x="769" y="774"/>
      <point x="767" y="765"/>
      <point x="763" y="761" type="curve"/>
      <point x="713" y="757"/>
      <point x="663" y="753"/>
      <point x="606" y="692" type="curve"/>
      <point x="424" y="505" type="line" smooth="yes"/>
      <point x="382" y="462"/>
      <point x="381" y="453"/>
      <point x="381" y="444" type="curve" smooth="yes"/>
      <point x="381" y="434"/>
      <point x="387" y="424"/>
      <point x="397" y="413" type="curve" smooth="yes"/>
      <point x="668" y="91" type="line" smooth="yes"/>
      <point x="706" y="46"/>
      <point x="741" y="42"/>
      <point x="777" y="38" type="curve"/>
      <point x="781" y="34"/>
      <point x="784" y="26"/>
      <point x="784" y="17" type="curve" smooth="yes"/>
      <point x="784" y="10"/>
      <point x="781" y="2"/>
      <point x="777" y="-2" type="curve"/>
      <point x="736" y="-1"/>
      <point x="694" y="0"/>
      <point x="652" y="0" type="curve" smooth="yes"/>
      <point x="626" y="0"/>
      <point x="610" y="-1"/>
      <point x="585" y="-2" type="curve" smooth="yes"/>
      <point x="580" y="-2"/>
      <point x="579" y="1"/>
      <point x="579" y="5" type="curve" smooth="yes"/>
      <point x="577" y="25"/>
      <point x="559" y="59"/>
      <point x="534" y="91" type="curve" smooth="yes"/>
      <point x="340" y="336" type="line" smooth="yes"/>
      <point x="315" y="368"/>
      <point x="279" y="382"/>
      <point x="237" y="383" type="curve"/>
    </contour>
  </outline>
</glyph>
<glyph name="L" format="2">
  <advance width="644"/>
  <unicode hex="004C"/>
  <outline>
    <contour>
      <point x="185" y="0" type="line" smooth="yes"/>
      <point x="143" y="0"/>
      <point x="72" y="-1"/>
      <point x="24" y="-2" type="curve"/>
      <point x="20" y="2"/>
      <point x="17" y="10"/>
      <point x="17" y="17" type="curve" smooth="yes"/>
      <point x="17" y="26"/>
      <point x="20" y="34"/>
      <point x="24" y="38" type="curve"/>
      <point x="111" y="42"/>
      <point x="131" y="48"/>
      <point x="131" y="151" type="curve" smooth="yes"/>
      <point x="131" y="649" type="line" smooth="yes"/>
      <point x="131" y="752"/>
      <point x="111" y="757"/>
      <point x="24" y="761" type="curve"/>
      <point x="20" y="765"/>
      <point x="17" y="774"/>
      <point x="17" y="781" type="curve" smooth="yes"/>
      <point x="17" y="790"/>
      <point x="20" y="798"/>
      <point x="24" y="802" type="curve"/>
      <point x="81" y="801"/>
      <point x="139" y="800"/>
      <point x="184" y="800" type="curve" smooth="yes"/>
      <point x="231" y="800"/>
      <point x="289" y="801"/>
      <point x="345" y="802" type="curve"/>
      <point x="349" y="798"/>
      <point x="350" y="790"/>
      <point x="350" y="781" type="curve" smooth="yes"/>
      <point x="350" y="774"/>
      <point x="349" y="765"/>
      <point x="345" y="761" type="curve"/>
      <point x="258" y="757"/>
      <point x="237" y="752"/>
      <point x="237" y="649" type="curve" smooth="yes"/>
      <point x="237" y="135" type="line" smooth="yes"/>
      <point x="237" y="72"/>
      <point x="260" y="48"/>
      <point x="308" y="48" type="curve" smooth="yes"/>
      <point x="386" y="48" type="line" smooth="yes"/>
      <point x="517" y="48"/>
      <point x="563" y="122"/>
      <point x="588" y="211" type="curve"/>
      <point x="592" y="211"/>
      <point x="595" y="212"/>
      <point x="599" y="212" type="curve" smooth="yes"/>
      <point x="610" y="212"/>
      <point x="620" y="210"/>
      <point x="629" y="205" type="curve"/>
      <point x="622" y="141"/>
      <point x="608" y="60"/>
      <point x="596" y="-2" type="curve"/>
      <point x="596" y="-2"/>
      <point x="482" y="0"/>
      <point x="449" y="0" type="curve" smooth="yes"/>
    </contour>
  </outline>
</glyph>
<glyph name="M" format="2">
  <advance width="1035"/>
  <unicode hex="004D"/>
  <outline>
    <contour>
      <point x="818" y="246" type="curve" smooth="yes"/>
      <point x="790" y="662" type="line"/>
      <point x="787" y="662" type="line"/>
      <point x="508" y="6" type="line" smooth="yes"/>
      <point x="503" y="-4"/>
      <point x="498" y="-12"/>
      <point x="491" y="-12" type="curve" smooth="yes"/>
      <point x="484" y="-12"/>
      <point x="476" y="-3"/>
      <point x="472" y="6" type="curve" smooth="yes"/>
      <point x="216" y="650" type="line"/>
      <point x="213" y="650" type="line"/>
      <point x="166" y="153" type="line" smooth="yes"/>
      <point x="165" y="141"/>
      <point x="164" y="129"/>
      <point x="164" y="118" type="curve" smooth="yes"/>
      <point x="164" y="71"/>
      <point x="181" y="43"/>
      <point x="248" y="38" type="curve"/>
      <point x="252" y="34"/>
      <point x="253" y="26"/>
      <point x="253" y="17" type="curve" smooth="yes"/>
      <point x="253" y="10"/>
      <point x="252" y="4"/>
      <point x="248" y="0" type="curve"/>
      <point x="236" y="0"/>
      <point x="222" y="0"/>
      <point x="208" y="0" type="curve" smooth="yes"/>
      <point x="179" y="0"/>
      <point x="151" y="0"/>
      <point x="131" y="0" type="curve" smooth="yes"/>
      <point x="101" y="0"/>
      <point x="62" y="-1"/>
      <point x="25" y="-2" type="curve"/>
      <point x="21" y="2"/>
      <point x="20" y="10"/>
      <point x="20" y="17" type="curve" smooth="yes"/>
      <point x="20" y="26"/>
      <point x="21" y="34"/>
      <point x="25" y="38" type="curve"/>
      <point x="96" y="44"/>
      <point x="111" y="76"/>
      <point x="118" y="150" type="curve" smooth="yes"/>
      <point x="167" y="661" type="line" smooth="yes"/>
      <point x="168" y="680"/>
      <point x="170" y="695"/>
      <point x="170" y="706" type="curve" smooth="yes"/>
      <point x="170" y="756"/>
      <point x="152" y="757"/>
      <point x="83" y="761" type="curve"/>
      <point x="79" y="765"/>
      <point x="77" y="774"/>
      <point x="77" y="781" type="curve" smooth="yes"/>
      <point x="77" y="790"/>
      <point x="79" y="798"/>
      <point x="83" y="802" type="curve"/>
      <point x="263" y="800" type="line"/>
      <point x="517" y="170" type="line" smooth="yes"/>
      <point x="521" y="160"/>
      <point x="525" y="154"/>
      <point x="527" y="154" type="curve" smooth="yes"/>
      <point x="529" y="154"/>
      <point x="533" y="159"/>
      <point x="538" y="171" type="curve" smooth="yes"/>
      <point x="801" y="800" type="line"/>
      <point x="963" y="802" type="line"/>
      <point x="967" y="798"/>
      <point x="970" y="790"/>
      <point x="970" y="781" type="curve" smooth="yes"/>
      <point x="970" y="774"/>
      <point x="967" y="765"/>
      <point x="963" y="761" type="curve"/>
      <point x="892" y="757"/>
      <point x="877" y="744"/>
      <point x="877" y="701" type="curve" smooth="yes"/>
      <point x="877" y="692"/>
      <point x="878" y="683"/>
      <point x="878" y="672" type="curve" smooth="yes"/>
      <point x="915" y="150" type="line" smooth="yes"/>
      <point x="922" y="47"/>
      <point x="927" y="42"/>
      <point x="1011" y="38" type="curve"/>
      <point x="1015" y="34"/>
      <point x="1017" y="26"/>
      <point x="1017" y="17" type="curve" smooth="yes"/>
      <point x="1017" y="10"/>
      <point x="1015" y="2"/>
      <point x="1011" y="-2" type="curve"/>
      <point x="970" y="-1"/>
      <point x="912" y="0"/>
      <point x="875" y="0" type="curve" smooth="yes"/>
      <point x="838" y="0"/>
      <point x="789" y="-1"/>
      <point x="743" y="-2" type="curve"/>
      <point x="739" y="2"/>
      <point x="737" y="10"/>
      <point x="737" y="17" type="curve" smooth="yes"/>
      <point x="737" y="26"/>
      <point x="739" y="34"/>
      <point x="743" y="38" type="curve"/>
      <point x="809" y="40"/>
      <point x="823" y="43"/>
      <point x="823" y="98" type="curve" smooth="yes"/>
      <point x="823" y="110"/>
      <point x="818" y="229"/>
    </contour>
  </outline>
</glyph>
<glyph name="N" format="2">
  <advance width="877"/>
  <unicode hex="004E"/>
  <outline>
    <contour>
      <point x="687" y="637" type="line" smooth="yes"/>
      <point x="687" y="751"/>
      <point x="669" y="752"/>
      <point x="582" y="761" type="curve"/>
      <point x="578" y="765"/>
      <point x="575" y="774"/>
      <point x="575" y="781" type="curve" smooth="yes"/>
      <point x="575" y="790"/>
      <point x="578" y="798"/>
      <point x="582" y="802" type="curve"/>
      <point x="637" y="801"/>
      <point x="693" y="800"/>
      <point x="719" y="800" type="curve" smooth="yes"/>
      <point x="749" y="800"/>
      <point x="807" y="801"/>
      <point x="858" y="802" type="curve"/>
      <point x="862" y="798"/>
      <point x="863" y="790"/>
      <point x="863" y="781" type="curve" smooth="yes"/>
      <point x="863" y="774"/>
      <point x="862" y="765"/>
      <point x="858" y="761" type="curve"/>
      <point x="771" y="752"/>
      <point x="750" y="745"/>
      <point x="750" y="635" type="curve" smooth="yes"/>
      <point x="750" y="26" type="line" smooth="yes"/>
      <point x="750" y="2"/>
      <point x="739" y="-12"/>
      <point x="722" y="-12" type="curve" smooth="yes"/>
      <point x="702" y="-12"/>
      <point x="686" y="-2"/>
      <point x="672" y="17" type="curve" smooth="yes"/>
      <point x="239" y="564" type="line" smooth="yes"/>
      <point x="218" y="591"/>
      <point x="204" y="605"/>
      <point x="197" y="605" type="curve" smooth="yes"/>
      <point x="187" y="605"/>
      <point x="187" y="586"/>
      <point x="187" y="544" type="curve" smooth="yes"/>
      <point x="187" y="165" type="line" smooth="yes"/>
      <point x="187" y="52"/>
      <point x="208" y="47"/>
      <point x="295" y="38" type="curve"/>
      <point x="299" y="34"/>
      <point x="300" y="26"/>
      <point x="300" y="17" type="curve" smooth="yes"/>
      <point x="300" y="10"/>
      <point x="299" y="4"/>
      <point x="295" y="0" type="curve"/>
      <point x="278" y="0"/>
      <point x="260" y="0"/>
      <point x="243" y="0" type="curve" smooth="yes"/>
      <point x="208" y="0"/>
      <point x="176" y="0"/>
      <point x="157" y="0" type="curve" smooth="yes"/>
      <point x="137" y="0"/>
      <point x="107" y="0"/>
      <point x="72" y="0" type="curve" smooth="yes"/>
      <point x="55" y="0"/>
      <point x="36" y="0"/>
      <point x="19" y="0" type="curve"/>
      <point x="15" y="4"/>
      <point x="12" y="10"/>
      <point x="12" y="17" type="curve" smooth="yes"/>
      <point x="12" y="26"/>
      <point x="15" y="34"/>
      <point x="19" y="38" type="curve"/>
      <point x="106" y="47"/>
      <point x="126" y="55"/>
      <point x="126" y="165" type="curve" smooth="yes"/>
      <point x="126" y="682" type="line"/>
      <point x="119" y="714"/>
      <point x="82" y="757"/>
      <point x="29" y="761" type="curve"/>
      <point x="25" y="765"/>
      <point x="22" y="774"/>
      <point x="22" y="781" type="curve" smooth="yes"/>
      <point x="22" y="790"/>
      <point x="25" y="798"/>
      <point x="29" y="802" type="curve"/>
      <point x="196" y="800" type="line"/>
      <point x="621" y="260" type="line" smooth="yes"/>
      <point x="657" y="214"/>
      <point x="676" y="192"/>
      <point x="681" y="192" type="curve" smooth="yes"/>
      <point x="688" y="192"/>
      <point x="689" y="201"/>
      <point x="689" y="217" type="curve" smooth="yes"/>
      <point x="689" y="221"/>
      <point x="689" y="225"/>
      <point x="689" y="229" type="curve" smooth="yes"/>
    </contour>
  </outline>
</glyph>
<glyph name="O" format="2">
  <advance width="860"/>
  <unicode hex="004F"/>
  <outline>
    <contour>
      <point x="410" y="771" type="curve" smooth="yes"/>
      <point x="287" y="771"/>
      <point x="165" y="665"/>
      <point x="165" y="405" type="curve" smooth="yes"/>
      <point x="165" y="167"/>
      <point x="308" y="32"/>
      <point x="459" y="32" type="curve" smooth="yes"/>
      <point x="600" y="32"/>
      <point x="707" y="162"/>
      <point x="707" y="384" type="curve" smooth="yes"/>
      <point x="707" y="634"/>
      <point x="574" y="771"/>
    </contour>
    <contour>
      <point x="826" y="408" type="curve" smooth="yes"/>
      <point x="826" y="162"/>
      <point x="671" y="-12"/>
      <point x="434" y="-12" type="curve" smooth="yes"/>
      <point x="223" y="-12"/>
      <point x="46" y="140"/>
      <point x="46" y="384" type="curve" smooth="yes"/>
      <point x="46" y="625"/>
      <point x="186" y="816"/>
      <point x="427" y="816" type="curve" smooth="yes"/>
      <point x="649" y="816"/>
      <point x="826" y="665"/>
    </contour>
  </outline>
</glyph>
<glyph name="P" format="2">
  <advance width="652"/>
  <unicode hex="0050"/>
  <outline>
    <contour>
      <point x="234" y="687" type="curve" smooth="yes"/>
      <point x="234" y="398" type="line"/>
      <point x="248" y="394"/>
      <point x="298" y="392"/>
      <point x="329" y="392" type="curve" smooth="yes"/>
      <point x="449" y="392"/>
      <point x="513" y="446"/>
      <point x="513" y="580" type="curve" smooth="yes"/>
      <point x="513" y="737"/>
      <point x="428" y="766"/>
      <point x="342" y="766" type="curve" smooth="yes"/>
      <point x="253" y="766"/>
      <point x="234" y="723"/>
    </contour>
    <contour>
      <point x="129" y="649" type="line" smooth="yes"/>
      <point x="129" y="752"/>
      <point x="108" y="757"/>
      <point x="21" y="761" type="curve"/>
      <point x="17" y="765"/>
      <point x="15" y="774"/>
      <point x="15" y="781" type="curve" smooth="yes"/>
      <point x="15" y="790"/>
      <point x="17" y="798"/>
      <point x="21" y="802" type="curve"/>
      <point x="71" y="801"/>
      <point x="135" y="800"/>
      <point x="181" y="800" type="curve" smooth="yes"/>
      <point x="231" y="800"/>
      <point x="304" y="808"/>
      <point x="351" y="808" type="curve" smooth="yes"/>
      <point x="580" y="808"/>
      <point x="629" y="676"/>
      <point x="629" y="603" type="curve" smooth="yes"/>
      <point x="629" y="498"/>
      <point x="561" y="350"/>
      <point x="335" y="350" type="curve" smooth="yes"/>
      <point x="292" y="350"/>
      <point x="261" y="353"/>
      <point x="234" y="362" type="curve"/>
      <point x="234" y="151" type="line" smooth="yes"/>
      <point x="234" y="48"/>
      <point x="264" y="43"/>
      <point x="361" y="38" type="curve"/>
      <point x="365" y="34"/>
      <point x="367" y="26"/>
      <point x="367" y="17" type="curve" smooth="yes"/>
      <point x="367" y="10"/>
      <point x="365" y="4"/>
      <point x="361" y="0" type="curve"/>
      <point x="340" y="0"/>
      <point x="318" y="0"/>
      <point x="296" y="0" type="curve" smooth="yes"/>
      <point x="253" y="0"/>
      <point x="211" y="0"/>
      <point x="182" y="0" type="curve" smooth="yes"/>
      <point x="137" y="0"/>
      <point x="77" y="-1"/>
      <point x="21" y="-2" type="curve"/>
      <point x="17" y="2"/>
      <point x="15" y="10"/>
      <point x="15" y="17" type="curve" smooth="yes"/>
      <point x="15" y="26"/>
      <point x="17" y="34"/>
      <point x="21" y="38" type="curve"/>
      <point x="108" y="42"/>
      <point x="129" y="48"/>
      <point x="129" y="151" type="curve" smooth="yes"/>
    </contour>
  </outline>
</glyph>
<glyph name="Q" format="2">
  <advance width="871"/>
  <unicode hex="0051"/>
  <outline>
    <contour>
      <point x="410" y="771" type="curve" smooth="yes"/>
      <point x="287" y="771"/>
      <point x="165" y="665"/>
      <point x="165" y="405" type="curve" smooth="yes"/>
      <point x="165" y="167"/>
      <point x="308" y="32"/>
      <point x="459" y="32" type="curve" smooth="yes"/>
      <point x="600" y="32"/>
      <point x="707" y="162"/>
      <point x="707" y="384" type="curve" smooth="yes"/>
      <point x="707" y="634"/>
      <point x="574" y="771"/>
    </contour>
    <contour>
      <point x="826" y="408" type="curve" smooth="yes"/>
      <point x="826" y="184"/>
      <point x="699" y="26"/>
      <point x="507" y="-6" type="curve"/>
      <point x="467" y="-17"/>
      <point x="407" y="-43"/>
      <point x="345" y="-89" type="curve"/>
      <point x="354" y="-87"/>
      <point x="363" y="-87"/>
      <point x="370" y="-87" type="curve" smooth="yes"/>
      <point x="442" y="-87"/>
      <point x="503" y="-114"/>
      <point x="560" y="-141" type="curve" smooth="yes"/>
      <point x="613" y="-166"/>
      <point x="663" y="-188"/>
      <point x="715" y="-188" type="curve" smooth="yes"/>
      <point x="751" y="-188"/>
      <point x="796" y="-176"/>
      <point x="823" y="-143" type="curve"/>
      <point x="844" y="-157" type="line"/>
      <point x="796" y="-226"/>
      <point x="744" y="-259"/>
      <point x="666" y="-259" type="curve" smooth="yes"/>
      <point x="578" y="-259"/>
      <point x="516" y="-225"/>
      <point x="458" y="-192" type="curve" smooth="yes"/>
      <point x="410" y="-165"/>
      <point x="364" y="-141"/>
      <point x="311" y="-141" type="curve" smooth="yes"/>
      <point x="301" y="-141"/>
      <point x="285" y="-145"/>
      <point x="268" y="-157" type="curve"/>
      <point x="251" y="-174"/>
      <point x="236" y="-194"/>
      <point x="221" y="-215" type="curve"/>
      <point x="172" y="-190" type="line"/>
      <point x="178" y="-180"/>
      <point x="186" y="-170"/>
      <point x="195" y="-161" type="curve" smooth="yes"/>
      <point x="238" y="-108"/>
      <point x="307" y="-50"/>
      <point x="383" y="-10" type="curve"/>
      <point x="196" y="12"/>
      <point x="46" y="160"/>
      <point x="46" y="384" type="curve" smooth="yes"/>
      <point x="46" y="625"/>
      <point x="186" y="816"/>
      <point x="427" y="816" type="curve" smooth="yes"/>
      <point x="649" y="816"/>
      <point x="826" y="665"/>
    </contour>
  </outline>
</glyph>
<glyph name="R" format="2">
  <advance width="751"/>
  <unicode hex="0052"/>
  <outline>
    <contour>
      <point x="337" y="766" type="curve" smooth="yes"/>
      <point x="249" y="766"/>
      <point x="234" y="723"/>
      <point x="234" y="687" type="curve" smooth="yes"/>
      <point x="234" y="403" type="line"/>
      <point x="294" y="403" type="line" smooth="yes"/>
      <point x="414" y="403"/>
      <point x="502" y="438"/>
      <point x="502" y="593" type="curve" smooth="yes"/>
      <point x="502" y="739"/>
      <point x="413" y="766"/>
    </contour>
    <contour>
      <point x="234" y="151" type="line" smooth="yes"/>
      <point x="234" y="48"/>
      <point x="255" y="42"/>
      <point x="342" y="38" type="curve"/>
      <point x="346" y="34"/>
      <point x="347" y="26"/>
      <point x="347" y="17" type="curve" smooth="yes"/>
      <point x="347" y="10"/>
      <point x="346" y="2"/>
      <point x="342" y="-2" type="curve"/>
      <point x="287" y="-1"/>
      <point x="229" y="0"/>
      <point x="182" y="0" type="curve" smooth="yes"/>
      <point x="134" y="0"/>
      <point x="77" y="-1"/>
      <point x="21" y="-2" type="curve"/>
      <point x="17" y="2"/>
      <point x="15" y="10"/>
      <point x="15" y="17" type="curve" smooth="yes"/>
      <point x="15" y="26"/>
      <point x="17" y="34"/>
      <point x="21" y="38" type="curve"/>
      <point x="108" y="42"/>
      <point x="129" y="48"/>
      <point x="129" y="151" type="curve" smooth="yes"/>
      <point x="129" y="649" type="line" smooth="yes"/>
      <point x="129" y="752"/>
      <point x="108" y="757"/>
      <point x="21" y="761" type="curve"/>
      <point x="17" y="765"/>
      <point x="15" y="774"/>
      <point x="15" y="781" type="curve" smooth="yes"/>
      <point x="15" y="790"/>
      <point x="17" y="798"/>
      <point x="21" y="802" type="curve"/>
      <point x="79" y="801"/>
      <point x="138" y="800"/>
      <point x="181" y="800" type="curve" smooth="yes"/>
      <point x="226" y="800"/>
      <point x="278" y="808"/>
      <point x="336" y="808" type="curve" smooth="yes"/>
      <point x="414" y="808"/>
      <point x="491" y="805"/>
      <point x="551" y="749" type="curve" smooth="yes"/>
      <point x="596" y="707"/>
      <point x="616" y="656"/>
      <point x="616" y="594" type="curve" smooth="yes"/>
      <point x="616" y="464"/>
      <point x="504" y="399"/>
      <point x="451" y="382" type="curve"/>
      <point x="608" y="122" type="line" smooth="yes"/>
      <point x="640" y="69"/>
      <point x="671" y="26"/>
      <point x="727" y="26" type="curve"/>
      <point x="729" y="21"/>
      <point x="730" y="15"/>
      <point x="730" y="9" type="curve" smooth="yes"/>
      <point x="730" y="5"/>
      <point x="730" y="0"/>
      <point x="728" y="-4" type="curve"/>
      <point x="716" y="-10"/>
      <point x="695" y="-12"/>
      <point x="676" y="-12" type="curve" smooth="yes"/>
      <point x="602" y="-12"/>
      <point x="548" y="40"/>
      <point x="512" y="98" type="curve" smooth="yes"/>
      <point x="379" y="314" type="line" smooth="yes"/>
      <point x="362" y="343"/>
      <point x="338" y="361"/>
      <point x="234" y="361" type="curve"/>
    </contour>
  </outline>
</glyph>
<glyph name="S" format="2">
  <advance width="582"/>
  <unicode hex="0053"/>
  <outline>
    <contour>
      <point x="486" y="785" type="curve"/>
      <point x="498" y="719"/>
      <point x="507" y="682"/>
      <point x="511" y="622" type="curve"/>
      <point x="504" y="616"/>
      <point x="494" y="614"/>
      <point x="484" y="614" type="curve" smooth="yes"/>
      <point x="479" y="614"/>
      <point x="475" y="614"/>
      <point x="471" y="615" type="curve"/>
      <point x="446" y="697"/>
      <point x="408" y="774"/>
      <point x="288" y="774" type="curve" smooth="yes"/>
      <point x="215" y="774"/>
      <point x="151" y="704"/>
      <point x="151" y="635" type="curve" smooth="yes"/>
      <point x="151" y="531"/>
      <point x="276" y="483"/>
      <point x="350" y="456" type="curve" smooth="yes"/>
      <point x="452" y="418"/>
      <point x="551" y="359"/>
      <point x="551" y="228" type="curve" smooth="yes"/>
      <point x="551" y="149"/>
      <point x="506" y="74"/>
      <point x="434" y="29" type="curve" smooth="yes"/>
      <point x="391" y="2"/>
      <point x="337" y="-12"/>
      <point x="281" y="-12" type="curve" smooth="yes"/>
      <point x="171" y="-12"/>
      <point x="136" y="16"/>
      <point x="58" y="16" type="curve"/>
      <point x="43" y="77"/>
      <point x="38" y="110"/>
      <point x="33" y="205" type="curve"/>
      <point x="40" y="209"/>
      <point x="48" y="211"/>
      <point x="57" y="211" type="curve" smooth="yes"/>
      <point x="63" y="211"/>
      <point x="68" y="209"/>
      <point x="74" y="208" type="curve"/>
      <point x="101" y="84"/>
      <point x="176" y="32"/>
      <point x="291" y="32" type="curve" smooth="yes"/>
      <point x="390" y="32"/>
      <point x="446" y="85"/>
      <point x="446" y="185" type="curve" smooth="yes"/>
      <point x="446" y="307"/>
      <point x="354" y="341"/>
      <point x="280" y="370" type="curve" smooth="yes"/>
      <point x="171" y="412"/>
      <point x="63" y="471"/>
      <point x="63" y="601" type="curve" smooth="yes"/>
      <point x="63" y="732"/>
      <point x="174" y="816"/>
      <point x="299" y="816" type="curve" smooth="yes"/>
      <point x="421" y="816"/>
      <point x="414" y="795"/>
    </contour>
  </outline>
</glyph>
<glyph name="T" format="2">
  <advance width="737"/>
  <unicode hex="0054"/>
  <outline>
    <contour>
      <point x="436" y="154" type="line" smooth="yes"/>
      <point x="436" y="50"/>
      <point x="455" y="42"/>
      <point x="554" y="38" type="curve"/>
      <point x="558" y="34"/>
      <point x="560" y="26"/>
      <point x="560" y="17" type="curve" smooth="yes"/>
      <point x="560" y="10"/>
      <point x="558" y="4"/>
      <point x="554" y="0" type="curve"/>
      <point x="533" y="0"/>
      <point x="513" y="0"/>
      <point x="492" y="0" type="curve" smooth="yes"/>
      <point x="451" y="0"/>
      <point x="413" y="0"/>
      <point x="382" y="0" type="curve" smooth="yes"/>
      <point x="332" y="0"/>
      <point x="269" y="-1"/>
      <point x="208" y="-2" type="curve"/>
      <point x="204" y="2"/>
      <point x="203" y="10"/>
      <point x="203" y="17" type="curve" smooth="yes"/>
      <point x="203" y="26"/>
      <point x="204" y="34"/>
      <point x="208" y="38" type="curve"/>
      <point x="307" y="42"/>
      <point x="329" y="48"/>
      <point x="329" y="151" type="curve" smooth="yes"/>
      <point x="329" y="629" type="line" smooth="yes"/>
      <point x="329" y="705"/>
      <point x="316" y="751"/>
      <point x="270" y="751" type="curve" smooth="yes"/>
      <point x="210" y="751" type="line" smooth="yes"/>
      <point x="128" y="751"/>
      <point x="71" y="719"/>
      <point x="46" y="620" type="curve"/>
      <point x="31" y="620"/>
      <point x="16" y="621"/>
      <point x="4" y="626" type="curve"/>
      <point x="18" y="686"/>
      <point x="30" y="750"/>
      <point x="35" y="806" type="curve" smooth="yes"/>
      <point x="35" y="807"/>
      <point x="38" y="810"/>
      <point x="40" y="810" type="curve" smooth="yes"/>
      <point x="87" y="806"/>
      <point x="234" y="800"/>
      <point x="329" y="800" type="curve" smooth="yes"/>
      <point x="435" y="800" type="line" smooth="yes"/>
      <point x="533" y="800"/>
      <point x="671" y="806"/>
      <point x="713" y="810" type="curve" smooth="yes"/>
      <point x="714" y="810"/>
      <point x="717" y="807"/>
      <point x="717" y="806" type="curve" smooth="yes"/>
      <point x="718" y="750"/>
      <point x="724" y="687"/>
      <point x="733" y="630" type="curve"/>
      <point x="722" y="625"/>
      <point x="705" y="624"/>
      <point x="691" y="624" type="curve"/>
      <point x="670" y="719"/>
      <point x="611" y="751"/>
      <point x="518" y="751" type="curve" smooth="yes"/>
      <point x="491" y="751" type="line" smooth="yes"/>
      <point x="446" y="751"/>
      <point x="434" y="704"/>
      <point x="434" y="625" type="curve" smooth="yes"/>
    </contour>
  </outline>
</glyph>
<glyph name="U" format="2">
  <advance width="819"/>
  <unicode hex="0055"/>
  <outline>
    <contour>
      <point x="213" y="649" type="curve" smooth="yes"/>
      <point x="213" y="330" type="line" smooth="yes"/>
      <point x="213" y="249"/>
      <point x="216" y="155"/>
      <point x="277" y="97" type="curve" smooth="yes"/>
      <point x="314" y="61"/>
      <point x="364" y="38"/>
      <point x="424" y="38" type="curve" smooth="yes"/>
      <point x="634" y="38"/>
      <point x="652" y="204"/>
      <point x="652" y="343" type="curve" smooth="yes"/>
      <point x="652" y="649" type="line" smooth="yes"/>
      <point x="652" y="749"/>
      <point x="631" y="752"/>
      <point x="538" y="761" type="curve"/>
      <point x="534" y="765"/>
      <point x="533" y="774"/>
      <point x="533" y="781" type="curve" smooth="yes"/>
      <point x="533" y="790"/>
      <point x="534" y="798"/>
      <point x="538" y="802" type="curve"/>
      <point x="557" y="802"/>
      <point x="576" y="802"/>
      <point x="595" y="802" type="curve" smooth="yes"/>
      <point x="631" y="802"/>
      <point x="663" y="802"/>
      <point x="682" y="802" type="curve" smooth="yes"/>
      <point x="701" y="802"/>
      <point x="730" y="802"/>
      <point x="761" y="802" type="curve" smooth="yes"/>
      <point x="776" y="802"/>
      <point x="792" y="802"/>
      <point x="808" y="802" type="curve"/>
      <point x="812" y="798"/>
      <point x="813" y="790"/>
      <point x="813" y="781" type="curve" smooth="yes"/>
      <point x="813" y="774"/>
      <point x="812" y="765"/>
      <point x="808" y="761" type="curve"/>
      <point x="734" y="752"/>
      <point x="713" y="748"/>
      <point x="713" y="649" type="curve" smooth="yes"/>
      <point x="713" y="366" type="line" smooth="yes"/>
      <point x="713" y="145"/>
      <point x="652" y="-12"/>
      <point x="398" y="-12" type="curve" smooth="yes"/>
      <point x="270" y="-12"/>
      <point x="108" y="36"/>
      <point x="108" y="289" type="curve" smooth="yes"/>
      <point x="108" y="649" type="line" smooth="yes"/>
      <point x="108" y="752"/>
      <point x="86" y="757"/>
      <point x="12" y="761" type="curve"/>
      <point x="8" y="765"/>
      <point x="7" y="774"/>
      <point x="7" y="781" type="curve" smooth="yes"/>
      <point x="7" y="790"/>
      <point x="8" y="798"/>
      <point x="12" y="802" type="curve"/>
      <point x="60" y="801"/>
      <point x="112" y="800"/>
      <point x="160" y="800" type="curve" smooth="yes"/>
      <point x="208" y="800"/>
      <point x="269" y="801"/>
      <point x="327" y="802" type="curve"/>
      <point x="331" y="798"/>
      <point x="332" y="790"/>
      <point x="332" y="781" type="curve" smooth="yes"/>
      <point x="332" y="774"/>
      <point x="331" y="765"/>
      <point x="327" y="761" type="curve"/>
      <point x="232" y="757"/>
      <point x="213" y="752"/>
    </contour>
  </outline>
</glyph>
<glyph name="V" format="2">
  <advance width="810"/>
  <unicode hex="0056"/>
  <outline>
    <contour>
      <point x="556" y="761" type="curve"/>
      <point x="552" y="765"/>
      <point x="551" y="774"/>
      <point x="551" y="781" type="curve" smooth="yes"/>
      <point x="551" y="790"/>
      <point x="552" y="798"/>
      <point x="556" y="802" type="curve"/>
      <point x="607" y="801"/>
      <point x="662" y="800"/>
      <point x="691" y="800" type="curve" smooth="yes"/>
      <point x="720" y="800"/>
      <point x="763" y="801"/>
      <point x="800" y="802" type="curve"/>
      <point x="804" y="798"/>
      <point x="806" y="790"/>
      <point x="806" y="781" type="curve" smooth="yes"/>
      <point x="806" y="774"/>
      <point x="804" y="765"/>
      <point x="800" y="761" type="curve"/>
      <point x="722" y="752"/>
      <point x="702" y="704"/>
      <point x="678" y="646" type="curve" smooth="yes"/>
      <point x="422" y="14" type="line" smooth="yes"/>
      <point x="415" y="-3"/>
      <point x="406" y="-15"/>
      <point x="392" y="-15" type="curve" smooth="yes"/>
      <point x="380" y="-15"/>
      <point x="370" y="-6"/>
      <point x="363" y="14" type="curve" smooth="yes"/>
      <point x="119" y="649" type="line" smooth="yes"/>
      <point x="86" y="735"/>
      <point x="75" y="755"/>
      <point x="7" y="761" type="curve"/>
      <point x="3" y="765"/>
      <point x="0" y="775"/>
      <point x="0" y="784" type="curve" smooth="yes"/>
      <point x="0" y="791"/>
      <point x="2" y="798"/>
      <point x="6" y="802" type="curve"/>
      <point x="47" y="801"/>
      <point x="90" y="800"/>
      <point x="135" y="800" type="curve" smooth="yes"/>
      <point x="180" y="800"/>
      <point x="235" y="801"/>
      <point x="285" y="802" type="curve"/>
      <point x="289" y="798"/>
      <point x="290" y="790"/>
      <point x="290" y="781" type="curve" smooth="yes"/>
      <point x="290" y="774"/>
      <point x="289" y="765"/>
      <point x="285" y="761" type="curve"/>
      <point x="229" y="755"/>
      <point x="207" y="746"/>
      <point x="207" y="719" type="curve" smooth="yes"/>
      <point x="207" y="705"/>
      <point x="213" y="687"/>
      <point x="222" y="662" type="curve" smooth="yes"/>
      <point x="419" y="157" type="line"/>
      <point x="425" y="157" type="line"/>
      <point x="621" y="655" type="line" smooth="yes"/>
      <point x="630" y="679"/>
      <point x="636" y="697"/>
      <point x="636" y="713" type="curve" smooth="yes"/>
      <point x="636" y="742"/>
      <point x="616" y="757"/>
    </contour>
  </outline>
</glyph>
<glyph name="W" format="2">
  <advance width="1184"/>
  <unicode hex="0057"/>
  <outline>
    <contour>
      <point x="1004" y="701" type="line" smooth="yes"/>
      <point x="1006" y="708"/>
      <point x="1008" y="716"/>
      <point x="1008" y="722" type="curve" smooth="yes"/>
      <point x="1008" y="755"/>
      <point x="966" y="757"/>
      <point x="923" y="761" type="curve"/>
      <point x="919" y="765"/>
      <point x="918" y="774"/>
      <point x="918" y="781" type="curve" smooth="yes"/>
      <point x="918" y="790"/>
      <point x="919" y="798"/>
      <point x="923" y="802" type="curve"/>
      <point x="973" y="801"/>
      <point x="1027" y="800"/>
      <point x="1059" y="800" type="curve" smooth="yes"/>
      <point x="1091" y="800"/>
      <point x="1131" y="801"/>
      <point x="1167" y="802" type="curve"/>
      <point x="1171" y="798"/>
      <point x="1173" y="790"/>
      <point x="1173" y="781" type="curve" smooth="yes"/>
      <point x="1173" y="774"/>
      <point x="1171" y="765"/>
      <point x="1167" y="761" type="curve"/>
      <point x="1099" y="757"/>
      <point x="1076" y="729"/>
      <point x="1060" y="686" type="curve" smooth="yes"/>
      <point x="811" y="17" type="line" smooth="yes"/>
      <point x="805" y="-2"/>
      <point x="796" y="-15"/>
      <point x="782" y="-15" type="curve" smooth="yes"/>
      <point x="767" y="-15"/>
      <point x="761" y="-2"/>
      <point x="754" y="19" type="curve" smooth="yes"/>
      <point x="611" y="430" type="line" smooth="yes"/>
      <point x="604" y="451"/>
      <point x="599" y="465"/>
      <point x="594" y="465" type="curve" smooth="yes"/>
      <point x="588" y="465"/>
      <point x="584" y="459"/>
      <point x="573" y="434" type="curve" smooth="yes"/>
      <point x="388" y="19" type="line" smooth="yes"/>
      <point x="379" y="-2"/>
      <point x="372" y="-15"/>
      <point x="356" y="-15" type="curve" smooth="yes"/>
      <point x="342" y="-15"/>
      <point x="335" y="-1"/>
      <point x="329" y="19" type="curve" smooth="yes"/>
      <point x="95" y="689" type="line" smooth="yes"/>
      <point x="71" y="756"/>
      <point x="63" y="757"/>
      <point x="7" y="761" type="curve"/>
      <point x="3" y="765"/>
      <point x="0" y="774"/>
      <point x="0" y="781" type="curve" smooth="yes"/>
      <point x="0" y="790"/>
      <point x="3" y="798"/>
      <point x="7" y="802" type="curve"/>
      <point x="43" y="801"/>
      <point x="80" y="800"/>
      <point x="123" y="800" type="curve" smooth="yes"/>
      <point x="171" y="800"/>
      <point x="226" y="801"/>
      <point x="267" y="802" type="curve"/>
      <point x="271" y="798"/>
      <point x="273" y="790"/>
      <point x="273" y="781" type="curve" smooth="yes"/>
      <point x="273" y="774"/>
      <point x="271" y="765"/>
      <point x="267" y="761" type="curve"/>
      <point x="231" y="759"/>
      <point x="201" y="755"/>
      <point x="201" y="728" type="curve" smooth="yes"/>
      <point x="201" y="723"/>
      <point x="203" y="716"/>
      <point x="205" y="709" type="curve" smooth="yes"/>
      <point x="386" y="161" type="line"/>
      <point x="392" y="160" type="line"/>
      <point x="552" y="523" type="line" smooth="yes"/>
      <point x="561" y="544"/>
      <point x="563" y="555"/>
      <point x="563" y="567" type="curve" smooth="yes"/>
      <point x="563" y="578"/>
      <point x="559" y="590"/>
      <point x="554" y="605" type="curve" smooth="yes"/>
      <point x="526" y="687" type="line" smooth="yes"/>
      <point x="515" y="719"/>
      <point x="488" y="757"/>
      <point x="422" y="761" type="curve"/>
      <point x="418" y="765"/>
      <point x="417" y="774"/>
      <point x="417" y="781" type="curve" smooth="yes"/>
      <point x="417" y="790"/>
      <point x="418" y="798"/>
      <point x="422" y="802" type="curve"/>
      <point x="462" y="801"/>
      <point x="505" y="800"/>
      <point x="546" y="800" type="curve" smooth="yes"/>
      <point x="596" y="800"/>
      <point x="650" y="801"/>
      <point x="701" y="802" type="curve"/>
      <point x="705" y="798"/>
      <point x="707" y="790"/>
      <point x="707" y="781" type="curve" smooth="yes"/>
      <point x="707" y="774"/>
      <point x="705" y="765"/>
      <point x="701" y="761" type="curve"/>
      <point x="666" y="759"/>
      <point x="630" y="755"/>
      <point x="630" y="718" type="curve" smooth="yes"/>
      <point x="630" y="709"/>
      <point x="632" y="699"/>
      <point x="636" y="687" type="curve" smooth="yes"/>
      <point x="806" y="164" type="line"/>
      <point x="811" y="162" type="line"/>
    </contour>
  </outline>
</glyph>
<glyph name="X" format="2">
  <advance width="799"/>
  <unicode hex="0058"/>
  <outline>
    <contour>
      <point x="667" y="126" type="line" smooth="yes"/>
      <point x="719" y="54"/>
      <point x="740" y="42"/>
      <point x="792" y="38" type="curve"/>
      <point x="796" y="34"/>
      <point x="799" y="25"/>
      <point x="799" y="16" type="curve" smooth="yes"/>
      <point x="799" y="9"/>
      <point x="798" y="2"/>
      <point x="794" y="-2" type="curve"/>
      <point x="757" y="-1"/>
      <point x="715" y="0"/>
      <point x="667" y="0" type="curve" smooth="yes"/>
      <point x="617" y="0"/>
      <point x="572" y="-1"/>
      <point x="526" y="-2" type="curve"/>
      <point x="522" y="2"/>
      <point x="521" y="10"/>
      <point x="521" y="17" type="curve" smooth="yes"/>
      <point x="521" y="26"/>
      <point x="522" y="34"/>
      <point x="526" y="38" type="curve"/>
      <point x="564" y="40"/>
      <point x="580" y="46"/>
      <point x="580" y="58" type="curve" smooth="yes"/>
      <point x="580" y="68"/>
      <point x="571" y="83"/>
      <point x="556" y="105" type="curve" smooth="yes"/>
      <point x="402" y="324" type="line" smooth="yes"/>
      <point x="395" y="334"/>
      <point x="389" y="337"/>
      <point x="384" y="337" type="curve" smooth="yes"/>
      <point x="380" y="337"/>
      <point x="373" y="330"/>
      <point x="366" y="320" type="curve" smooth="yes"/>
      <point x="202" y="91" type="line" smooth="yes"/>
      <point x="193" y="79"/>
      <point x="188" y="68"/>
      <point x="188" y="62" type="curve" smooth="yes"/>
      <point x="188" y="45"/>
      <point x="212" y="40"/>
      <point x="250" y="38" type="curve"/>
      <point x="254" y="34"/>
      <point x="255" y="26"/>
      <point x="255" y="17" type="curve" smooth="yes"/>
      <point x="255" y="10"/>
      <point x="254" y="2"/>
      <point x="250" y="-2" type="curve"/>
      <point x="200" y="-1"/>
      <point x="149" y="0"/>
      <point x="120" y="0" type="curve" smooth="yes"/>
      <point x="91" y="0"/>
      <point x="46" y="-1"/>
      <point x="9" y="-2" type="curve"/>
      <point x="5" y="2"/>
      <point x="2" y="10"/>
      <point x="2" y="17" type="curve" smooth="yes"/>
      <point x="2" y="26"/>
      <point x="5" y="34"/>
      <point x="9" y="38" type="curve"/>
      <point x="65" y="43"/>
      <point x="104" y="58"/>
      <point x="146" y="115" type="curve" smooth="yes"/>
      <point x="330" y="361" type="line" smooth="yes"/>
      <point x="337" y="371"/>
      <point x="342" y="382"/>
      <point x="342" y="389" type="curve" smooth="yes"/>
      <point x="342" y="401"/>
      <point x="335" y="412"/>
      <point x="325" y="427" type="curve" smooth="yes"/>
      <point x="149" y="678" type="line" smooth="yes"/>
      <point x="97" y="751"/>
      <point x="74" y="757"/>
      <point x="22" y="761" type="curve"/>
      <point x="18" y="765"/>
      <point x="16" y="775"/>
      <point x="16" y="784" type="curve" smooth="yes"/>
      <point x="16" y="791"/>
      <point x="17" y="798"/>
      <point x="21" y="802" type="curve"/>
      <point x="58" y="801"/>
      <point x="100" y="800"/>
      <point x="148" y="800" type="curve" smooth="yes"/>
      <point x="198" y="800"/>
      <point x="243" y="801"/>
      <point x="289" y="802" type="curve"/>
      <point x="293" y="798"/>
      <point x="295" y="790"/>
      <point x="295" y="781" type="curve" smooth="yes"/>
      <point x="295" y="774"/>
      <point x="293" y="765"/>
      <point x="289" y="761" type="curve"/>
      <point x="251" y="759"/>
      <point x="234" y="754"/>
      <point x="234" y="742" type="curve" smooth="yes"/>
      <point x="234" y="732"/>
      <point x="244" y="715"/>
      <point x="260" y="694" type="curve"/>
      <point x="397" y="491" type="line" smooth="yes"/>
      <point x="403" y="482"/>
      <point x="408" y="477"/>
      <point x="412" y="477" type="curve" smooth="yes"/>
      <point x="417" y="477"/>
      <point x="425" y="481"/>
      <point x="432" y="492" type="curve" smooth="yes"/>
      <point x="584" y="709" type="line" smooth="yes"/>
      <point x="593" y="721"/>
      <point x="596" y="731"/>
      <point x="596" y="738" type="curve" smooth="yes"/>
      <point x="596" y="755"/>
      <point x="574" y="759"/>
      <point x="536" y="761" type="curve"/>
      <point x="532" y="765"/>
      <point x="531" y="774"/>
      <point x="531" y="781" type="curve" smooth="yes"/>
      <point x="531" y="790"/>
      <point x="532" y="798"/>
      <point x="536" y="802" type="curve"/>
      <point x="586" y="801"/>
      <point x="637" y="800"/>
      <point x="666" y="800" type="curve" smooth="yes"/>
      <point x="695" y="800"/>
      <point x="740" y="801"/>
      <point x="777" y="802" type="curve"/>
      <point x="781" y="798"/>
      <point x="784" y="790"/>
      <point x="784" y="781" type="curve" smooth="yes"/>
      <point x="784" y="774"/>
      <point x="781" y="765"/>
      <point x="777" y="761" type="curve"/>
      <point x="721" y="756"/>
      <point x="683" y="740"/>
      <point x="640" y="684" type="curve" smooth="yes"/>
      <point x="470" y="465" type="line" smooth="yes"/>
      <point x="459" y="450"/>
      <point x="458" y="439"/>
      <point x="458" y="428" type="curve" smooth="yes"/>
      <point x="458" y="416"/>
      <point x="465" y="403"/>
      <point x="477" y="387" type="curve" smooth="yes"/>
    </contour>
  </outline>
</glyph>
<glyph name="Y" format="2">
  <advance width="714"/>
  <unicode hex="0059"/>
  <outline>
    <contour>
      <point x="418" y="151" type="line" smooth="yes"/>
      <point x="418" y="48"/>
      <point x="439" y="42"/>
      <point x="538" y="38" type="curve"/>
      <point x="542" y="34"/>
      <point x="543" y="26"/>
      <point x="543" y="17" type="curve" smooth="yes"/>
      <point x="543" y="10"/>
      <point x="542" y="2"/>
      <point x="538" y="-2" type="curve"/>
      <point x="476" y="-1"/>
      <point x="414" y="0"/>
      <point x="366" y="0" type="curve" smooth="yes"/>
      <point x="318" y="0"/>
      <point x="253" y="-1"/>
      <point x="192" y="-2" type="curve"/>
      <point x="188" y="2"/>
      <point x="186" y="10"/>
      <point x="186" y="17" type="curve" smooth="yes"/>
      <point x="186" y="26"/>
      <point x="188" y="34"/>
      <point x="192" y="38" type="curve"/>
      <point x="291" y="42"/>
      <point x="312" y="48"/>
      <point x="312" y="151" type="curve" smooth="yes"/>
      <point x="312" y="309" type="line" smooth="yes"/>
      <point x="312" y="355"/>
      <point x="307" y="367"/>
      <point x="286" y="404" type="curve" smooth="yes"/>
      <point x="124" y="678" type="line" smooth="yes"/>
      <point x="81" y="750"/>
      <point x="59" y="757"/>
      <point x="7" y="761" type="curve"/>
      <point x="3" y="765"/>
      <point x="0" y="775"/>
      <point x="0" y="784" type="curve" smooth="yes"/>
      <point x="0" y="791"/>
      <point x="2" y="798"/>
      <point x="6" y="802" type="curve"/>
      <point x="43" y="801"/>
      <point x="85" y="800"/>
      <point x="133" y="800" type="curve" smooth="yes"/>
      <point x="183" y="800"/>
      <point x="229" y="801"/>
      <point x="274" y="802" type="curve"/>
      <point x="278" y="798"/>
      <point x="280" y="790"/>
      <point x="280" y="781" type="curve" smooth="yes"/>
      <point x="280" y="774"/>
      <point x="278" y="765"/>
      <point x="274" y="761" type="curve"/>
      <point x="231" y="759"/>
      <point x="212" y="754"/>
      <point x="212" y="737" type="curve" smooth="yes"/>
      <point x="212" y="727"/>
      <point x="218" y="713"/>
      <point x="229" y="693" type="curve" smooth="yes"/>
      <point x="373" y="439" type="line" smooth="yes"/>
      <point x="379" y="429"/>
      <point x="384" y="423"/>
      <point x="388" y="423" type="curve" smooth="yes"/>
      <point x="392" y="423"/>
      <point x="396" y="427"/>
      <point x="401" y="436" type="curve" smooth="yes"/>
      <point x="538" y="696" type="line" smooth="yes"/>
      <point x="545" y="711"/>
      <point x="549" y="722"/>
      <point x="549" y="732" type="curve" smooth="yes"/>
      <point x="549" y="753"/>
      <point x="528" y="759"/>
      <point x="490" y="761" type="curve"/>
      <point x="486" y="765"/>
      <point x="484" y="774"/>
      <point x="484" y="781" type="curve" smooth="yes"/>
      <point x="484" y="790"/>
      <point x="486" y="798"/>
      <point x="490" y="802" type="curve"/>
      <point x="530" y="801"/>
      <point x="574" y="800"/>
      <point x="603" y="800" type="curve" smooth="yes"/>
      <point x="632" y="800"/>
      <point x="671" y="801"/>
      <point x="706" y="802" type="curve"/>
      <point x="710" y="798"/>
      <point x="712" y="790"/>
      <point x="712" y="781" type="curve" smooth="yes"/>
      <point x="712" y="774"/>
      <point x="710" y="765"/>
      <point x="706" y="761" type="curve"/>
      <point x="650" y="756"/>
      <point x="623" y="745"/>
      <point x="588" y="682" type="curve" smooth="yes"/>
      <point x="439" y="414" type="line" smooth="yes"/>
      <point x="419" y="377"/>
      <point x="418" y="357"/>
      <point x="418" y="320" type="curve" smooth="yes"/>
    </contour>
  </outline>
</glyph>
<glyph name="Z" format="2">
  <advance width="731"/>
  <unicode hex="005A"/>
  <outline>
    <contour>
      <point x="683" y="0" type="curve"/>
      <point x="683" y="0"/>
      <point x="559" y="0"/>
      <point x="526" y="0" type="curve" smooth="yes"/>
      <point x="74" y="0" type="line" smooth="yes"/>
      <point x="57" y="0"/>
      <point x="51" y="7"/>
      <point x="51" y="19" type="curve" smooth="yes"/>
      <point x="51" y="28"/>
      <point x="54" y="37"/>
      <point x="61" y="47" type="curve" smooth="yes"/>
      <point x="187" y="235"/>
      <point x="423" y="565"/>
      <point x="543" y="718" type="curve" smooth="yes"/>
      <point x="549" y="727"/>
      <point x="553" y="734"/>
      <point x="553" y="740" type="curve" smooth="yes"/>
      <point x="553" y="747"/>
      <point x="548" y="751"/>
      <point x="541" y="751" type="curve" smooth="yes"/>
      <point x="279" y="746" type="line" smooth="yes"/>
      <point x="186" y="745"/>
      <point x="139" y="701"/>
      <point x="113" y="615" type="curve"/>
      <point x="99" y="615"/>
      <point x="88" y="617"/>
      <point x="76" y="621" type="curve"/>
      <point x="86" y="672"/>
      <point x="98" y="743"/>
      <point x="103" y="810" type="curve"/>
      <point x="149" y="806"/>
      <point x="269" y="800"/>
      <point x="327" y="800" type="curve" smooth="yes"/>
      <point x="601" y="800" type="line" smooth="yes"/>
      <point x="638" y="800"/>
      <point x="677" y="802"/>
      <point x="692" y="802" type="curve" smooth="yes"/>
      <point x="702" y="802"/>
      <point x="708" y="798"/>
      <point x="708" y="789" type="curve" smooth="yes"/>
      <point x="708" y="775"/>
      <point x="704" y="766"/>
      <point x="678" y="733" type="curve" smooth="yes"/>
      <point x="532" y="545"/>
      <point x="304" y="220"/>
      <point x="213" y="89" type="curve" smooth="yes"/>
      <point x="207" y="78"/>
      <point x="203" y="70"/>
      <point x="203" y="64" type="curve" smooth="yes"/>
      <point x="203" y="53"/>
      <point x="212" y="47"/>
      <point x="232" y="47" type="curve" smooth="yes"/>
      <point x="233" y="47"/>
      <point x="233" y="47"/>
      <point x="234" y="47" type="curve" smooth="yes"/>
      <point x="474" y="52" type="line" smooth="yes"/>
      <point x="609" y="54"/>
      <point x="640" y="123"/>
      <point x="678" y="211" type="curve"/>
      <point x="694" y="211"/>
      <point x="708" y="207"/>
      <point x="717" y="205" type="curve"/>
      <point x="702" y="141"/>
      <point x="689" y="69"/>
    </contour>
  </outline>
</glyph>
<glyph name="bracketleft" format="2">
  <advance width="237"/>
  <unicode hex="005B"/>
  <outline>
    <contour>
      <point x="50" y="-97" type="line"/>
      <point x="50" y="801" type="line"/>
      <point x="209" y="801" type="line"/>
      <point x="209" y="785" type="line"/>
      <point x="96" y="785" type="line"/>
      <point x="96" y="-82" type="line"/>
      <point x="209" y="-82" type="line"/>
      <point x="209" y="-97" type="line"/>
    </contour>
  </outline>
</glyph>
<glyph name="backslash" format="2">
  <advance width="444"/>
  <unicode hex="005C"/>
  <outline>
    <contour>
      <point x="360.8" y="-161.6" type="line"/>
      <point x="316.8" y="-161.6" type="line"/>
      <point x="4.7998" y="810.4" type="line"/>
      <point x="48.7998" y="810.4" type="line"/>
    </contour>
  </outline>
</glyph>
<glyph name="bracketright" format="2">
  <advance width="237"/>
  <unicode hex="005D"/>
  <outline>
    <contour>
      <point x="14" y="-98" type="line"/>
      <point x="14" y="-83" type="line"/>
      <point x="127" y="-83" type="line"/>
      <point x="127" y="784" type="line"/>
      <point x="14" y="784" type="line"/>
      <point x="14" y="800" type="line"/>
      <point x="173" y="800" type="line"/>
      <point x="173" y="-98" type="line"/>
    </contour>
  </outline>
</glyph>
<glyph name="asciicircum" format="2">
  <advance width="360"/>
  <unicode hex="005E"/>
  <outline>
    <contour>
      <point x="179" y="692" type="line"/>
      <point x="98" y="494" type="line"/>
      <point x="62" y="494" type="line"/>
      <point x="163" y="737" type="line"/>
      <point x="197" y="737" type="line"/>
      <point x="298" y="494" type="line"/>
      <point x="262" y="494" type="line"/>
    </contour>
  </outline>
</glyph>
<glyph name="underscore" format="2">
  <advance width="300"/>
  <unicode hex="005F"/>
  <outline>
    <contour>
      <point x="263.2" y="76.7998" type="line" smooth="yes"/>
      <point x="284.8" y="76.7998"/>
      <point x="288.8" y="59.2002"/>
      <point x="288.8" y="37.5996" type="curve" smooth="yes"/>
      <point x="288.8" y="16"/>
      <point x="284.8" y="0"/>
      <point x="263.2" y="0" type="curve" smooth="yes"/>
      <point x="36.7998" y="0" type="line" smooth="yes"/>
      <point x="15.2002" y="0"/>
      <point x="11.2002" y="16"/>
      <point x="11.2002" y="37.5996" type="curve" smooth="yes"/>
      <point x="11.2002" y="59.2002"/>
      <point x="15.2002" y="76.7998"/>
      <point x="36.7998" y="76.7998" type="curve" smooth="yes"/>
    </contour>
  </outline>
</glyph>
<glyph name="grave" format="2">
  <advance width="156"/>
  <unicode hex="0060"/>
  <outline>
    <contour>
      <point x="117.6" y="404.8" type="line"/>
      <point x="0.799805" y="572" type="line" smooth="yes"/>
      <point x="0" y="572.8"/>
      <point x="0.799805" y="572.8"/>
      <point x="0.799805" y="573.6" type="curve" smooth="yes"/>
      <point x="0.799805" y="575.2"/>
      <point x="1.59961" y="575.2"/>
      <point x="3.2002" y="575.2" type="curve" smooth="yes"/>
      <point x="4" y="575.2"/>
      <point x="4.7998" y="575.2"/>
      <point x="5.59961" y="575.2" type="curve" smooth="yes"/>
      <point x="57.5996" y="575.2" type="line"/>
      <point x="146.4" y="411.2" type="line" smooth="yes"/>
      <point x="147.2" y="410.4"/>
      <point x="147.2" y="409.6"/>
      <point x="147.2" y="408.8" type="curve" smooth="yes"/>
      <point x="147.2" y="406.4"/>
      <point x="146.4" y="404.8"/>
      <point x="144" y="404.8" type="curve" smooth="yes"/>
    </contour>
  </outline>
</glyph>
<glyph name="a" format="2">
  <advance width="575"/>
  <unicode hex="0061"/>
  <outline>
    <contour>
      <point x="350" y="303" type="line"/>
      <point x="250" y="277" type="line" smooth="yes"/>
      <point x="158" y="253"/>
      <point x="134" y="196"/>
      <point x="134" y="140" type="curve" smooth="yes"/>
      <point x="134" y="102"/>
      <point x="161" y="52"/>
      <point x="223" y="52" type="curve" smooth="yes"/>
      <point x="258" y="52"/>
      <point x="300" y="81"/>
      <point x="332" y="107" type="curve" smooth="yes"/>
      <point x="342" y="114"/>
      <point x="350" y="123"/>
      <point x="350" y="139" type="curve" smooth="yes"/>
    </contour>
    <contour>
      <point x="146" y="465" type="curve" smooth="yes"/>
      <point x="146" y="438"/>
      <point x="156" y="440"/>
      <point x="156" y="418" type="curve" smooth="yes"/>
      <point x="156" y="402"/>
      <point x="134" y="376"/>
      <point x="97" y="376" type="curve" smooth="yes"/>
      <point x="70" y="376"/>
      <point x="55" y="390"/>
      <point x="55" y="420" type="curve" smooth="yes"/>
      <point x="55" y="491"/>
      <point x="156" y="558"/>
      <point x="258" y="558" type="curve" smooth="yes"/>
      <point x="350" y="558"/>
      <point x="446" y="524"/>
      <point x="446" y="348" type="curve" smooth="yes"/>
      <point x="446" y="166" type="line" smooth="yes"/>
      <point x="446" y="109"/>
      <point x="447" y="61"/>
      <point x="484" y="61" type="curve" smooth="yes"/>
      <point x="499" y="61"/>
      <point x="519" y="74"/>
      <point x="528" y="81" type="curve"/>
      <point x="543" y="72"/>
      <point x="549" y="62"/>
      <point x="551" y="47" type="curve"/>
      <point x="525" y="22"/>
      <point x="480" y="1"/>
      <point x="432" y="1" type="curve" smooth="yes"/>
      <point x="370" y="1"/>
      <point x="357" y="35"/>
      <point x="350" y="73" type="curve"/>
      <point x="347" y="73" type="line"/>
      <point x="322" y="53" type="line" smooth="yes"/>
      <point x="267" y="11"/>
      <point x="229" y="1"/>
      <point x="186" y="1" type="curve" smooth="yes"/>
      <point x="99" y="1"/>
      <point x="30" y="33"/>
      <point x="30" y="135" type="curve" smooth="yes"/>
      <point x="30" y="219"/>
      <point x="117" y="285"/>
      <point x="236" y="315" type="curve" smooth="yes"/>
      <point x="342" y="341" type="line" smooth="yes"/>
      <point x="344" y="342"/>
      <point x="350" y="347"/>
      <point x="350" y="356" type="curve" smooth="yes"/>
      <point x="350" y="496"/>
      <point x="290" y="517"/>
      <point x="248" y="517" type="curve" smooth="yes"/>
      <point x="201" y="517"/>
      <point x="146" y="505"/>
    </contour>
  </outline>
</glyph>
<glyph name="b" format="2">
  <advance width="582"/>
  <unicode hex="0062"/>
  <outline>
    <contour>
      <point x="216" y="463" type="curve" smooth="yes"/>
      <point x="200" y="449"/>
      <point x="195" y="436"/>
      <point x="195" y="410" type="curve" smooth="yes"/>
      <point x="195" y="100" type="line"/>
      <point x="220" y="69"/>
      <point x="246" y="42"/>
      <point x="284" y="42" type="curve" smooth="yes"/>
      <point x="402" y="42"/>
      <point x="459" y="149"/>
      <point x="459" y="290" type="curve" smooth="yes"/>
      <point x="459" y="410"/>
      <point x="397" y="502"/>
      <point x="321" y="502" type="curve" smooth="yes"/>
      <point x="285" y="502"/>
      <point x="248" y="492"/>
    </contour>
    <contour>
      <point x="207" y="501" type="curve" smooth="yes"/>
      <point x="245" y="536"/>
      <point x="293" y="557"/>
      <point x="346" y="557" type="curve" smooth="yes"/>
      <point x="454" y="557"/>
      <point x="565" y="463"/>
      <point x="565" y="312" type="curve" smooth="yes"/>
      <point x="565" y="115"/>
      <point x="417" y="0"/>
      <point x="291" y="0" type="curve" smooth="yes"/>
      <point x="246" y="0"/>
      <point x="211" y="6"/>
      <point x="182" y="31" type="curve" smooth="yes"/>
      <point x="175" y="36"/>
      <point x="170" y="38"/>
      <point x="166" y="38" type="curve" smooth="yes"/>
      <point x="160" y="38"/>
      <point x="155" y="34"/>
      <point x="148" y="27" type="curve" smooth="yes"/>
      <point x="139" y="16"/>
      <point x="126" y="5"/>
      <point x="119" y="-2" type="curve"/>
      <point x="104" y="-2"/>
      <point x="98" y="2"/>
      <point x="92" y="12" type="curve"/>
      <point x="96" y="29"/>
      <point x="97" y="52"/>
      <point x="97" y="100" type="curve" smooth="yes"/>
      <point x="97" y="706" type="line" smooth="yes"/>
      <point x="97" y="810"/>
      <point x="81" y="803"/>
      <point x="17" y="807" type="curve"/>
      <point x="11" y="812"/>
      <point x="9" y="826"/>
      <point x="9" y="836" type="curve" smooth="yes"/>
      <point x="9" y="840"/>
      <point x="9" y="842"/>
      <point x="10" y="844" type="curve"/>
      <point x="60" y="848"/>
      <point x="153" y="866"/>
      <point x="184" y="878" type="curve"/>
      <point x="195" y="878"/>
      <point x="200" y="875"/>
      <point x="200" y="866" type="curve" smooth="yes"/>
      <point x="200" y="866"/>
      <point x="195" y="816"/>
      <point x="195" y="735" type="curve" smooth="yes"/>
      <point x="195" y="507" type="line" smooth="yes"/>
      <point x="195" y="496"/>
      <point x="198" y="494"/>
    </contour>
  </outline>
</glyph>
<glyph name="c" format="2">
  <advance width="503"/>
  <unicode hex="0063"/>
  <outline>
    <contour>
      <point x="489" y="125" type="curve"/>
      <point x="427" y="23"/>
      <point x="359" y="0"/>
      <point x="285" y="0" type="curve" smooth="yes"/>
      <point x="129" y="0"/>
      <point x="40" y="110"/>
      <point x="40" y="270" type="curve" smooth="yes"/>
      <point x="40" y="446"/>
      <point x="171" y="557"/>
      <point x="295" y="557" type="curve" smooth="yes"/>
      <point x="414" y="557"/>
      <point x="484" y="507"/>
      <point x="484" y="439" type="curve" smooth="yes"/>
      <point x="484" y="401"/>
      <point x="449" y="384"/>
      <point x="424" y="384" type="curve" smooth="yes"/>
      <point x="397" y="384"/>
      <point x="377" y="396"/>
      <point x="377" y="429" type="curve" smooth="yes"/>
      <point x="377" y="472"/>
      <point x="362" y="516"/>
      <point x="288" y="516" type="curve" smooth="yes"/>
      <point x="206" y="516"/>
      <point x="146" y="434"/>
      <point x="146" y="298" type="curve" smooth="yes"/>
      <point x="146" y="153"/>
      <point x="223" y="61"/>
      <point x="312" y="61" type="curve" smooth="yes"/>
      <point x="367" y="61"/>
      <point x="419" y="88"/>
      <point x="461" y="143" type="curve"/>
      <point x="473" y="143"/>
      <point x="484" y="136"/>
    </contour>
  </outline>
</glyph>
<glyph name="d" format="2">
  <advance width="627"/>
  <unicode hex="0064"/>
  <outline>
    <contour>
      <point x="418" y="166" type="curve" smooth="yes"/>
      <point x="418" y="402" type="line" smooth="yes"/>
      <point x="418" y="440"/>
      <point x="414" y="449"/>
      <point x="397" y="469" type="curve" smooth="yes"/>
      <point x="372" y="498"/>
      <point x="341" y="513"/>
      <point x="296" y="513" type="curve" smooth="yes"/>
      <point x="271" y="513"/>
      <point x="219" y="509"/>
      <point x="181" y="451" type="curve" smooth="yes"/>
      <point x="162" y="425"/>
      <point x="145" y="375"/>
      <point x="145" y="286" type="curve" smooth="yes"/>
      <point x="145" y="131"/>
      <point x="214" y="58"/>
      <point x="281" y="58" type="curve" smooth="yes"/>
      <point x="312" y="58"/>
      <point x="352" y="78"/>
      <point x="398" y="118" type="curve" smooth="yes"/>
      <point x="415" y="133"/>
      <point x="418" y="142"/>
    </contour>
    <contour>
      <point x="405" y="77" type="curve" smooth="yes"/>
      <point x="344" y="27"/>
      <point x="297" y="0"/>
      <point x="249" y="0" type="curve" smooth="yes"/>
      <point x="115" y="0"/>
      <point x="38" y="111"/>
      <point x="38" y="264" type="curve" smooth="yes"/>
      <point x="38" y="356"/>
      <point x="71" y="429"/>
      <point x="124" y="482" type="curve"/>
      <point x="174" y="529"/>
      <point x="228" y="557"/>
      <point x="310" y="557" type="curve" smooth="yes"/>
      <point x="351" y="557"/>
      <point x="402" y="536"/>
      <point x="407" y="536" type="curve" smooth="yes"/>
      <point x="416" y="536"/>
      <point x="418" y="538"/>
      <point x="418" y="547" type="curve" smooth="yes"/>
      <point x="418" y="706" type="line" smooth="yes"/>
      <point x="418" y="805"/>
      <point x="404" y="807"/>
      <point x="347" y="807" type="curve" smooth="yes"/>
      <point x="339" y="807" type="line"/>
      <point x="334" y="812"/>
      <point x="330" y="825"/>
      <point x="330" y="835" type="curve" smooth="yes"/>
      <point x="330" y="839"/>
      <point x="331" y="842"/>
      <point x="331" y="844" type="curve"/>
      <point x="381" y="844"/>
      <point x="474" y="866"/>
      <point x="505" y="878" type="curve"/>
      <point x="516" y="878"/>
      <point x="521" y="875"/>
      <point x="521" y="866" type="curve" smooth="yes"/>
      <point x="521" y="866"/>
      <point x="516" y="816"/>
      <point x="516" y="735" type="curve" smooth="yes"/>
      <point x="516" y="174" type="line" smooth="yes"/>
      <point x="516" y="113"/>
      <point x="527" y="83"/>
      <point x="606" y="83" type="curve"/>
      <point x="610" y="79"/>
      <point x="613" y="72"/>
      <point x="613" y="66" type="curve" smooth="yes"/>
      <point x="613" y="60"/>
      <point x="610" y="54"/>
      <point x="606" y="50" type="curve"/>
      <point x="530" y="41"/>
      <point x="487" y="22"/>
      <point x="460" y="0" type="curve"/>
      <point x="456" y="-2"/>
      <point x="453" y="-2"/>
      <point x="449" y="-2" type="curve" smooth="yes"/>
      <point x="445" y="-2"/>
      <point x="441" y="-2"/>
      <point x="436" y="0" type="curve"/>
      <point x="436" y="0"/>
      <point x="427" y="42"/>
      <point x="423" y="73" type="curve" smooth="yes"/>
      <point x="423" y="82"/>
      <point x="411" y="82"/>
    </contour>
  </outline>
</glyph>
<glyph name="e" format="2">
  <advance width="542"/>
  <unicode hex="0065"/>
  <outline>
    <contour>
      <point x="151" y="362" type="curve"/>
      <point x="376" y="366" type="line" smooth="yes"/>
      <point x="390" y="366"/>
      <point x="394" y="372"/>
      <point x="394" y="383" type="curve" smooth="yes"/>
      <point x="394" y="487"/>
      <point x="338" y="513"/>
      <point x="291" y="513" type="curve" smooth="yes"/>
      <point x="261" y="513"/>
      <point x="175" y="502"/>
    </contour>
    <contour>
      <point x="291" y="0" type="curve" smooth="yes"/>
      <point x="130" y="0"/>
      <point x="43" y="108"/>
      <point x="43" y="263" type="curve" smooth="yes"/>
      <point x="43" y="451"/>
      <point x="183" y="554"/>
      <point x="291" y="554" type="curve" smooth="yes"/>
      <point x="463" y="554"/>
      <point x="501" y="443"/>
      <point x="501" y="339" type="curve" smooth="yes"/>
      <point x="501" y="325"/>
      <point x="492" y="317"/>
      <point x="477" y="317" type="curve" smooth="yes"/>
      <point x="148" y="320" type="line"/>
      <point x="148" y="248"/>
      <point x="162" y="191"/>
      <point x="187" y="150" type="curve" smooth="yes"/>
      <point x="225" y="87"/>
      <point x="277" y="61"/>
      <point x="322" y="61" type="curve" smooth="yes"/>
      <point x="394" y="61"/>
      <point x="430" y="81"/>
      <point x="476" y="128" type="curve"/>
      <point x="491" y="127"/>
      <point x="498" y="120"/>
      <point x="502" y="108" type="curve"/>
      <point x="452" y="44"/>
      <point x="385" y="0"/>
    </contour>
  </outline>
</glyph>
<glyph name="f" format="2">
  <advance width="480"/>
  <unicode hex="0066"/>
  <outline>
    <contour>
      <point x="211" y="151" type="line" smooth="yes"/>
      <point x="211" y="48"/>
      <point x="218" y="43"/>
      <point x="315" y="38" type="curve"/>
      <point x="319" y="34"/>
      <point x="321" y="26"/>
      <point x="321" y="17" type="curve" smooth="yes"/>
      <point x="321" y="8"/>
      <point x="319" y="2"/>
      <point x="315" y="-2" type="curve"/>
      <point x="272" y="-1"/>
      <point x="212" y="0"/>
      <point x="162" y="0" type="curve" smooth="yes"/>
      <point x="112" y="0"/>
      <point x="69" y="-1"/>
      <point x="26" y="-2" type="curve"/>
      <point x="22" y="2"/>
      <point x="21" y="8"/>
      <point x="21" y="17" type="curve" smooth="yes"/>
      <point x="21" y="26"/>
      <point x="22" y="34"/>
      <point x="26" y="38" type="curve"/>
      <point x="93" y="43"/>
      <point x="113" y="48"/>
      <point x="113" y="151" type="curve" smooth="yes"/>
      <point x="113" y="484" type="line"/>
      <point x="27" y="484" type="line" smooth="yes"/>
      <point x="22" y="484"/>
      <point x="21" y="485"/>
      <point x="21" y="491" type="curve" smooth="yes"/>
      <point x="21" y="507" type="line" smooth="yes"/>
      <point x="21" y="517"/>
      <point x="28" y="532"/>
      <point x="50" y="532" type="curve" smooth="yes"/>
      <point x="113" y="532" type="line"/>
      <point x="113" y="582" type="line" smooth="yes"/>
      <point x="113" y="775"/>
      <point x="228" y="866"/>
      <point x="332" y="866" type="curve" smooth="yes"/>
      <point x="379" y="866"/>
      <point x="412" y="861"/>
      <point x="444" y="839" type="curve"/>
      <point x="470" y="819"/>
      <point x="484" y="797"/>
      <point x="484" y="776" type="curve" smooth="yes"/>
      <point x="484" y="751"/>
      <point x="454" y="725"/>
      <point x="433" y="725" type="curve" smooth="yes"/>
      <point x="407" y="725"/>
      <point x="393" y="743"/>
      <point x="383" y="765" type="curve" smooth="yes"/>
      <point x="366" y="808"/>
      <point x="346" y="823"/>
      <point x="309" y="823" type="curve" smooth="yes"/>
      <point x="268" y="823"/>
      <point x="211" y="794"/>
      <point x="211" y="603" type="curve" smooth="yes"/>
      <point x="211" y="532" type="line"/>
      <point x="345" y="532" type="line" smooth="yes"/>
      <point x="351" y="532"/>
      <point x="355" y="530"/>
      <point x="355" y="525" type="curve" smooth="yes"/>
      <point x="355" y="500" type="line" smooth="yes"/>
      <point x="355" y="489"/>
      <point x="337" y="484"/>
      <point x="326" y="484" type="curve" smooth="yes"/>
      <point x="211" y="484" type="line"/>
    </contour>
  </outline>
</glyph>
<glyph name="g" format="2">
  <advance width="623"/>
  <unicode hex="0067"/>
  <outline>
    <contour>
      <point x="397" y="361" type="curve" smooth="yes"/>
      <point x="397" y="464"/>
      <point x="354" y="521"/>
      <point x="275" y="521" type="curve" smooth="yes"/>
      <point x="208" y="521"/>
      <point x="176" y="476"/>
      <point x="176" y="389" type="curve" smooth="yes"/>
      <point x="176" y="310"/>
      <point x="189" y="222"/>
      <point x="293" y="222" type="curve" smooth="yes"/>
      <point x="338" y="222"/>
      <point x="397" y="246"/>
    </contour>
    <contour>
      <point x="164" y="2" type="curve"/>
      <point x="129" y="-41"/>
      <point x="126" y="-72"/>
      <point x="126" y="-114" type="curve" smooth="yes"/>
      <point x="126" y="-198"/>
      <point x="230" y="-234"/>
      <point x="275" y="-234" type="curve" smooth="yes"/>
      <point x="387" y="-234"/>
      <point x="518" y="-187"/>
      <point x="518" y="-98" type="curve" smooth="yes"/>
      <point x="518" y="-66"/>
      <point x="504" y="-48"/>
      <point x="454" y="-21" type="curve" smooth="yes"/>
      <point x="419" y="-1"/>
      <point x="367" y="0"/>
      <point x="305" y="0" type="curve" smooth="yes"/>
      <point x="288" y="0"/>
      <point x="253" y="-4"/>
      <point x="213" y="-4" type="curve" smooth="yes"/>
      <point x="198" y="-4"/>
      <point x="179" y="-2"/>
    </contour>
    <contour>
      <point x="233" y="69" type="curve" smooth="yes"/>
      <point x="263" y="69"/>
      <point x="323" y="76"/>
      <point x="350" y="76" type="curve" smooth="yes"/>
      <point x="397" y="76"/>
      <point x="484" y="75"/>
      <point x="531" y="35" type="curve" smooth="yes"/>
      <point x="568" y="5"/>
      <point x="585" y="-26"/>
      <point x="585" y="-66" type="curve" smooth="yes"/>
      <point x="585" y="-200"/>
      <point x="404" y="-280"/>
      <point x="238" y="-280" type="curve" smooth="yes"/>
      <point x="141" y="-280"/>
      <point x="40" y="-247"/>
      <point x="40" y="-139" type="curve" smooth="yes"/>
      <point x="40" y="-86"/>
      <point x="74" y="-29"/>
      <point x="141" y="11" type="curve"/>
      <point x="109" y="27"/>
      <point x="84" y="62"/>
      <point x="84" y="107" type="curve" smooth="yes"/>
      <point x="84" y="149"/>
      <point x="104" y="202"/>
      <point x="139" y="232" type="curve"/>
      <point x="104" y="265"/>
      <point x="74" y="304"/>
      <point x="74" y="371" type="curve" smooth="yes"/>
      <point x="74" y="485"/>
      <point x="176" y="559"/>
      <point x="288" y="559" type="curve" smooth="yes"/>
      <point x="360" y="559"/>
      <point x="402" y="535"/>
      <point x="417" y="525" type="curve"/>
      <point x="449" y="567"/>
      <point x="509" y="588"/>
      <point x="541" y="588" type="curve" smooth="yes"/>
      <point x="573" y="588"/>
      <point x="598" y="568"/>
      <point x="598" y="542" type="curve" smooth="yes"/>
      <point x="598" y="517"/>
      <point x="576" y="495"/>
      <point x="551" y="495" type="curve" smooth="yes"/>
      <point x="539" y="495"/>
      <point x="521" y="507"/>
      <point x="516" y="517" type="curve"/>
      <point x="509" y="528"/>
      <point x="501" y="532"/>
      <point x="491" y="532" type="curve" smooth="yes"/>
      <point x="476" y="532"/>
      <point x="451" y="514"/>
      <point x="441" y="502" type="curve"/>
      <point x="478" y="465"/>
      <point x="496" y="431"/>
      <point x="496" y="373" type="curve" smooth="yes"/>
      <point x="496" y="251"/>
      <point x="394" y="184"/>
      <point x="285" y="184" type="curve" smooth="yes"/>
      <point x="238" y="184"/>
      <point x="204" y="193"/>
      <point x="174" y="210" type="curve"/>
      <point x="159" y="189"/>
      <point x="151" y="163"/>
      <point x="151" y="138" type="curve" smooth="yes"/>
      <point x="151" y="85"/>
      <point x="196" y="69"/>
    </contour>
  </outline>
</glyph>
<glyph name="h" format="2">
  <advance width="658"/>
  <unicode hex="0068"/>
  <outline>
    <contour>
      <point x="208" y="355" type="curve" smooth="yes"/>
      <point x="208" y="151" type="line" smooth="yes"/>
      <point x="208" y="48"/>
      <point x="220" y="43"/>
      <point x="283" y="38" type="curve"/>
      <point x="287" y="34"/>
      <point x="289" y="26"/>
      <point x="289" y="17" type="curve" smooth="yes"/>
      <point x="289" y="8"/>
      <point x="287" y="2"/>
      <point x="283" y="-2" type="curve"/>
      <point x="248" y="-1"/>
      <point x="207" y="0"/>
      <point x="160" y="0" type="curve" smooth="yes"/>
      <point x="110" y="0"/>
      <point x="65" y="-1"/>
      <point x="24" y="-2" type="curve"/>
      <point x="20" y="2"/>
      <point x="19" y="8"/>
      <point x="19" y="17" type="curve" smooth="yes"/>
      <point x="19" y="26"/>
      <point x="20" y="34"/>
      <point x="24" y="38" type="curve"/>
      <point x="96" y="43"/>
      <point x="110" y="48"/>
      <point x="110" y="151" type="curve" smooth="yes"/>
      <point x="110" y="693" type="line" smooth="yes"/>
      <point x="110" y="797"/>
      <point x="95" y="791"/>
      <point x="31" y="795" type="curve"/>
      <point x="26" y="800"/>
      <point x="22" y="812"/>
      <point x="22" y="822" type="curve" smooth="yes"/>
      <point x="22" y="826"/>
      <point x="24" y="830"/>
      <point x="24" y="832" type="curve"/>
      <point x="74" y="836"/>
      <point x="166" y="854"/>
      <point x="197" y="866" type="curve"/>
      <point x="208" y="866"/>
      <point x="213" y="862"/>
      <point x="213" y="853" type="curve" smooth="yes"/>
      <point x="213" y="853"/>
      <point x="208" y="804"/>
      <point x="208" y="723" type="curve" smooth="yes"/>
      <point x="208" y="444" type="line" smooth="yes"/>
      <point x="208" y="427"/>
      <point x="215" y="439"/>
      <point x="219" y="444" type="curve" smooth="yes"/>
      <point x="295" y="528"/>
      <point x="369" y="544"/>
      <point x="430" y="544" type="curve" smooth="yes"/>
      <point x="473" y="544"/>
      <point x="512" y="529"/>
      <point x="533" y="502" type="curve" smooth="yes"/>
      <point x="563" y="464"/>
      <point x="567" y="404"/>
      <point x="567" y="336" type="curve" smooth="yes"/>
      <point x="567" y="151" type="line" smooth="yes"/>
      <point x="567" y="49"/>
      <point x="581" y="44"/>
      <point x="650" y="38" type="curve"/>
      <point x="654" y="34"/>
      <point x="655" y="26"/>
      <point x="655" y="17" type="curve" smooth="yes"/>
      <point x="655" y="8"/>
      <point x="654" y="2"/>
      <point x="650" y="-2" type="curve"/>
      <point x="609" y="-1"/>
      <point x="568" y="0"/>
      <point x="518" y="0" type="curve" smooth="yes"/>
      <point x="468" y="0"/>
      <point x="427" y="-1"/>
      <point x="392" y="-2" type="curve"/>
      <point x="390" y="2"/>
      <point x="387" y="8"/>
      <point x="387" y="17" type="curve" smooth="yes"/>
      <point x="387" y="26"/>
      <point x="390" y="34"/>
      <point x="392" y="38" type="curve"/>
      <point x="456" y="44"/>
      <point x="469" y="49"/>
      <point x="469" y="151" type="curve" smooth="yes"/>
      <point x="469" y="340" type="line" smooth="yes"/>
      <point x="469" y="377"/>
      <point x="466" y="410"/>
      <point x="454" y="435" type="curve" smooth="yes"/>
      <point x="440" y="464"/>
      <point x="414" y="477"/>
      <point x="388" y="477" type="curve" smooth="yes"/>
      <point x="340" y="477"/>
      <point x="276" y="453"/>
      <point x="229" y="407" type="curve" smooth="yes"/>
      <point x="219" y="396"/>
      <point x="208" y="381"/>
    </contour>
  </outline>
</glyph>
<glyph name="i" format="2">
  <advance width="350"/>
  <unicode hex="0069"/>
  <outline>
    <contour>
      <point x="112" y="743" type="curve" smooth="yes"/>
      <point x="112" y="773"/>
      <point x="146" y="802"/>
      <point x="176" y="802" type="curve" smooth="yes"/>
      <point x="211" y="802"/>
      <point x="236" y="768"/>
      <point x="236" y="738" type="curve" smooth="yes"/>
      <point x="236" y="712"/>
      <point x="206" y="678"/>
      <point x="171" y="678" type="curve" smooth="yes"/>
      <point x="141" y="678"/>
      <point x="112" y="711"/>
    </contour>
    <contour>
      <point x="226" y="151" type="line" smooth="yes"/>
      <point x="226" y="48"/>
      <point x="238" y="43"/>
      <point x="315" y="38" type="curve"/>
      <point x="317" y="34"/>
      <point x="320" y="26"/>
      <point x="320" y="17" type="curve" smooth="yes"/>
      <point x="320" y="8"/>
      <point x="317" y="2"/>
      <point x="315" y="-2" type="curve"/>
      <point x="273" y="-1"/>
      <point x="226" y="0"/>
      <point x="176" y="0" type="curve" smooth="yes"/>
      <point x="126" y="0"/>
      <point x="79" y="-1"/>
      <point x="37" y="-2" type="curve"/>
      <point x="35" y="2"/>
      <point x="32" y="8"/>
      <point x="32" y="17" type="curve" smooth="yes"/>
      <point x="32" y="26"/>
      <point x="35" y="34"/>
      <point x="37" y="38" type="curve"/>
      <point x="114" y="44"/>
      <point x="126" y="48"/>
      <point x="126" y="151" type="curve" smooth="yes"/>
      <point x="126" y="393" type="line" smooth="yes"/>
      <point x="126" y="464"/>
      <point x="114" y="473"/>
      <point x="47" y="479" type="curve"/>
      <point x="46" y="484"/>
      <point x="44" y="495"/>
      <point x="44" y="503" type="curve" smooth="yes"/>
      <point x="44" y="507"/>
      <point x="44" y="510"/>
      <point x="45" y="512" type="curve"/>
      <point x="129" y="523"/>
      <point x="178" y="534"/>
      <point x="213" y="548" type="curve"/>
      <point x="223" y="548"/>
      <point x="231" y="544"/>
      <point x="231" y="539" type="curve" smooth="yes"/>
      <point x="231" y="539"/>
      <point x="226" y="460"/>
      <point x="226" y="398" type="curve" smooth="yes"/>
    </contour>
  </outline>
</glyph>
<glyph name="j" format="2">
  <advance width="305"/>
  <unicode hex="006A"/>
  <outline>
    <contour>
      <point x="114" y="773" type="curve" smooth="yes"/>
      <point x="114" y="803"/>
      <point x="149" y="832"/>
      <point x="179" y="832" type="curve" smooth="yes"/>
      <point x="212" y="832"/>
      <point x="238" y="798"/>
      <point x="238" y="768" type="curve" smooth="yes"/>
      <point x="238" y="742"/>
      <point x="209" y="708"/>
      <point x="174" y="708" type="curve" smooth="yes"/>
      <point x="144" y="708"/>
      <point x="114" y="741"/>
    </contour>
    <contour>
      <point x="131" y="422" type="line" smooth="yes"/>
      <point x="131" y="493"/>
      <point x="118" y="501"/>
      <point x="51" y="507" type="curve"/>
      <point x="49" y="512"/>
      <point x="47" y="526"/>
      <point x="47" y="535" type="curve" smooth="yes"/>
      <point x="47" y="538"/>
      <point x="48" y="540"/>
      <point x="48" y="542" type="curve"/>
      <point x="134" y="553"/>
      <point x="183" y="564"/>
      <point x="218" y="578" type="curve"/>
      <point x="228" y="578"/>
      <point x="234" y="574"/>
      <point x="234" y="569" type="curve" smooth="yes"/>
      <point x="234" y="569"/>
      <point x="229" y="490"/>
      <point x="229" y="428" type="curve" smooth="yes"/>
      <point x="229" y="166" type="line" smooth="yes"/>
      <point x="229" y="-68"/>
      <point x="194" y="-158"/>
      <point x="136" y="-205" type="curve" smooth="yes"/>
      <point x="90" y="-243"/>
      <point x="26" y="-247"/>
      <point x="0" y="-247" type="curve" smooth="yes"/>
      <point x="-24" y="-247"/>
      <point x="-68" y="-229"/>
      <point x="-68" y="-193" type="curve" smooth="yes"/>
      <point x="-68" y="-171"/>
      <point x="-43" y="-146"/>
      <point x="-29" y="-146" type="curve" smooth="yes"/>
      <point x="-2" y="-146"/>
      <point x="14" y="-167"/>
      <point x="26" y="-179" type="curve" smooth="yes"/>
      <point x="35" y="-188"/>
      <point x="50" y="-192"/>
      <point x="64" y="-192" type="curve" smooth="yes"/>
      <point x="126" y="-192"/>
      <point x="131" y="-40"/>
      <point x="131" y="124" type="curve" smooth="yes"/>
    </contour>
  </outline>
</glyph>
<glyph name="k" format="2">
  <advance width="651"/>
  <unicode hex="006B"/>
  <outline>
    <contour>
      <point x="109" y="151" type="curve" smooth="yes"/>
      <point x="109" y="693" type="line" smooth="yes"/>
      <point x="109" y="792"/>
      <point x="95" y="795"/>
      <point x="38" y="795" type="curve" smooth="yes"/>
      <point x="30" y="795" type="line"/>
      <point x="25" y="800"/>
      <point x="21" y="812"/>
      <point x="21" y="822" type="curve" smooth="yes"/>
      <point x="21" y="826"/>
      <point x="22" y="830"/>
      <point x="22" y="832" type="curve"/>
      <point x="72" y="832"/>
      <point x="165" y="854"/>
      <point x="196" y="866" type="curve"/>
      <point x="207" y="866"/>
      <point x="212" y="862"/>
      <point x="212" y="853" type="curve" smooth="yes"/>
      <point x="212" y="853"/>
      <point x="207" y="804"/>
      <point x="207" y="723" type="curve" smooth="yes"/>
      <point x="207" y="290" type="line"/>
      <point x="231" y="292"/>
      <point x="264" y="308"/>
      <point x="291" y="329" type="curve" smooth="yes"/>
      <point x="323" y="353"/>
      <point x="362" y="394"/>
      <point x="391" y="430" type="curve" smooth="yes"/>
      <point x="397" y="437"/>
      <point x="407" y="451"/>
      <point x="407" y="465" type="curve" smooth="yes"/>
      <point x="407" y="479"/>
      <point x="397" y="494"/>
      <point x="362" y="494" type="curve"/>
      <point x="358" y="498"/>
      <point x="357" y="504"/>
      <point x="357" y="513" type="curve" smooth="yes"/>
      <point x="357" y="522"/>
      <point x="358" y="530"/>
      <point x="362" y="534" type="curve"/>
      <point x="391" y="534"/>
      <point x="437" y="532"/>
      <point x="484" y="532" type="curve" smooth="yes"/>
      <point x="529" y="532"/>
      <point x="562" y="534"/>
      <point x="591" y="534" type="curve"/>
      <point x="595" y="530"/>
      <point x="598" y="522"/>
      <point x="598" y="513" type="curve" smooth="yes"/>
      <point x="598" y="504"/>
      <point x="595" y="498"/>
      <point x="591" y="494" type="curve"/>
      <point x="541" y="494"/>
      <point x="498" y="479"/>
      <point x="461" y="439" type="curve" smooth="yes"/>
      <point x="352" y="326" type="line" smooth="yes"/>
      <point x="347" y="321"/>
      <point x="347" y="319"/>
      <point x="347" y="314" type="curve" smooth="yes"/>
      <point x="347" y="308"/>
      <point x="351" y="301"/>
      <point x="356" y="296" type="curve" smooth="yes"/>
      <point x="520" y="91" type="line" smooth="yes"/>
      <point x="553" y="49"/>
      <point x="584" y="43"/>
      <point x="626" y="38" type="curve"/>
      <point x="630" y="34"/>
      <point x="632" y="26"/>
      <point x="632" y="17" type="curve" smooth="yes"/>
      <point x="632" y="8"/>
      <point x="630" y="2"/>
      <point x="626" y="-2" type="curve"/>
      <point x="601" y="-2"/>
      <point x="563" y="0"/>
      <point x="525" y="0" type="curve" smooth="yes"/>
      <point x="500" y="0"/>
      <point x="473" y="-2"/>
      <point x="448" y="-2" type="curve" smooth="yes"/>
      <point x="444" y="-2"/>
      <point x="443" y="0"/>
      <point x="443" y="4" type="curve" smooth="yes"/>
      <point x="443" y="18"/>
      <point x="427" y="41"/>
      <point x="391" y="91" type="curve" smooth="yes"/>
      <point x="300" y="212" type="line" smooth="yes"/>
      <point x="285" y="232"/>
      <point x="274" y="243"/>
      <point x="260" y="252" type="curve"/>
      <point x="248" y="257"/>
      <point x="231" y="259"/>
      <point x="207" y="259" type="curve"/>
      <point x="207" y="151" type="line" smooth="yes"/>
      <point x="207" y="48"/>
      <point x="221" y="43"/>
      <point x="272" y="38" type="curve"/>
      <point x="276" y="34"/>
      <point x="278" y="26"/>
      <point x="278" y="17" type="curve" smooth="yes"/>
      <point x="278" y="8"/>
      <point x="276" y="2"/>
      <point x="272" y="-2" type="curve"/>
      <point x="243" y="-1"/>
      <point x="202" y="0"/>
      <point x="159" y="0" type="curve" smooth="yes"/>
      <point x="109" y="0"/>
      <point x="67" y="-1"/>
      <point x="26" y="-2" type="curve"/>
      <point x="22" y="2"/>
      <point x="20" y="8"/>
      <point x="20" y="17" type="curve" smooth="yes"/>
      <point x="20" y="26"/>
      <point x="22" y="34"/>
      <point x="26" y="38" type="curve"/>
      <point x="95" y="43"/>
      <point x="109" y="48"/>
    </contour>
  </outline>
</glyph>
<glyph name="l" format="2">
  <advance width="328"/>
  <unicode hex="006C"/>
  <outline>
    <contour>
      <point x="117" y="151" type="curve" smooth="yes"/>
      <point x="117" y="693" type="line" smooth="yes"/>
      <point x="117" y="786"/>
      <point x="109" y="790"/>
      <point x="37" y="795" type="curve"/>
      <point x="31" y="800"/>
      <point x="29" y="812"/>
      <point x="29" y="822" type="curve" smooth="yes"/>
      <point x="29" y="826"/>
      <point x="29" y="830"/>
      <point x="30" y="832" type="curve"/>
      <point x="80" y="836"/>
      <point x="171" y="854"/>
      <point x="203" y="866" type="curve"/>
      <point x="213" y="866"/>
      <point x="218" y="862"/>
      <point x="218" y="853" type="curve" smooth="yes"/>
      <point x="218" y="853"/>
      <point x="213" y="804"/>
      <point x="213" y="723" type="curve" smooth="yes"/>
      <point x="213" y="151" type="line" smooth="yes"/>
      <point x="213" y="48"/>
      <point x="229" y="42"/>
      <point x="303" y="38" type="curve"/>
      <point x="308" y="34"/>
      <point x="309" y="26"/>
      <point x="309" y="17" type="curve" smooth="yes"/>
      <point x="309" y="8"/>
      <point x="308" y="2"/>
      <point x="303" y="-2" type="curve"/>
      <point x="263" y="-1"/>
      <point x="216" y="0"/>
      <point x="166" y="0" type="curve" smooth="yes"/>
      <point x="116" y="0"/>
      <point x="69" y="-1"/>
      <point x="27" y="-2" type="curve"/>
      <point x="22" y="2"/>
      <point x="21" y="8"/>
      <point x="21" y="17" type="curve" smooth="yes"/>
      <point x="21" y="26"/>
      <point x="22" y="34"/>
      <point x="27" y="38" type="curve"/>
      <point x="101" y="42"/>
      <point x="117" y="48"/>
    </contour>
  </outline>
</glyph>
<glyph name="m" format="2">
  <advance width="982"/>
  <unicode hex="006D"/>
  <outline>
    <contour>
      <point x="202" y="444" type="curve" smooth="yes"/>
      <point x="202" y="429"/>
      <point x="211" y="438"/>
      <point x="217" y="444" type="curve" smooth="yes"/>
      <point x="268" y="501"/>
      <point x="333" y="544"/>
      <point x="405" y="544" type="curve" smooth="yes"/>
      <point x="469" y="544"/>
      <point x="517" y="504"/>
      <point x="529" y="453" type="curve" smooth="yes"/>
      <point x="531" y="443"/>
      <point x="539" y="449"/>
      <point x="543" y="453" type="curve" smooth="yes"/>
      <point x="607" y="521"/>
      <point x="684" y="544"/>
      <point x="748" y="544" type="curve" smooth="yes"/>
      <point x="857" y="544"/>
      <point x="875" y="457"/>
      <point x="875" y="347" type="curve" smooth="yes"/>
      <point x="875" y="151" type="line" smooth="yes"/>
      <point x="875" y="49"/>
      <point x="887" y="38"/>
      <point x="955" y="38" type="curve"/>
      <point x="957" y="34"/>
      <point x="959" y="26"/>
      <point x="959" y="17" type="curve" smooth="yes"/>
      <point x="959" y="8"/>
      <point x="957" y="2"/>
      <point x="955" y="-2" type="curve"/>
      <point x="920" y="-2"/>
      <point x="877" y="0"/>
      <point x="827" y="0" type="curve" smooth="yes"/>
      <point x="777" y="0"/>
      <point x="732" y="-2"/>
      <point x="701" y="-2" type="curve"/>
      <point x="697" y="2"/>
      <point x="696" y="8"/>
      <point x="696" y="17" type="curve" smooth="yes"/>
      <point x="696" y="26"/>
      <point x="697" y="34"/>
      <point x="701" y="38" type="curve"/>
      <point x="765" y="38"/>
      <point x="777" y="49"/>
      <point x="777" y="151" type="curve" smooth="yes"/>
      <point x="777" y="370" type="line" smooth="yes"/>
      <point x="777" y="453"/>
      <point x="750" y="477"/>
      <point x="703" y="477" type="curve" smooth="yes"/>
      <point x="655" y="477"/>
      <point x="599" y="464"/>
      <point x="539" y="398" type="curve"/>
      <point x="539" y="383"/>
      <point x="541" y="365"/>
      <point x="541" y="348" type="curve" smooth="yes"/>
      <point x="541" y="151" type="line" smooth="yes"/>
      <point x="541" y="49"/>
      <point x="552" y="38"/>
      <point x="614" y="38" type="curve"/>
      <point x="616" y="34"/>
      <point x="618" y="26"/>
      <point x="618" y="17" type="curve" smooth="yes"/>
      <point x="618" y="8"/>
      <point x="616" y="2"/>
      <point x="614" y="-2" type="curve"/>
      <point x="583" y="-2"/>
      <point x="542" y="0"/>
      <point x="492" y="0" type="curve" smooth="yes"/>
      <point x="442" y="0"/>
      <point x="397" y="-1"/>
      <point x="366" y="-2" type="curve"/>
      <point x="362" y="2"/>
      <point x="361" y="8"/>
      <point x="361" y="17" type="curve" smooth="yes"/>
      <point x="361" y="26"/>
      <point x="362" y="34"/>
      <point x="366" y="38" type="curve"/>
      <point x="433" y="43"/>
      <point x="443" y="49"/>
      <point x="443" y="151" type="curve" smooth="yes"/>
      <point x="443" y="367" type="line" smooth="yes"/>
      <point x="443" y="450"/>
      <point x="408" y="477"/>
      <point x="361" y="477" type="curve" smooth="yes"/>
      <point x="323" y="477"/>
      <point x="275" y="454"/>
      <point x="227" y="407" type="curve" smooth="yes"/>
      <point x="217" y="396"/>
      <point x="206" y="381"/>
      <point x="206" y="355" type="curve" smooth="yes"/>
      <point x="206" y="151" type="line" smooth="yes"/>
      <point x="206" y="49"/>
      <point x="219" y="44"/>
      <point x="281" y="38" type="curve"/>
      <point x="285" y="34"/>
      <point x="288" y="26"/>
      <point x="288" y="17" type="curve" smooth="yes"/>
      <point x="288" y="8"/>
      <point x="285" y="2"/>
      <point x="281" y="-2" type="curve"/>
      <point x="244" y="-1"/>
      <point x="207" y="0"/>
      <point x="157" y="0" type="curve" smooth="yes"/>
      <point x="107" y="0"/>
      <point x="61" y="-1"/>
      <point x="24" y="-2" type="curve"/>
      <point x="20" y="2"/>
      <point x="17" y="8"/>
      <point x="17" y="17" type="curve" smooth="yes"/>
      <point x="17" y="26"/>
      <point x="20" y="34"/>
      <point x="24" y="38" type="curve"/>
      <point x="92" y="43"/>
      <point x="108" y="49"/>
      <point x="108" y="151" type="curve" smooth="yes"/>
      <point x="108" y="393" type="line" smooth="yes"/>
      <point x="108" y="465"/>
      <point x="94" y="471"/>
      <point x="27" y="477" type="curve"/>
      <point x="26" y="482"/>
      <point x="24" y="494"/>
      <point x="24" y="503" type="curve" smooth="yes"/>
      <point x="24" y="507"/>
      <point x="24" y="510"/>
      <point x="25" y="512" type="curve"/>
      <point x="111" y="523"/>
      <point x="142" y="534"/>
      <point x="177" y="548" type="curve"/>
      <point x="187" y="548"/>
      <point x="190" y="543"/>
      <point x="192" y="538" type="curve" smooth="yes"/>
      <point x="197" y="524"/>
      <point x="200" y="480"/>
    </contour>
  </outline>
</glyph>
<glyph name="n" format="2">
  <advance width="700"/>
  <unicode hex="006E"/>
  <outline>
    <contour>
      <point x="238" y="444" type="curve" smooth="yes"/>
      <point x="311" y="528"/>
      <point x="380" y="544"/>
      <point x="441" y="544" type="curve" smooth="yes"/>
      <point x="484" y="544"/>
      <point x="523" y="529"/>
      <point x="544" y="502" type="curve" smooth="yes"/>
      <point x="573" y="464"/>
      <point x="578" y="404"/>
      <point x="578" y="336" type="curve" smooth="yes"/>
      <point x="578" y="151" type="line" smooth="yes"/>
      <point x="578" y="49"/>
      <point x="592" y="44"/>
      <point x="661" y="38" type="curve"/>
      <point x="665" y="34"/>
      <point x="666" y="26"/>
      <point x="666" y="17" type="curve" smooth="yes"/>
      <point x="666" y="8"/>
      <point x="665" y="2"/>
      <point x="661" y="-2" type="curve"/>
      <point x="624" y="-1"/>
      <point x="579" y="0"/>
      <point x="529" y="0" type="curve" smooth="yes"/>
      <point x="479" y="0"/>
      <point x="440" y="-1"/>
      <point x="403" y="-2" type="curve"/>
      <point x="399" y="2"/>
      <point x="398" y="8"/>
      <point x="398" y="17" type="curve" smooth="yes"/>
      <point x="398" y="26"/>
      <point x="399" y="34"/>
      <point x="403" y="38" type="curve"/>
      <point x="467" y="44"/>
      <point x="480" y="49"/>
      <point x="480" y="151" type="curve" smooth="yes"/>
      <point x="480" y="340" type="line" smooth="yes"/>
      <point x="480" y="377"/>
      <point x="477" y="410"/>
      <point x="465" y="435" type="curve" smooth="yes"/>
      <point x="450" y="464"/>
      <point x="424" y="477"/>
      <point x="399" y="477" type="curve" smooth="yes"/>
      <point x="351" y="477"/>
      <point x="295" y="453"/>
      <point x="248" y="407" type="curve" smooth="yes"/>
      <point x="238" y="396"/>
      <point x="227" y="381"/>
      <point x="227" y="355" type="curve" smooth="yes"/>
      <point x="227" y="151" type="line" smooth="yes"/>
      <point x="227" y="49"/>
      <point x="240" y="44"/>
      <point x="303" y="38" type="curve"/>
      <point x="307" y="34"/>
      <point x="308" y="26"/>
      <point x="308" y="17" type="curve" smooth="yes"/>
      <point x="308" y="8"/>
      <point x="307" y="2"/>
      <point x="303" y="-2" type="curve"/>
      <point x="266" y="-1"/>
      <point x="229" y="0"/>
      <point x="179" y="0" type="curve" smooth="yes"/>
      <point x="129" y="0"/>
      <point x="79" y="-1"/>
      <point x="42" y="-2" type="curve"/>
      <point x="38" y="2"/>
      <point x="37" y="8"/>
      <point x="37" y="17" type="curve" smooth="yes"/>
      <point x="37" y="26"/>
      <point x="38" y="34"/>
      <point x="42" y="38" type="curve"/>
      <point x="116" y="44"/>
      <point x="129" y="49"/>
      <point x="129" y="151" type="curve" smooth="yes"/>
      <point x="129" y="393" type="line" smooth="yes"/>
      <point x="129" y="465"/>
      <point x="115" y="471"/>
      <point x="48" y="477" type="curve"/>
      <point x="47" y="482"/>
      <point x="45" y="494"/>
      <point x="45" y="503" type="curve" smooth="yes"/>
      <point x="45" y="507"/>
      <point x="45" y="510"/>
      <point x="46" y="512" type="curve"/>
      <point x="132" y="523"/>
      <point x="163" y="534"/>
      <point x="198" y="548" type="curve"/>
      <point x="208" y="548"/>
      <point x="211" y="543"/>
      <point x="213" y="538" type="curve" smooth="yes"/>
      <point x="219" y="524"/>
      <point x="222" y="477"/>
      <point x="223" y="444" type="curve" smooth="yes"/>
      <point x="223" y="432"/>
      <point x="231" y="435"/>
    </contour>
  </outline>
</glyph>
<glyph name="o" format="2">
  <advance width="602"/>
  <unicode hex="006F"/>
  <outline>
    <contour>
      <point x="579" y="278" type="curve" smooth="yes"/>
      <point x="579" y="127"/>
      <point x="482" y="0"/>
      <point x="316" y="0" type="curve" smooth="yes"/>
      <point x="140" y="0"/>
      <point x="56" y="141"/>
      <point x="56" y="267" type="curve" smooth="yes"/>
      <point x="56" y="428"/>
      <point x="158" y="557"/>
      <point x="319" y="557" type="curve" smooth="yes"/>
      <point x="509" y="557"/>
      <point x="579" y="407"/>
    </contour>
    <contour>
      <point x="300" y="513" type="curve" smooth="yes"/>
      <point x="188" y="513"/>
      <point x="162" y="403"/>
      <point x="162" y="295" type="curve" smooth="yes"/>
      <point x="162" y="200"/>
      <point x="205" y="43"/>
      <point x="334" y="43" type="curve" smooth="yes"/>
      <point x="392" y="43"/>
      <point x="472" y="82"/>
      <point x="472" y="238" type="curve" smooth="yes"/>
      <point x="472" y="417"/>
      <point x="407" y="513"/>
    </contour>
  </outline>
</glyph>
<glyph name="p" format="2">
  <advance width="618"/>
  <unicode hex="0070"/>
  <outline>
    <contour>
      <point x="218" y="423" type="curve" smooth="yes"/>
      <point x="204" y="404"/>
      <point x="198" y="394"/>
      <point x="198" y="368" type="curve" smooth="yes"/>
      <point x="198" y="143" type="line" smooth="yes"/>
      <point x="198" y="98"/>
      <point x="203" y="90"/>
      <point x="228" y="68" type="curve" smooth="yes"/>
      <point x="250" y="48"/>
      <point x="294" y="42"/>
      <point x="316" y="42" type="curve" smooth="yes"/>
      <point x="455" y="42"/>
      <point x="491" y="168"/>
      <point x="491" y="270" type="curve" smooth="yes"/>
      <point x="491" y="410"/>
      <point x="422" y="500"/>
      <point x="343" y="500" type="curve" smooth="yes"/>
      <point x="307" y="500"/>
      <point x="250" y="463"/>
    </contour>
    <contour>
      <point x="596" y="303" type="curve" smooth="yes"/>
      <point x="596" y="132"/>
      <point x="491" y="0"/>
      <point x="324" y="0" type="curve" smooth="yes"/>
      <point x="286" y="0"/>
      <point x="247" y="7"/>
      <point x="216" y="19" type="curve" smooth="yes"/>
      <point x="204" y="24"/>
      <point x="198" y="26"/>
      <point x="198" y="10" type="curve" smooth="yes"/>
      <point x="198" y="-124" type="line" smooth="yes"/>
      <point x="198" y="-227"/>
      <point x="212" y="-232"/>
      <point x="300" y="-237" type="curve"/>
      <point x="304" y="-241"/>
      <point x="306" y="-249"/>
      <point x="306" y="-258" type="curve" smooth="yes"/>
      <point x="306" y="-267"/>
      <point x="304" y="-274"/>
      <point x="300" y="-278" type="curve"/>
      <point x="259" y="-277"/>
      <point x="200" y="-275"/>
      <point x="150" y="-275" type="curve" smooth="yes"/>
      <point x="100" y="-275"/>
      <point x="54" y="-277"/>
      <point x="11" y="-278" type="curve"/>
      <point x="7" y="-274"/>
      <point x="6" y="-267"/>
      <point x="6" y="-258" type="curve" smooth="yes"/>
      <point x="6" y="-249"/>
      <point x="7" y="-241"/>
      <point x="11" y="-237" type="curve"/>
      <point x="87" y="-233"/>
      <point x="100" y="-227"/>
      <point x="100" y="-124" type="curve" smooth="yes"/>
      <point x="100" y="405" type="line" smooth="yes"/>
      <point x="100" y="477"/>
      <point x="87" y="484"/>
      <point x="20" y="490" type="curve"/>
      <point x="18" y="495"/>
      <point x="16" y="509"/>
      <point x="16" y="518" type="curve" smooth="yes"/>
      <point x="16" y="521"/>
      <point x="17" y="523"/>
      <point x="17" y="525" type="curve"/>
      <point x="103" y="536"/>
      <point x="135" y="546"/>
      <point x="170" y="560" type="curve"/>
      <point x="180" y="560"/>
      <point x="183" y="556"/>
      <point x="185" y="551" type="curve" smooth="yes"/>
      <point x="191" y="537"/>
      <point x="194" y="506"/>
      <point x="195" y="469" type="curve" smooth="yes"/>
      <point x="196" y="457"/>
      <point x="202" y="455"/>
      <point x="208" y="464" type="curve" smooth="yes"/>
      <point x="258" y="519"/>
      <point x="321" y="557"/>
      <point x="378" y="557" type="curve" smooth="yes"/>
      <point x="504" y="557"/>
      <point x="596" y="434"/>
    </contour>
  </outline>
</glyph>
<glyph name="q" format="2">
  <advance width="658"/>
  <unicode hex="0071"/>
  <outline>
    <contour>
      <point x="401" y="469" type="curve" smooth="yes"/>
      <point x="374" y="500"/>
      <point x="341" y="515"/>
      <point x="303" y="515" type="curve" smooth="yes"/>
      <point x="204" y="515"/>
      <point x="151" y="423"/>
      <point x="151" y="294" type="curve" smooth="yes"/>
      <point x="151" y="107"/>
      <point x="259" y="55"/>
      <point x="331" y="55" type="curve" smooth="yes"/>
      <point x="351" y="55"/>
      <point x="384" y="56"/>
      <point x="413" y="71" type="curve" smooth="yes"/>
      <point x="429" y="80"/>
      <point x="430" y="86"/>
      <point x="430" y="108" type="curve" smooth="yes"/>
      <point x="430" y="393" type="line" smooth="yes"/>
      <point x="430" y="423"/>
      <point x="426" y="442"/>
    </contour>
    <contour>
      <point x="433" y="-126" type="curve" smooth="yes"/>
      <point x="430" y="12" type="line" smooth="yes"/>
      <point x="430" y="26"/>
      <point x="429" y="31"/>
      <point x="424" y="31" type="curve" smooth="yes"/>
      <point x="419" y="31"/>
      <point x="411" y="28"/>
      <point x="397" y="19" type="curve" smooth="yes"/>
      <point x="376" y="7"/>
      <point x="334" y="0"/>
      <point x="301" y="0" type="curve" smooth="yes"/>
      <point x="122" y="0"/>
      <point x="45" y="154"/>
      <point x="45" y="269" type="curve" smooth="yes"/>
      <point x="45" y="433"/>
      <point x="157" y="557"/>
      <point x="308" y="557" type="curve" smooth="yes"/>
      <point x="361" y="557"/>
      <point x="410" y="546"/>
      <point x="448" y="521" type="curve" smooth="yes"/>
      <point x="453" y="517"/>
      <point x="456" y="515"/>
      <point x="460" y="515" type="curve" smooth="yes"/>
      <point x="467" y="515"/>
      <point x="474" y="522"/>
      <point x="484" y="537" type="curve" smooth="yes"/>
      <point x="494" y="551"/>
      <point x="501" y="560"/>
      <point x="510" y="560" type="curve" smooth="yes"/>
      <point x="524" y="560"/>
      <point x="528" y="546"/>
      <point x="528" y="529" type="curve" smooth="yes"/>
      <point x="528" y="-125" type="line" smooth="yes"/>
      <point x="528" y="-228"/>
      <point x="542" y="-233"/>
      <point x="618" y="-237" type="curve"/>
      <point x="622" y="-241"/>
      <point x="624" y="-249"/>
      <point x="624" y="-258" type="curve" smooth="yes"/>
      <point x="624" y="-267"/>
      <point x="622" y="-274"/>
      <point x="618" y="-278" type="curve"/>
      <point x="577" y="-277"/>
      <point x="530" y="-275"/>
      <point x="480" y="-275" type="curve" smooth="yes"/>
      <point x="430" y="-275"/>
      <point x="384" y="-277"/>
      <point x="341" y="-278" type="curve"/>
      <point x="337" y="-274"/>
      <point x="336" y="-267"/>
      <point x="336" y="-258" type="curve" smooth="yes"/>
      <point x="336" y="-249"/>
      <point x="337" y="-241"/>
      <point x="341" y="-237" type="curve"/>
      <point x="417" y="-233"/>
      <point x="433" y="-229"/>
    </contour>
  </outline>
</glyph>
<glyph name="r" format="2">
  <advance width="465"/>
  <unicode hex="0072"/>
  <outline>
    <contour>
      <point x="219" y="444" type="curve" smooth="yes"/>
      <point x="219" y="438"/>
      <point x="226" y="427"/>
      <point x="233" y="441" type="curve" smooth="yes"/>
      <point x="262" y="489"/>
      <point x="313" y="544"/>
      <point x="371" y="544" type="curve" smooth="yes"/>
      <point x="423" y="544"/>
      <point x="445" y="509"/>
      <point x="445" y="485" type="curve" smooth="yes"/>
      <point x="445" y="454"/>
      <point x="417" y="423"/>
      <point x="387" y="423" type="curve" smooth="yes"/>
      <point x="365" y="423"/>
      <point x="351" y="439"/>
      <point x="342" y="451" type="curve" smooth="yes"/>
      <point x="332" y="463"/>
      <point x="321" y="467"/>
      <point x="310" y="467" type="curve" smooth="yes"/>
      <point x="295" y="467"/>
      <point x="267" y="427"/>
      <point x="253" y="407" type="curve" smooth="yes"/>
      <point x="238" y="385"/>
      <point x="223" y="356"/>
      <point x="223" y="324" type="curve" smooth="yes"/>
      <point x="223" y="151" type="line" smooth="yes"/>
      <point x="223" y="48"/>
      <point x="238" y="38"/>
      <point x="325" y="38" type="curve"/>
      <point x="329" y="34"/>
      <point x="330" y="26"/>
      <point x="330" y="17" type="curve" smooth="yes"/>
      <point x="330" y="8"/>
      <point x="329" y="2"/>
      <point x="325" y="-2" type="curve"/>
      <point x="282" y="-2"/>
      <point x="225" y="0"/>
      <point x="175" y="0" type="curve" smooth="yes"/>
      <point x="125" y="0"/>
      <point x="76" y="-2"/>
      <point x="33" y="-2" type="curve"/>
      <point x="29" y="2"/>
      <point x="27" y="8"/>
      <point x="27" y="17" type="curve" smooth="yes"/>
      <point x="27" y="26"/>
      <point x="29" y="34"/>
      <point x="33" y="38" type="curve"/>
      <point x="110" y="38"/>
      <point x="125" y="48"/>
      <point x="125" y="151" type="curve" smooth="yes"/>
      <point x="125" y="393" type="line" smooth="yes"/>
      <point x="125" y="465"/>
      <point x="112" y="477"/>
      <point x="45" y="477" type="curve"/>
      <point x="43" y="482"/>
      <point x="41" y="496"/>
      <point x="41" y="505" type="curve" smooth="yes"/>
      <point x="41" y="508"/>
      <point x="42" y="510"/>
      <point x="42" y="512" type="curve"/>
      <point x="128" y="523"/>
      <point x="160" y="534"/>
      <point x="195" y="548" type="curve"/>
      <point x="205" y="548"/>
      <point x="208" y="543"/>
      <point x="210" y="538" type="curve" smooth="yes"/>
      <point x="215" y="524"/>
      <point x="219" y="494"/>
    </contour>
  </outline>
</glyph>
